<?xml version="1.0" encoding="utf-8" ?>
<svg baseProfile="full" height="300mm" version="1.1" viewBox="0,0,200,300" width="200mm" xmlns="http://www.w3.org/2000/svg" xmlns:ev="http://www.w3.org/2001/xml-events" xmlns:xlink="http://www.w3.org/1999/xlink"><defs /><rect fill="#222222" height="300" width="200" x="0" y="0" /><text fill="#FFFFFF" style="font-size:12px; font-family:Arial; font-weight:bold;" x="10" y="20">Over 1km Runs</text><text fill="#FFFFFF" style="font-size:4px; font-family:Arial" x="10" y="280">ATHLETE</text><text fill="#FFFFFF" style="font-size:9px; font-family:Arial" x="10" y="290">ahianzhang</text><text fill="#FFFFFF" style="font-size:4px; font-family:Arial" x="120" y="280">STATISTICS</text><text fill="#FFFFFF" style="font-size:3px; font-family:Arial" x="120" y="285">Number: 31</text><text fill="#FFFFFF" style="font-size:3px; font-family:Arial" x="120" y="290">Weekly: 1.1</text><text fill="#FFFFFF" style="font-size:3px; font-family:Arial" x="141" y="285">Total: 93.2 km</text><text fill="#FFFFFF" style="font-size:3px; font-family:Arial" x="141" y="290">Avg: 3.0 km</text><text fill="#FFFFFF" style="font-size:3px; font-family:Arial" x="167" y="285">Min: 1.1 km</text><text fill="#FFFFFF" style="font-size:3px; font-family:Arial" x="167" y="290">Max: 6.0 km</text><polyline fill="none" points="41.936222028161865,47.155886775908584 40.55663281714078,46.96146557855536 39.52442218438955,46.27450725730887 39.018241970275994,46.183776513978955 38.59146257408429,46.443006962195795 38.00588154204888,47.40215301221906 36.576666819804814,48.231676340757986 35.792583742993884,48.34832743475272 35.405504755734,47.078118348290445 34.88939943938749,46.170814971592335 34.54202086105943,45.93750688418368 33.886964113335125,45.92454530572286 31.82254284794908,46.50781445548637 30.681156090577133,46.27450725730887 29.619170151127037,45.769006215974514 27.783026237157173,44.187676604844455 26.284335799282417,43.66920172327809 18.919909938878845,44.01917260180926 17.66934705694439,44.39506570622325 14.930018839309923,44.44691290552146 13.411478196911048,44.835765931376955 12.86559757386567,45.25054060728144 12.002113679191098,46.35227639178629 11.714285714260768,47.63545723496645 12.30979184852913,48.5038619872721 12.696870835789014,49.735167538725364 15.753802324994467,49.46298568246857 19.813169140252285,49.39818035512144 21.381335293874145,50.00734855711198 22.53264715342084,49.99438757526514 25.90718191425549,50.61651256243931 35.59408169821836,49.13895857074385 35.80250884522684,48.98342513531679 35.94146027660463,48.464978374810016 36.675917842192575,48.2575988194003 38.144832973368466,47.42807573405298 38.62123788072495,46.5596604159291 39.21674401499331,46.27450725730887 40.755134861858096,47.06515693703841 42.035473050549626,47.2077323563426 42.571428571420256,47.73914780305495" stroke="#4dd2ff" stroke-linecap="round" stroke-linejoin="round" stroke-width="0.5"><title>2022-04-12 6.0km</title></polyline><polyline fill="none" points="55.7534880930325,50.203102792729624 57.534790986799635,61.27859659388196 59.01921006490011,62.571428571420256 61.295319318189286,61.494068985339254 62.94467384926975,61.40788004771457 64.89091219636612,59.727190709265415 68.94832434330601,60.63217847113265 71.15845941519365,56.96911556957639 71.09248523402493,52.83195429749321 72.97274939960334,48.04828892915975 72.5109301309567,46.66919975957717 71.75222704641055,46.2813297638786 68.42053089325782,47.01397265904234 62.74675130576361,45.85036250131088 62.680777124362066,43.30764277881826 60.93246132135391,38.049745729978895 58.88726170244627,35.85174447292229 57.20492008049041,32.10217494904646 55.09374628053047,31.714285714260768 54.236081924289465,32.61935979849659 54.236081924289465,35.205270384205505 57.105958808679134,38.13594152254518 55.489591368008405,42.57499063771684 55.489591368008405,47.40184168718406 58.16154570877552,62.22667393376469 62.77973839628976,61.40788004771457 64.69298965262715,59.727190709265415 67.03507308696862,60.67527305695694 69.14624688704498,60.33051619367325 71.22443359636236,56.75363985844888 71.12547232455108,52.40099664698937 72.93976230896078,48.393060209811665 72.93976230896078,47.14326239208458 71.95014959026594,46.19513636184274 68.88235016190447,46.97087606880814 62.74675130576361,45.72107219908503 62.713764215121046,43.35073990657111 60.998435502522625,38.13594152254518 59.34908097132575,36.75680580630433 57.20492008049041,32.14527372128214 54.79686246486381,31.972878594417125 54.17010774312075,33.00724783795886 54.368030286743306,35.50695846934104 56.64413953991607,37.27398245889344 57.20492008049041,38.78240915999049 55.819462274201214,41.45446029861341 55.39063009619713,43.91100199313951 57.40284262422938,60.7614622094261 58.52440370549448,62.442145629785955 61.295319318189286,61.321691084769554 61.39428059000056,60.02885360637447 59.843887330498546,56.66744952992303" stroke="#4dd2ff" stroke-linecap="round" stroke-linejoin="round" stroke-width="0.5"><title>2022-04-09 5.0km</title></polyline><polyline fill="none" points="115.42857142863795,46.69742156974098 112.33906633919105,46.326134351518704 110.02667602675501,44.989493606073665 109.17374517384451,45.36078376341902 108.37767637777142,47.1182127634529 105.07967707980424,48.92512773476483 103.90452790469863,49.17264882774907 102.84310284326784,46.425144356282544 101.15619515627623,44.61820263238042 100.13267813285347,44.444933231920004 96.15233415248804,45.68256790599844 94.46542646549642,45.28652579728805 92.1530361531768,44.29641646138043 88.2864162864862,41.103274298569886 88.91189891204704,41.845870887933415 87.05440505454317,43.38056015667098 86.33415233436972,44.64295538933948 86.29624429636169,45.85583603649866 87.60407160420436,47.68751682701986 89.63215163222048,48.25681897121831 90.25763425778132,48.92512773476483 89.59424359432887,49.93996191039332 89.57528957549948,50.88053448100982 88.00210600229912,51.9201085951936 85.2158652159851,52.09337032533949 85.08318708336446,52.786415468290215 84.60933660948649,52.786415468290215 84.57142857147846,53.18243998714024 87.09231309243478,53.058682424773 103.27904527913779,50.41024885058869 103.98034398048185,49.22215300286189 104.96595296612941,49.09839253791142 106.80449280457105,47.935039734249585" stroke="#4dd2ff" stroke-linecap="round" stroke-linejoin="round" stroke-width="0.5"><title>2022-04-08 3.4km</title></polyline><polyline fill="none" points="151.8571428571595,43.83628138829954 151.31378260289785,45.92860077065416 151.25658678659238,50.785704480309505 150.1412683702074,45.779149956360925 123.05904938420281,43.35056192992488 121.0,50.486808465997456 123.0304514762247,50.93515235581435" stroke="#4dd2ff" stroke-linecap="round" stroke-linejoin="round" stroke-width="0.5"><title>2022-03-19 1.5km</title></polyline><polyline fill="none" points="165.04541710286867,49.819853254186455 166.8775915869046,61.09175170250819 167.4772123269504,62.223269972309936 168.60982928064186,62.527908768941415 172.37411503877956,61.439911629859125 174.7392857359955,59.91670893045375 177.17108096019365,60.70007129572332 178.5035714940168,60.1778299488069 180.2358091879869,57.17492435890017 180.5023072946351,52.21353546855971 182.30116951523814,47.25206358302967 180.93536671821494,46.29457699836348 177.8706384904217,47.16501947585493 172.24086598528083,46.12048819629126 170.17550565791316,37.85115238878643 168.31001891056076,36.153733885643305 166.1114095299272,31.714285714289872 164.11267372919247,31.801334356394364 163.41311619908083,34.06459008320235 163.7795510957949,35.45735425330349 166.57778121670708,37.938199229654856 164.77891899610404,42.50812249426963 164.74560673278756,45.68526574401767 165.4451642630156,52.38762069423683 167.4772123269504,62.17975011872477 168.4099557006266,62.571428571420256 175.17234515957534,60.04726946828305 177.60414038365707,60.787111430836376 179.4030026042601,58.785181861312594 180.4689950312022,56.04338682987145" stroke="#4dd2ff" stroke-linecap="round" stroke-linejoin="round" stroke-width="0.5"><title>2021-08-09 3.0km</title></polyline><polyline fill="none" points="16.55882800614927,79.95638424076606 29.7368746252032,91.48108753957786 36.54480236361269,96.42820771623519 37.223406093311496,96.85714285714494 37.72688627964817,96.68556891409389 34.44331984629389,67.74460268602706 32.735865300986916,67.11540351780422 21.834424742264673,66.0" stroke="#4dd2ff" stroke-linecap="round" stroke-linejoin="round" stroke-width="0.5"><title>2021-05-14 2.7km</title></polyline><polyline fill="none" points="51.92123241641093,78.01546390121803 66.7777998931706,91.1034609957569 74.55981142865494,96.85714285714494 75.22162472642958,96.55902862758376 75.1988035782706,93.78654534679663 71.57024101482239,66.00000000001455" stroke="#4dd2ff" stroke-linecap="round" stroke-linejoin="round" stroke-width="0.5"><title>2021-02-21 2.3km</title></polyline><polyline fill="none" points="91.61279766133521,84.7162894695648 93.29023812909145,95.76141822474892 94.09540955361445,96.81331394895096 95.23606907168869,96.85714285713038 98.65804762602784,96.11205054449965 100.60387856862508,94.75334801303688 104.16005236026831,95.14781067485455 105.66974878113251,94.05207977228565 106.94460353662726,92.21124280741788 107.01170115545392,88.00357285881182 108.756239241804,82.43708508225973 108.18590948276687,81.38513872993644 106.7097618712578,81.03448912259773 103.58972260111477,81.51663222667412 98.55740119784605,80.28935734002152 98.45675476978067,78.27310907896026 96.5780214460101,72.79410484203254 94.63219050329644,70.73397324871621 92.65281075146049,66.48216737399343 91.24376075831242,66.0" stroke="#4dd2ff" stroke-linecap="round" stroke-linejoin="round" stroke-width="0.5"><title>2020-09-13 1.7km</title></polyline><polyline fill="none" points="124.76751585840248,77.91573052917374 139.71322609693743,91.0249451038544 146.98411215888336,96.41279125616711 147.8770279911114,96.85714285714494 148.089626998757,96.60719520991552 144.6455230746651,67.9165667219786 143.30614932638127,67.30548958471627 134.54707021079957,66.33331734570675 131.8895826151129,66.77773956024612 128.23287968337536,66.00000000001455" stroke="#4dd2ff" stroke-linecap="round" stroke-linejoin="round" stroke-width="0.5"><title>2020-08-10 3.0km</title></polyline><polyline fill="none" points="165.2303678864846,83.70039869163884 167.06735454604495,95.7429138791922 168.4122912074672,96.85714285713038 172.315887859324,95.82862395138363 174.38249785115477,94.28583880187944 177.6628311718814,94.92866693792166 179.46701449819375,93.42873241973575 180.51672116084956,91.41452252099407 180.51672116084956,86.74321631350904 182.15688782103825,83.01468893495621 181.8616578221554,81.4718360962288 180.7791478264844,80.6575493675191 177.89245450426824,81.17183598663541 172.57831452484243,80.01468982017832 170.28208120027557,72.85742461436894 168.44509454083163,70.92879021650879 166.37848454876803,66.64289039795403 164.24626789032482,66.12857819275814 163.6230045594275,67.50007539364742 163.72141455905512,69.68588574466412 166.05045121687,71.70024550409289 166.6737145476509,73.28600830637151 165.06635122047737,76.54322381189559 164.80392455484252,78.98611160097062 166.93614121328574,95.01437724925927 167.82183120993432,96.55715855045128 168.7403245397145,96.85714285713038 171.8894445274491,95.91433399863308 173.92325118614826,94.37154930175166 176.0882711778395,95.14294266884099 178.48291450215038,94.84295660152566 180.54952449409757,91.2430997605843 180.41831116122194,87.04321070027072 182.18969115440268,82.15754947520327 180.91036115936004,80.6575493675191 176.67873117572162,81.21469316395815 172.54551119159441,80.05754716726369 170.4789011995308,72.7717078004498 168.44509454083163,70.88593152965768 167.06735454604495,67.75723040176672 165.09915455360897,66.25715632899664 164.50869455595966,65.9999999999709 163.75421789218672,66.72860901072272 163.52459455979988,68.6572711468034 164.31187455670442,70.54306180862477 166.2800745491404,71.87167973557371 166.57530454802327,73.32886664103717" stroke="#4dd2ff" stroke-linecap="round" stroke-linejoin="round" stroke-width="0.5"><title>2020-08-09 4.1km</title></polyline><polyline fill="none" points="20.56391373311635,125.81400065196794 21.18891335709486,130.19742193698767 21.748123546829447,130.75608856391045 25.925752611947246,129.98254987373366 28.820487712160684,128.43546636449173 31.715222812490538,129.12306004413404 32.47180130472407,128.73628879795433 34.609957912703976,125.68507550336653 34.70864206389524,121.47348944167607 36.48495678452309,116.53124489000766 35.23495753668249,115.07004357030382 32.24153828516137,115.54278597148368 26.188910348457284,114.29646344954381 24.57706921303179,106.90437257607118 22.70207034132909,104.97036451852182 20.85996618657373,101.0163527407567 18.623125427169725,100.5006081382744 17.833652218221687,101.5750750352745 17.767862784094177,103.6380404267693 20.432334864977747,106.21672672996647 20.761282035382465,107.33415040996624 19.248125051148236,111.33105405714014 19.149440900189802,116.7891031896288 21.024439771892503,126.67350019226433 21.024439771892503,129.72470318962587 21.84680769802071,131.01393433997873 26.517857518862,129.85362656009966 28.228382805362344,128.177618318412 32.4389065875439,129.25198367942357 34.51127376162913,125.47020012961002 34.609957912703976,121.08670809341129 36.51785150158685,116.18743347068084 35.62969414121471,114.81218375702156 31.781012246618047,115.62873905338347 26.22180506528821,114.51134702132549 24.675753364223056,106.81841693358729 22.471807321882807,104.66951767279534 20.827071469509974,100.7584805531369 19.609966938733123,100.28571428571013 18.031020520371385,100.84443797412678 17.800757501041517,103.16527880801004 20.827071469509974,107.0762837853108 19.116546183009632,112.27655016750214 19.741545806988142,120.82885357749183 21.25470279122237,129.89660100426408 22.70207034132909,131.14285714286962 26.715225821128115,129.72470318962587 28.129698654287495,128.43546636449173 32.109959417022765,129.25198367942357 33.12969564564992,127.87679531108006" stroke="#4dd2ff" stroke-linecap="round" stroke-linejoin="round" stroke-width="0.5"><title>2020-07-19 4.9km</title></polyline><polyline fill="none" points="55.92032112565357,126.32182011006807 61.06906637141947,130.15514429166797 62.94133736996446,131.14285714285506 63.71544941747561,129.30852843265166 63.751454628887586,127.52121360303136 62.077212293748744,114.39794966868067 62.707303495146334,114.53906574792927 62.92333476420026,116.51467781265092 63.48141554254107,117.07913393025228 66.84790281881578,115.87966230447637 68.77418163453694,116.11485352681484 69.96235361439176,114.23331408586819 70.4484239697922,111.22280503986985 71.22253601718694,109.1295271419367 70.86248390213586,108.37688121583778 69.09822853817604,108.70616424341279 66.03778555989265,108.16519891236385 64.84961358003784,103.93149413101492 63.89547547500115,102.94361359010509 62.72530610091053,100.59149255567172 62.02320447645616,100.35627855367784 61.48312630376313,100.68557805987075 61.14107679447625,102.19093861478905 62.61729046632536,103.86093143712787 61.80717320740223,106.77749688789481 61.825175813166425,109.36472826899262 63.24738166783936,116.9145011012879 65.5337125986116,116.74986810323026 66.7938950015232,115.92670057655778 67.74803310655989,116.35004440396733 68.68416860583238,116.18541082616139 70.1063744603889,114.30387221350975 70.25039530638605,111.85783899742819 71.18653080565855,109.59992905100808 70.55643960426096,108.47096214992052 68.88219726912212,108.70616424341279 66.199809011654,107.88295540610852 64.9576292145066,104.14318202610593 63.89547547500115,102.92009255058656 62.743308706674725,100.59149255567172 61.95119405339938,100.28571428571013 61.267095034825616,100.66205668901966" stroke="#4dd2ff" stroke-linecap="round" stroke-linejoin="round" stroke-width="0.5"><title>2020-07-11 4.9km</title></polyline><polyline fill="none" points="96.3704785972368,121.74085547216237 103.52117748034652,127.90783217137505 107.8549343792838,130.98110769767663 108.52047561726067,131.14285714285506 108.56690872693434,129.7881996769138 105.99760999402497,107.80853805785591 104.85225995641667,101.33731649638503 102.31391662993701,101.1553089957888 99.93035033560591,100.60928505154152 98.53735704667633,100.81151639427117 94.96200760506326,100.28571428571013 91.43309127306566,112.76286166142381" stroke="#4dd2ff" stroke-linecap="round" stroke-linejoin="round" stroke-width="0.5"><title>2020-07-06 3.8km</title></polyline><polyline fill="none" points="131.1477353940718,117.95880138193024 142.392182223266,127.46367779772845 147.49165621213615,131.1149848398345 148.32378795102704,131.14285714285506 144.82456730585545,102.3764649102086 133.40942678658757,101.28927745729743 130.6783277464565,100.50872878204973 129.93154285277706,100.75961977741099 125.92024113750085,100.28571428571013 124.53335490624886,105.4707336051506" stroke="#4dd2ff" stroke-linecap="round" stroke-linejoin="round" stroke-width="0.5"><title>2020-06-13 3.0km</title></polyline><polyline fill="none" points="157.953667953494,124.41099610409583 158.69498069491237,124.4917044264148 157.42857142852154,126.34798930180841 157.6447876446182,127.43754198006354 188.28571428568102,114.08013529196614 186.9575289573986,103.9910294485162" stroke="#4dd2ff" stroke-linecap="round" stroke-linejoin="round" stroke-width="0.5"><title>2020-06-07 1.3km</title></polyline><polyline fill="none" points="33.620823592937086,163.82843488402432 35.81940614571795,165.4285714285652 36.369051783927716,165.2234267409076 33.11829043796752,138.24427801386628 32.44301151105901,134.69454240618506 32.176040772523265,134.5714285714348 32.097519967122935,136.5001995274215 33.039769632567186,139.18812318028358 35.99215191771509,165.12085428426508 35.42680211842526,165.0798252805107 30.181612314016093,161.20253010802844 17.916662501811516,150.47273492239765 18.34067485120613,147.9901984828757" stroke="#4dd2ff" stroke-linecap="round" stroke-linejoin="round" stroke-width="0.5"><title>2019-10-02 4.9km</title></polyline><polyline fill="none" points="54.75051693251589,149.57258127254318 54.781012737657875,151.00686761368706 56.88522329292027,152.8196245054569 57.174933441739995,152.60050133212644 58.16604710899992,153.81563447263034 60.65145522856619,155.50883464736398 64.00599379482446,159.4329938715964 65.56127985729836,160.34927867676015 71.93490313313669,165.4285714285652 72.39234021038283,165.36881614776212 70.15089853195241,144.41300927268458 69.1140411569504,137.69929573898844 68.45838134625228,135.74687755288323 67.37578026356641,135.7269547735632 66.67437674518442,135.22888434091874 64.85987633891637,134.65112034945923 61.44434616237413,135.0495785377716 59.53835834068013,134.57142857142026 58.83695482223993,134.71088915226574 58.19654291420011,136.30471418591333 56.534521533641964,143.07826180991833 57.861089057521895,143.43685196978913 58.379517745052,143.13802690232114 59.462118827796075,143.67591155011905" stroke="#4dd2ff" stroke-linecap="round" stroke-linejoin="round" stroke-width="0.5"><title>2019-08-17 4.3km</title></polyline><polyline fill="none" points="92.38318713597255,148.27111773806973 91.89619810180739,148.9471187856252 92.15491102624219,149.20558888310916 90.95265684789047,150.04064275148266 91.60704836272635,150.3786392827169 91.63748517737258,151.19380391872255 102.45777278236346,160.65730758282007 108.84950385702541,165.4285714285652 109.04734315216774,164.77253261077567 106.23193779779831,139.68163426974206 105.65363831969444,137.0768453336641 104.96880999032874,135.88379551112303 100.89027682831511,135.1679605745303 96.75087003706722,135.06853875642992 96.08126011496643,134.57142857142026 95.59427108074306,134.8100416878733 92.18534784088843,146.8992228916468 92.38318713597255,147.39628784650995 93.3419467972708,148.07229325870867 93.9354646828142,147.93311594957777" stroke="#4dd2ff" stroke-linecap="round" stroke-linejoin="round" stroke-width="0.5"><title>2019-06-25 4.5km</title></polyline><polyline fill="none" points="125.3666373443557,134.5714285714348 124.80687682447024,135.40734085050644 125.31332681863569,136.66120374714956 147.0906765697291,144.91563575956388 142.71921346196905,161.73707038229622 143.1723529304145,162.6773638352024 147.83702392980922,163.89625721045013 148.05026603257284,165.32409577340877 147.30391867260914,165.4285714285652" stroke="#4dd2ff" stroke-linecap="round" stroke-linejoin="round" stroke-width="0.5"><title>2019-04-02 1.6km</title></polyline><polyline fill="none" points="166.1901349374093,149.49307512748055 161.4840116999112,153.2596696068067 162.0442644660361,157.46085461694747 171.79266260098666,165.1388373700902 184.2302740146406,158.04032704373822 177.95544303115457,138.04833673266694 174.25777477305382,134.57142857136205 163.94912387197837,136.59962644905318 161.59606225276366,154.12888172792736 171.12035928107798,164.70423612638842 182.77361682243645,159.63387450855225 183.33386958856136,154.27375034266151 178.7397969039157,145.8713364575524 178.7397969039157,140.65601002122276 172.91316813370213,135.15091409359593 163.61297221202403,138.04833673266694 162.0442644660361,141.52523295849096 163.72502276534215,158.04032704373822 172.128814260941,164.993970309617 182.8856673752889,158.7646671112161 182.66156626865268,152.82506326655857 177.84339247783646,148.768728429568 178.7397969039157,140.65601002122276 176.49878583848476,137.03423975175247 171.3444603877142,135.15091409359593 167.19858991727233,135.4406567304395 162.94066889258102,139.49704494397156 162.7165677859448,157.17111827922054 171.90471315430477,164.55936900374945 174.48187587969005,164.41450186062139 183.33386958856136,156.15704044420272 182.8856673752889,152.68019444472156 178.1795441377908,147.75464218226261 178.7397969039157,141.2354920626385 176.83493749797344,136.30988414387684 165.06962940422818,134.71629998239223 162.0442644660361,140.36626887624152 163.94912387197837,147.03029424103443 162.82861833879724,157.02625007892493 168.31909544952214,159.7787423353875 171.79266260098666,165.42857142852154 183.4459201414138,158.3300631333841 183.33386958856136,153.83914443734102" stroke="#4dd2ff" stroke-linecap="round" stroke-linejoin="round" stroke-width="0.5"><title>2018-05-25 2.9km</title></polyline><polyline fill="none" points="20.13601200422272,199.71428571428987 20.47697770432569,192.35293363238452 22.829641035641544,178.86401193018537 22.7955444654217,174.5879886878829 24.193503836286254,174.2353243290563 27.534967697924003,171.76666251875577 28.01231967844069,172.60424642075668 27.94412653823383,175.73414506719564 30.842334989691153,178.33502257967484 33.63825373130385,176.21905609834357 34.1497022814583,175.2051503447874 32.751742910942994,172.91282938979566 32.27439093054272,169.9592368695594 30.910528129781596,168.90122669312404 29.376182478968985,168.8571428571595 27.773643688182347,169.91515318467282 27.807740258285776,175.51373070979025 29.307989338994958,176.26313888159348 30.63775556976907,178.02644503916963 31.456073250155896,177.9382799708983 33.94512286153622,175.91047643954516 34.04741257149726,174.63207170448732 32.54716349078808,173.3977448596561 32.64945320086554,170.44415698642842 31.387880110181868,168.9453105230932 28.285092238453217,169.69473466597265 26.273394607473165,172.5601631141617" stroke="#4dd2ff" stroke-linecap="round" stroke-linejoin="round" stroke-width="0.5"><title>2018-05-14 2.1km</title></polyline><polyline fill="none" points="69.74279104918242,191.53252163494471 65.68995598889887,170.02598414558452 61.82134070340544,169.55844772572163 57.95272541977465,176.337713333196 57.95272541977465,195.5065262070857 65.1372966626659,199.2467573895119 69.00591194815934,192.9351125358371 68.26903284527361,173.7662709139986 64.76885711215436,168.8571428572759 59.79492317419499,169.09091117884964 57.95272541977465,194.33770228922367 65.1372966626659,199.2467573895119 69.19013172201812,187.32474204851314 66.79527464229614,171.66236061032396 57.95272541977465,173.29873551346827 58.50538474600762,195.97405555122532 63.29509890824556,199.71428571431898 68.82169217150658,192.9351125358371 68.0848130704835,175.16887634806335 64.58463733643293,169.55844772572163 57.76850564405322,173.0649677659385 58.68960452079773,196.20782017486636 65.50573621410877,198.54546466458123 68.63747239671648,188.72733639157377 68.45325262099504,178.20785085239913 64.2161977859214,169.7922159511363 57.40006609354168,175.87017863453366 57.58428586833179,196.20782017486636" stroke="#4dd2ff" stroke-linecap="round" stroke-linejoin="round" stroke-width="0.5"><title>2018-03-19 1.6km</title></polyline><polyline fill="none" points="105.45696726441383,186.83696035004687 105.26549472846091,175.90330916584935 101.24457148183137,169.3430862558307 94.16008766461164,172.98765752080362 94.73450527060777,195.3408648938639 101.81898908875883,199.71428571431898 106.03138487134129,190.96743333968334 106.03138487134129,177.11816260998603 102.77635176572949,169.82902952178847 94.35156020056456,173.23062867391855 94.9259778065607,197.28460880590137 101.81898908875883,199.22835059801582 105.83991233538836,190.481495837681 103.54224190860987,171.28685852407943 97.22364823333919,169.10011457256041 94.73450527060777,197.52757664583623 100.28720880299807,198.98538298986387 105.64843980036676,193.39711886120494 103.54224190860987,170.80091565556359 93.96861512865871,175.17439670220483 94.16008766461164,193.15415045851842 100.86162640992552,199.47131817333866 105.83991233538836,193.88305556809064 104.88254965748638,173.47359979292378 95.11745034251362,172.74468633474316 94.54303273558617,192.42524504987523 99.13837359007448,199.22835059801582 105.26549472846091,191.45337070908863 104.30813205055892,171.28685852407943 95.50039541441947,168.8571428571595" stroke="#4dd2ff" stroke-linecap="round" stroke-linejoin="round" stroke-width="0.5"><title>2017-09-18 1.7km</title></polyline><polyline fill="none" points="126.34892209200189,183.38707581267226 126.34892209200189,191.7753989318153 132.8369722403586,197.01806676306296 140.59946080949157,198.36617710627615 148.36194937862456,190.42728010436986 143.95934392139316,185.78374641691335 142.10561530804262,172.30240292451344 139.6725965021178,169.60611340100877 132.02596597140655,169.45631933503319 125.88548993924633,173.9501319938572 125.65377386193722,189.5285332557978 127.15992836095393,192.52435308590066 139.09330631047487,199.71428571431898 147.6668011485599,191.92518980498426 141.64218315435573,172.15260924433824 139.3250223873183,169.75590744556393 130.5198114728555,169.45631933503319 124.72690955502912,174.09992541722022 125.65377386193722,190.42728010436986 139.09330631047487,198.2163871540688 147.78265918698162,190.5770711710211 142.45318942284212,182.93769946391694 141.17875100066885,170.95425903028809 132.14182400982827,169.00693700811826 126.46478013088927,172.15260924433824 124.49519347865134,175.74765165848657 127.04407032206655,191.92518980498426 132.02596597140655,195.52016434643883 140.36774473264813,197.61722712998744 145.58135645836592,194.7712123345118 148.01437526429072,190.27748901664745 142.56904746126384,182.03894618770573 141.7580411923118,172.00281554239336 136.4285714291036,168.8571428571595 130.98324362607673,169.30652524728794 125.190341708716,176.0472379687708 125.76963190035895,190.42728010436986 134.22726870002225,198.06659717997536 140.2518866942264,198.36617710627615 147.55094311013818,191.92518980498426 142.33733138488606,182.78790730505716 141.64218315435573,172.45219658350106" stroke="#4dd2ff" stroke-linecap="round" stroke-linejoin="round" stroke-width="0.5"><title>2017-07-30 2.9km</title></polyline><polyline fill="none" points="162.89389948407188,180.64701072103344 163.11905752727762,192.0000877167331 171.67506313463673,199.71428571431898 175.61532887537032,199.56873534992337 182.48264916613698,194.0378060786752 183.38328133523464,189.96236527489964 178.20464636245742,184.28583124221768 179.3304365738295,177.00817718845792 175.9530659392476,170.31268949061632 167.62221837276593,169.87602571886964 162.55616242066026,173.9515469650505 162.3310043788515,187.34243042522576 167.847376415506,195.78441856976133 174.15180160058662,198.69543272641022 181.13170091202483,194.1833572339965 182.8203862295486,189.52570993511472 179.780752658844,186.17801277141552 178.65496244700626,175.11597860895563 171.90022117691115,168.8571428571595" stroke="#4dd2ff" stroke-linecap="round" stroke-linejoin="round" stroke-width="0.5"><title>2017-07-29 1.1km</title></polyline><polyline fill="none" points="17.107968269381672,222.91959224949824 25.895276363939047,233.57922730897553 30.017717198934406,234.0 37.50320187211037,227.26761527883355 33.055305182002485,217.02869158500107 32.94681989680976,208.0520130005898 30.451658339239657,204.40521385363536 27.631040926091373,203.70390477066394 21.664350244682282,204.82599906262476 19.27767397183925,207.35070652590366 17.541909409686923,211.69879858597415 18.952218116726726,218.2910304206307 17.758879979606718,224.32218243018724 28.932864347472787,231.05458737135632 36.30986373545602,227.5481322319829 38.04562829807401,224.60270022513578 34.031672748271376,219.55336763180094 30.77711419435218,205.10652243514778 26.22073221951723,203.1428571428405 17.32493883976713,205.66756893927231 16.023115417920053,212.54036256455583 18.30130640603602,226.28580531239277 28.715893777552992,233.7194848926738 38.2625988679938,227.40787376550725 37.72017244249582,223.05985135771334 32.512878756504506,216.74817162333056 33.16379046719521,208.3325354505214 29.909231913741678,204.12469028058695 22.857688380870968,203.70390477066394 19.16918868664652,207.2104451705236 19.16918868664652,226.7065811327775 27.84801149647683,233.85974245605757 34.140158033464104,232.03639256372117 38.2625988679938,225.44425312953535 32.83833461115137,218.57154994131997 30.885599479544908,207.49096786096925 26.32921750470996,204.96626075886888 21.338894389104098,205.38704572722781 17.975850550457835,209.87540748849278 18.518276975955814,213.24166532809613" stroke="#4dd2ff" stroke-linecap="round" stroke-linejoin="round" stroke-width="0.5"><title>2017-07-19 2.5km</title></polyline><polyline fill="none" points="53.58976560365409,215.83189003833104 53.03213080018759,222.32053832500242 63.850245972163975,234.0 73.33003761805594,227.65561785257887 74.44530722359195,224.0508374813944 69.42659399984404,217.7063927220879 69.09201311785728,207.4686817546608 65.18856949917972,203.86382920038886 60.28138323593885,203.71963483002037 54.14740040618926,208.04545696720015 52.69754991913214,223.76245449495036 60.95054499898106,232.84647894301452 65.07704253913835,233.85580994037446 73.44156457856297,227.22304488834925 74.33378026261926,223.61826297058724 69.09201311785728,215.68769737996627 69.87270184140652,210.64094134012703 68.0882704728283,205.88254821905866 64.63093469664454,203.14285714295693 57.82779010338709,204.87318921496626 52.58602295862511,210.35255451709963 54.593508248683065,226.35789840389043 64.0732998936437,233.27904949418735 71.88018713099882,229.09752639185172 74.33378026261926,223.32987986062653 69.98422880191356,217.41800792096183 70.20728272339329,210.4967479389161 68.199797433801,206.315130339819 60.95054499898106,204.58480074221734 55.70877785375342,206.17093631997705 53.25518472166732,210.64094134012703 53.25518472166732,224.77179458679166 63.181084209587425,233.13485933106858 72.7724028150551,228.37657237995882 74.55683418409899,225.06017728487495 69.64964792039245,215.3993120015366 67.86521655181423,205.44996591238305 62.734976367559284,203.28705159504898 57.939317064359784,204.00802355003543 52.920603840611875,209.0548127949005 54.816562169697136,218.5715466311667 56.935574419330806,219.00412330729887 58.385424906853586,215.25511928088963 60.95054499898106,215.11092653975356" stroke="#4dd2ff" stroke-linecap="round" stroke-linejoin="round" stroke-width="0.5"><title>2017-07-10 2.6km</title></polyline><polyline fill="none" points="104.176587741822,231.40896339830942 103.61970937531441,205.96948857977986 98.60780408605933,203.1428571428405 93.5958987949416,212.80049545771908 93.5958987949416,229.28902147104964 100.09281306061894,232.35115897562355 105.8472228385508,227.40462646191008 104.73346610646695,206.2050409904914 94.70965552609414,208.32501124381088 93.7815249171108,212.3293924026657 93.7815249171108,230.93786541721784 101.76344815734774,233.05780532106292 105.66159671638161,226.22687853884418 106.40410120412707,211.38718590617646 102.69157876633108,204.0850681362208 95.63778613507748,205.96948857977986 94.33840328268707,228.58237358357292 98.9790563294664,232.35115897562355 105.8472228385508,223.40028024534695 105.8472228385508,207.6183547816472 100.46406530402601,203.37840993970167 95.63778613507748,207.8539069677936 96.00903837941587,229.28902147104964 103.43408325500786,231.17341442371253 106.03284896072,210.91608246508986 97.49404735397547,204.32062080386095 95.82341225724667,207.6183547816472 98.79343020636588,232.11561012931634 105.66159671638161,225.75577914365567 105.8472228385508,209.73832330096047 104.91909222956747,206.2050409904914 96.00903837941587,206.67614571610466 95.45216001290828,229.9956690686522 99.1646824516356,232.82225657103118 105.47597059514374,225.52022939862218 105.29034447204322,209.50277137116063 103.80533549748361,206.2050409904914 95.45216001290828,206.91169803088997 94.33840328268707,229.52457070245873 98.23655184172094,234.0 104.176587741822,229.28902147104964 105.8472228385508,218.21817136369646" stroke="#4dd2ff" stroke-linecap="round" stroke-linejoin="round" stroke-width="0.5"><title>2017-06-14 2.3km</title></polyline><polyline fill="none" points="130.34931800793856,205.63135574490298 129.95710811112076,229.52076969400514 135.64415163267404,234.0 142.90003474522382,228.02769048302434 142.11561494879425,208.11985095357522 138.38962091878057,204.38710686785635 129.95710811112076,206.1290550576523 130.34931800793856,231.51154007588048 140.74288030620664,231.26269389665686 142.90003474522382,209.86179558117874 140.3506704075262,204.88480652018916 133.29089224431664,203.1428571428405 130.15321305952966,209.36409728578292 130.34931800793856,228.77423024130985 137.21299122367054,234.0 141.91951000038534,227.2811504198471 141.91951000038534,208.8663988551125 137.8013060707599,203.39170715515502 130.5454229582101,207.62215218308847 131.5259477030486,226.78345687361434" stroke="#4dd2ff" stroke-linecap="round" stroke-linejoin="round" stroke-width="0.5"><title>2017-05-13 1.1km</title></polyline><polyline fill="none" points="173.09096039179713,234.0 177.7673110878095,225.0989684528904 176.83204094972461,208.08795624924824 173.71447381842881,205.31870282627642 167.79109626915306,209.27477752661798 166.85582613013685,213.230841439683 168.72636640816927,231.23079603759106 176.052649166435,230.63739450031426 177.7673110878095,210.8572043859167 172.9350820351392,204.9230947631877 169.19400147814304,206.7033301986521 168.25873133912683,229.45059069851413 173.71447381842881,231.82419733109418 176.6761625930667,228.06598503608257 176.83204094972461,208.87917054269928 171.22042011283338,205.12089880811982 168.25873133912683,228.4615867889952 172.15569025278091,232.02199770859443 177.7673110878095,226.68137805222068 178.07906780205667,212.43962952005677 172.7792036794126,203.1428571428405 168.8822447648272,211.05500762246083 169.66163654718548,229.2527899708366 177.14379766304046,226.68137805222068 175.58501409646124,207.89015260874294 168.57048805151135,208.48356344958302 168.72636640816927,228.65938762493897 174.02623053174466,231.42859649623279 176.98791930545121,226.28577581455465 176.052649166435,207.6923489413457 171.06454175710678,205.12089880811982 167.63521791249514,210.2637945166789 166.85582613013685,226.28577581455465 169.8175149038434,229.84619207389187 176.98791930545121,226.87917913112324 178.85845958441496,211.05500762246083 173.24683874845505,205.31870282627642 168.72636640816927,207.29674152459484 167.79109626915306,229.05498921580147 176.20852752309293,229.2527899708366 176.36440587975085,210.8572043859167 172.62332532182336,206.30772251309827 168.10285298153758,207.49454524659086 167.79109626915306,225.29676974692848 170.90866340044886,230.43959393387195 177.14379766304046,226.48357694677543 177.45555437542498,208.28575986309443 174.02623053174466,205.12089880811982 168.41460969485343,208.6813670095289 167.4793395558372,227.07698018255178 178.07906780205667,231.62639692728408" stroke="#4dd2ff" stroke-linecap="round" stroke-linejoin="round" stroke-width="0.5"><title>2017-05-12 3.1km</title></polyline><polyline fill="none" points="42.44985221273964,237.54022135742707 40.93674695293885,237.4955613950733 40.637644750473555,237.89750061811355 37.27714353398187,237.47323140926892 35.55290730763227,237.80818087606167 26.527058490610216,237.4285714285652 20.984870620595757,237.69653112988453 19.70049057446886,237.45090142042318 17.993848595418967,238.12079976001405 17.64196365128737,246.47196896909736 18.609647247591056,251.9424237635394 19.559736596769653,261.3199210655439 20.26350648503285,264.2223709178361 20.298694979515858,265.8521855876461 20.72095691243885,266.54429375976906 20.685768418072257,267.9731529907731 15.917727425054181,268.2857142857101 11.83586207299959,267.8838496541721 12.08218153391499,260.6277908117481" stroke="#4dd2ff" stroke-linecap="round" stroke-linejoin="round" stroke-width="0.5"><title>2017-05-01 3.6km</title></polyline></svg>