<?xml version="1.0" encoding="utf-8" ?>
<svg baseProfile="full" height="300mm" version="1.1" viewBox="0,0,200,300" width="200mm" xmlns="http://www.w3.org/2000/svg" xmlns:ev="http://www.w3.org/2001/xml-events" xmlns:xlink="http://www.w3.org/1999/xlink"><defs /><rect fill="#222222" height="300" width="200" x="0" y="0" /><text fill="#FFFFFF" style="font-size:12px; font-family:Arial; font-weight:bold;" x="10" y="20">Over 1km Runs</text><text fill="#FFFFFF" style="font-size:4px; font-family:Arial" x="10" y="280">ATHLETE</text><text fill="#FFFFFF" style="font-size:9px; font-family:Arial" x="10" y="290">ahianzhang</text><text fill="#FFFFFF" style="font-size:4px; font-family:Arial" x="120" y="280">STATISTICS</text><text fill="#FFFFFF" style="font-size:3px; font-family:Arial" x="120" y="285">Number: 30</text><text fill="#FFFFFF" style="font-size:3px; font-family:Arial" x="120" y="290">Weekly: 1.2</text><text fill="#FFFFFF" style="font-size:3px; font-family:Arial" x="141" y="285">Total: 87.2 km</text><text fill="#FFFFFF" style="font-size:3px; font-family:Arial" x="141" y="290">Avg: 2.9 km</text><text fill="#FFFFFF" style="font-size:3px; font-family:Arial" x="167" y="285">Min: 1.1 km</text><text fill="#FFFFFF" style="font-size:3px; font-family:Arial" x="167" y="290">Max: 5.0 km</text><polyline fill="none" points="19.79116249771323,51.21325793239521 21.66153053625021,62.84252642362844 23.22017056820914,64.20000000001164 25.61008528410457,63.06877243463532 27.34190754184965,62.97827405013959 29.385457806289196,61.21355024474906 33.645740560488775,62.16378739470383 35.966382385930046,58.317571348074125 35.89710949570872,53.973552012379514 37.871386869694106,48.950703375652665 37.38647663756274,47.50265974760987 36.5898383987369,47.09539625211619 33.09155743790325,47.86467129201628 27.134088871069252,46.642880626401166 27.064815980615094,43.973024917795556 25.229084387421608,38.45223301652004 23.08162478765007,36.14433169658878 21.315166084561497,32.20728369653807 19.098433594568633,31.800000000017462 18.19788602052722,32.750327788467985 18.19788602052722,35.465533903450705 21.21125674911309,38.54273859868408 19.514070936478674,43.203740169643424 19.514070936478674,48.27193377155345 22.319622994284146,63.8380076304602 27.1687253160635,62.97827405013959 29.177639135275967,61.21355024474906 31.636826741392724,62.20903670982807 33.85355923138559,61.84704200338456 36.035655276151374,58.091321851388784 35.93174594081938,53.52104647937813 37.83675042446703,49.31271322033717 37.83675042446703,48.00042551170918 36.797657069866545,47.0048931799538 33.57646767015103,47.81941987227765 27.134088871069252,46.50712580906111 27.099452425842173,44.01827690194477 25.298357277642936,38.54273859868408 23.566535019897856,37.09464609663701 21.315166084561497,32.252537407388445 18.786705588223413,32.071522524172906 18.128613130305894,33.157610229885904 18.33643180108629,35.78230639282265 20.72634651698172,37.63768158186576 21.315166084561497,39.22152961802203 19.860435388050973,42.027183313592104 19.410161601030268,44.60655209282413 21.52298475545831,62.299535319936695 22.700623890850693,64.06425291131018 25.61008528410457,62.88777563904296 25.713994619552977,61.530296286713565 24.086081697023474,58.00082200646284" stroke="#4dd2ff" stroke-linecap="round" stroke-linejoin="round" stroke-width="0.5"><title>2022-04-09 5.0km</title></polyline><polyline fill="none" points="80.20000000006985,47.532292648233124 76.9560196561506,47.142441069096094 74.52800982806366,45.73896828638681 73.63243243249599,46.128822951592156 72.79656019667163,47.9741234016401 69.33366093377117,49.87138412150671 68.09975429985207,50.13128126913216 66.98525798530318,47.246401574113406 65.21400491404347,45.349112764015445 64.13931203947868,45.167179893527646 59.959950860007666,46.466696301315096 58.18869778874796,46.050852087151725 55.76068796077743,45.01123728445964 51.70073710079305,41.658438013502746 52.357493857620284,42.43816443232936 50.40712530724704,44.0495881645038 49.65085995104164,45.37510315881809 49.611056511173956,46.64862783833814 50.98427518433891,48.57189266837668 53.11375921382569,49.16965991977486 53.77051597065292,49.87138412150671 53.073955773958005,50.93696000591444 53.05405405419879,51.92456120507268 51.4022113023093,53.01611402495473 48.476658476749435,53.19803884161229 48.337346437503584,53.925736241712 47.83980343991425,53.925736241712 47.800000000046566,54.341561986497254 50.44692874699831,54.21161654601747 67.44299754302483,51.43076129312976 68.17936117947102,50.18326065300789 69.21425061440095,50.053312164818635 71.14471744478215,48.83179172096425" stroke="#4dd2ff" stroke-linecap="round" stroke-linejoin="round" stroke-width="0.5"><title>2022-04-08 3.4km</title></polyline><polyline fill="none" points="116.20000000006985,44.528095457702875 115.62947173311841,46.72503080917522 115.56941612600349,51.82498970432789 114.39833178871777,46.56810745416442 85.96200185338967,44.01809002639493 83.80000000004657,51.51114888928714 85.93197405012324,51.98190997360507" stroke="#4dd2ff" stroke-linecap="round" stroke-linejoin="round" stroke-width="0.5"><title>2022-03-19 1.5km</title></polyline><polyline fill="none" points="127.79768795799464,50.81084591688705 129.7214711662382,62.646339287632145 130.35107294330373,63.83443347091088 131.54032074473798,64.15430420738994 135.492820790736,63.011907211330254 137.9762500228826,61.412544376944425 140.5296350081917,62.235074860509485 141.9287500687642,61.68672144622542 143.7475996473804,58.533670576813165 144.02742265944835,53.324212241976056 145.91622799099423,48.11466676215059 144.4821350540733,47.1093058482802 141.264170415001,48.02327044963022 135.3529092845274,46.92651260609273 133.18428094079718,38.24371000821702 131.2255198560888,36.461420579929836 128.9169800063828,31.79999999998836 126.81830741569865,31.891401074215537 126.08377200900577,34.267819587374106 126.46852865058463,35.73022196596139 129.406670277589,38.33510919113178 127.5178649459267,43.13352861898602 127.48288706946187,46.469529031193815 128.21742247615475,53.50700172892539 130.35107294330373,63.78873762465082 131.33045348559972,64.20000000001164 138.43096241750754,61.549632941692835 140.98434740293305,62.32646700239275 142.87315273447894,60.22444095436367 143.99244478275068,57.34555617134902" stroke="#4dd2ff" stroke-linecap="round" stroke-linejoin="round" stroke-width="0.5"><title>2021-08-09 3.0km</title></polyline><polyline fill="none" points="160.88676940638106,46.45420345279854 174.72371835645754,58.5551419165422 181.8720424817875,63.749618102039676 182.5845763979014,64.19999999999709 183.11323059361894,64.01984735979931 179.66548583866097,33.63183282033424 177.8726585659897,32.97117369368789 166.42614597943611,31.80000000000291" stroke="#4dd2ff" stroke-linecap="round" stroke-linejoin="round" stroke-width="0.5"><title>2021-05-14 2.7km</title></polyline><polyline fill="none" points="15.767294037272222,85.21623709627602 31.36668988794554,98.95863404552802 39.5378020000644,105.0 40.23270596272778,104.6869800589484 40.208743757219054,101.77587261413282 36.39875306561589,72.59999999999127" stroke="#4dd2ff" stroke-linecap="round" stroke-linejoin="round" stroke-width="0.5"><title>2021-02-21 2.3km</title></polyline><polyline fill="none" points="55.19343754427973,92.25210394302849 56.954750035423785,103.84948913595872 57.8001800312195,104.9539796463796 58.997872525127605,105.0 62.59095000720117,104.21765307171154 64.6340724970214,102.79101541367709 68.36805497820023,103.20520120859146 69.95323622017168,102.05468376091449 71.29183371330146,100.12180494779022 71.36228621320333,95.70375150174368 73.1940512037836,89.85893933637999 72.59520495682955,88.7543956664158 71.04524996469263,88.38621357872034 67.76920873101335,88.89246383801219 62.485271257697605,87.60382520701387 62.37959250819404,85.48676453289227 60.40692251827568,79.73381008414435 58.363800028455444,77.57067191114766 56.2854512889171,73.10627574266982 54.8059487962164,72.59999999997672" stroke="#4dd2ff" stroke-linecap="round" stroke-linejoin="round" stroke-width="0.5"><title>2020-09-13 1.7km</title></polyline><polyline fill="none" points="87.75589165138081,85.11151705562952 103.4488874017261,98.87619235902093 111.08331776678097,104.5334308189631 112.0208793906495,105.0 112.24410834861919,104.7375549704011 108.62779922829941,74.61239505806589 107.22145679278765,73.97076406392443 98.02442372136284,72.94998321296589 95.23406174581032,73.41662653823732 91.39452366752084,72.59999999999127" stroke="#4dd2ff" stroke-linecap="round" stroke-linejoin="round" stroke-width="0.5"><title>2020-08-10 3.0km</title></polyline><polyline fill="none" points="127.9918862808263,91.18541862623533 129.92072227341123,103.83005957317073 131.33290576795116,105.0 135.43168225232512,103.92005514897755 137.6016227438813,102.30013074199087 141.04597273049876,102.97510028484976 142.94036522321403,101.40016904074582 144.04255721892696,99.2852486470656 144.04255721892696,94.38037712921505 145.76473221217748,90.46542338174186 145.45474071335047,88.84542790107662 144.3181052178843,87.99042683592415 141.28707722958643,88.53042778599774 135.70723025116604,87.31542431120761 133.29618526040576,79.80029584511067 131.36734926793724,77.7752297273546 129.19740877626464,73.27503491786774 126.95858128496911,72.73500710242661 126.30415478744544,74.17507916336763 126.40748528705444,76.4701800319308 128.85297377768438,78.58525777934119 129.50740027509164,80.25030872170464 127.81966878159437,83.67038500250783 127.54412078275345,86.23541718104389 129.78294827404898,103.06509611173533 130.71292277052999,104.6850164780044 131.67734076676425,105.0 134.98391675390303,104.01005069859093 137.11941374558955,102.3901267668698 139.39268473687116,103.20008980229613 141.90706022735685,102.88510443162522 144.07700071891304,99.10525474863243 143.93922671931796,94.69537123528426 145.79917571216356,89.56542694897507 144.45587921747938,87.99042683592415 140.01266773452517,88.57542782218661 135.67278675129637,87.36042452565744 133.50284625962377,79.71029319049558 131.36734926793724,77.73022810617113 129.92072227341123,74.44509192189435 127.85411228146404,72.87001414547558 127.23412928381003,72.60000000000582 126.44192878692411,73.36503946129233 126.20082428783644,75.39013470418286 127.02746828459203,77.37021489907056 129.09407827665564,78.7652637223946 129.40406977548264,80.29530997312395" stroke="#4dd2ff" stroke-linecap="round" stroke-linejoin="round" stroke-width="0.5"><title>2020-08-09 4.1km</title></polyline><polyline fill="none" points="165.0921094197547,99.40470068456489 165.74835902487393,104.00729303382104 166.3355297242524,104.59389299209579 170.72204024263192,103.78167736739852 173.76151209778618,102.1572396827105 176.80098395317327,102.87921304631163 177.59539136989042,102.47310323786223 179.84045580832753,99.26932927852613 179.94407416705508,94.8471639137424 181.80920462368522,89.65780713449931 180.49670541356318,88.12354574879282 177.35361519944854,88.61992527006078 170.99835586582776,87.31128662201809 169.30592267366592,79.54959120485 167.33717385830823,77.51888274445082 165.40296449593734,73.36717037777998 163.05428169853985,72.8256385451532 162.22533482906874,73.95382878702367 162.15625592321157,76.11994244810194 164.95395160815679,78.82756306644296 165.2993461372098,80.00085793045582 163.71053130365908,84.19760675998987 163.60691294516437,89.92855834911461 165.57566176052205,100.30717520185863 165.57566176052205,103.51093834909261 166.43914808286354,104.8646310569602 171.34375039476436,103.64630788809154 173.13980194565374,101.88649923432968 177.56085191690363,103.01458286339766 179.7368374497164,99.04371013608761 179.84045580832753,94.44104349805275 181.843744076672,89.29680514420033 180.91117884824052,87.85279294484644 176.87006285891403,88.71017600604682 171.03289531858172,87.53691437238012 169.40954103239346,79.4593377802521 167.09539768798277,77.20299355642055 165.36842504306696,73.09640458077774 164.09046528569888,72.60000000000582 162.43257154640742,73.18665987282293 162.19079537608195,75.62354274839163 165.36842504306696,79.73009797456325 163.57237349217758,85.19037767586997 164.2286230972968,94.17029625634314 165.8174379307311,103.6914310544671 167.33717385830823,105.0 171.55098711221945,103.51093834909261 173.0361835869262,102.1572396827105 177.21545738785062,103.01458286339766 178.28618042788003,101.57063507664134" stroke="#4dd2ff" stroke-linecap="round" stroke-linejoin="round" stroke-width="0.5"><title>2020-07-19 4.9km</title></polyline><polyline fill="none" points="19.96633718186058,140.73791111558967 25.372519689961337,144.76290150625573 27.33840423845686,145.8000000000029 28.15122188825626,143.87395485429442 28.18902736029122,141.99727428318874 26.431072908337228,128.2178471521329 27.092668669763952,128.3660190353403 27.319501502322964,130.4404117032973 27.905486319679767,131.03309062677727 31.440297959721647,129.77364541971474 33.4628907161532,130.0205962031614 34.71047129505314,128.04497979016742 35.220845168223605,124.88394529187644 36.033662818023004,122.68600349905319 35.65560809720773,121.89572527664131 33.80313996504992,122.24147245558561 30.589674837770872,121.67345885798568 29.342094258987345,117.2280688375613 28.340249248663895,116.19079426961252 27.11157140589785,113.7210671834764 26.374364700284787,113.47409248138138 25.807282618945464,113.81985696287302 25.448130634147674,115.40048554554232 26.99815498967655,117.15397800899518 26.147531867725775,120.21637173229828 26.166434603743255,122.93296468246263 27.659750751103275,130.86022615636466 30.06039822846651,130.68736150840414 31.38358975155279,129.8230356053973 32.385434761759825,130.26754662417807 33.368377036065795,130.09468136748183 34.8616931833094,128.1190658241976 35.01291507168207,125.55073094730324 35.99585734587163,123.17992550355848 35.3342615844449,121.99451025742746 33.57630713249091,122.24147245558561 30.759799462161027,121.3771031764336 29.455510675208643,117.45034112741996 28.340249248663895,116.16609717812389 27.130474142031744,113.7210671834764 26.29875375609845,113.40000000000873 25.580449786502868,113.79515952349175" stroke="#4dd2ff" stroke-linecap="round" stroke-linejoin="round" stroke-width="0.5"><title>2020-07-11 4.9km</title></polyline><polyline fill="none" points="60.18900252704043,135.92789824576175 67.69723635434639,142.40322377994016 72.24768109823344,145.63016308254737 72.9464993980946,145.8000000000029 72.99525416322285,144.3776096607471 70.29749049368547,121.29896496074798 69.09487295418512,114.5041823211941 66.4296124613611,114.31307444557024 63.92686785233673,113.73974930412078 62.46422489895485,113.95209221397818 58.710107985301875,113.39999999999418 55.00474583671894,126.50100474448118" stroke="#4dd2ff" stroke-linecap="round" stroke-linejoin="round" stroke-width="0.5"><title>2020-07-06 3.8km</title></polyline><polyline fill="none" points="94.4551221637521,131.9567414510384 106.26179133437108,141.93686168761633 111.61623902269639,145.77073408184515 112.48997734847944,145.8000000000029 108.81579567107838,115.5952881557314 96.82989812584128,114.45374133017322 93.96224413381424,113.6341652211704 93.17811999528203,113.89760076630046 88.9662531943759,113.40000000000873 87.51002265152056,118.84427028542268" stroke="#4dd2ff" stroke-linecap="round" stroke-linejoin="round" stroke-width="0.5"><title>2020-06-13 3.0km</title></polyline><polyline fill="none" points="120.35135135124438,138.7315459093079 121.12972972972784,138.81628964774427 119.80000000004657,140.76538876691484 120.02702702686656,141.90941907907836 152.19999999995343,127.88414205657318 150.8054054052336,117.29058092093328" stroke="#4dd2ff" stroke-linecap="round" stroke-linejoin="round" stroke-width="0.5"><title>2020-06-07 1.3km</title></polyline><polyline fill="none" points="178.8018647725694,144.11985662822553 181.11037645296892,145.8000000000029 181.68750437308336,145.5845980779559 178.27420495986007,117.25649191456614 177.5651620865683,113.52926952649432 177.28484281111741,113.39999999999418 177.2023959654034,115.42520950379549 178.19175811414607,118.24752933929267 181.29175951355137,145.4768969984725 180.6981422242825,145.43381654452241 175.19069292966742,141.3626566134335 162.31249562691664,130.09637166850735 162.75770859373733,127.48970840702532" stroke="#4dd2ff" stroke-linecap="round" stroke-linejoin="round" stroke-width="0.5"><title>2019-10-02 4.9km</title></polyline><polyline fill="none" points="18.73804277909221,169.9512103361776 18.77006337448256,171.45721099436923 20.979484457464423,173.36060573073337 21.28368011378916,173.13052639874513 22.324349464441184,174.40641619625967 24.93402798991883,176.18427637974673 28.456293484487105,180.30464356517768 30.089343850093428,181.26674261060543 36.781648289761506,186.60000000000582 37.26195722084958,186.5372569551546 34.90844345849473,164.53365973632026 33.81974321475718,157.48426052594732 33.13130041351542,155.43422143053613 31.994569276692346,155.41330251225736 31.258095582423266,154.89032855797268 29.35287015576614,154.28367636694747 25.766563470417168,154.70205746465945 23.7652762576472,154.1999999999971 23.028802563319914,154.34643360988412 22.356370059831534,156.01994989521336 20.61124761024257,163.13217490042734 22.004143510363065,163.50869456828514 22.54849363223184,163.19492824745248 23.68522476911312,163.759707127625" stroke="#4dd2ff" stroke-linecap="round" stroke-linejoin="round" stroke-width="0.5"><title>2019-08-17 4.3km</title></polyline><polyline fill="none" points="56.0023464927217,168.5846736249805 55.49100800685119,169.29447472491302 55.76265657751355,169.56586832729226 54.50028969027335,170.44267488906917 55.187400780792814,170.79757124687603 55.219359436188824,171.65349411468196 66.58066142140888,181.59017296198 73.2919790497981,186.60000000000582 73.49971030972665,185.91115924132464 70.54353468766203,159.56571598323353 69.93632023560349,156.83068760036258 69.21725048974622,155.57798528668354 64.93479066964937,154.82635860328446 60.58841353881871,154.7219656942616 59.885323120630346,154.20000000001164 59.373984634759836,154.4505437722837 55.794615232851356,167.14418403623858 56.0023464927217,167.666102238858 57.00904413708486,168.37590792166884 57.63223791687051,168.22977174706466" stroke="#4dd2ff" stroke-linecap="round" stroke-linejoin="round" stroke-width="0.5"><title>2019-06-25 4.5km</title></polyline><polyline fill="none" points="88.38496921141632,154.20000000001164 87.79722066572867,155.0777078930405 88.32899315957911,156.39426393451868 111.19521039817482,165.06141754754935 106.60517413495108,182.72392390143068 107.0809705768479,183.71123202698072 111.97887512622401,184.99107007098792 112.20277933415491,186.4903005620872 111.41911460622214,186.60000000000582" stroke="#4dd2ff" stroke-linecap="round" stroke-linejoin="round" stroke-width="0.5"><title>2019-04-02 1.6km</title></polyline><polyline fill="none" points="128.9996416848153,169.8677288837498 124.05821228493005,173.82265308708884 124.6464776895009,178.23389734781813 134.88229573098943,186.2957792385714 147.9417877155356,178.84234339592513 141.3532151831314,157.850753569277 137.4706635121256,154.19999999995343 126.64658006560057,156.32960777136032 124.17586536565796,174.7353258143412 134.176377245225,185.8394479326671 146.41229766374454,180.51556823391002 147.00056306784973,174.88743785978295 142.17678674915805,166.06490328034852 142.17678674915805,160.58881052222569 136.05882654059678,154.80845979822334 126.2936208229512,157.850753569277 124.6464776895009,161.50149460637476 126.4112739036791,178.84234339592513 135.23525497410446,186.14366882503964 146.52995074447244,179.60290046664886 146.2946445820853,173.366316429805 141.23556210193783,169.10716485104058 142.17678674915805,160.58881052222569 139.82372513087466,156.78595173929352 134.41168340761214,154.80845979822334 130.05851941322908,155.11268956703134 125.58770233718678,159.3718971911585 125.35239617573097,177.92967419314664 134.99994881171733,185.68733745394275 137.70596967404708,185.53522695356514 147.00056306784973,176.864892466343 146.52995074447244,173.21420416689944 141.5885213445872,168.0423742912244 142.17678674915805,161.19726666563656 140.17668437305838,156.0253783510998 127.82311087474227,154.35211498150602 124.6464776895009,160.28458232001867 126.64658006560057,167.28180895303376 125.47004925599322,177.77756258286536 131.23505022237077,180.6676794521045 134.88229573098943,186.59999999997672 147.1182161490433,179.14656629005913 147.00056306784973,174.43110165919643" stroke="#4dd2ff" stroke-linecap="round" stroke-linejoin="round" stroke-width="0.5"><title>2018-05-25 2.9km</title></polyline><polyline fill="none" points="164.64281260431744,186.60000000000582 165.0008265892975,178.8705803139892 167.4711230872199,164.70721252667136 167.43532168865204,160.21738812225522 168.90317902783863,159.84709054551786 172.411716082599,157.25499564467464 172.91293566208333,158.13445874178433 172.84133286494762,161.4208523205598 175.88445173902437,164.15177370863967 178.8201664176304,161.9300089032331 179.35718739544973,160.86540786200203 177.88933005626313,158.4584708592738 177.38811047701165,155.35719871302717 175.95605453616008,154.24628802775987 174.34499160270207,154.20000000001164 172.66232587234117,155.31091084389482 172.69812727114186,161.18941724527394 174.2733888057992,161.97629582564696 175.6696433480829,163.8277672911354 176.52887691254728,163.73519396941992 179.14237900427543,161.6060002615268 179.24978319974616,160.26367528969422 177.67452166508883,158.96763210263452 177.7819258607924,155.86636483573238 176.45727411541156,154.29257604922168 173.1993468501605,155.07947139928 171.08706433768384,158.08817126986105" stroke="#4dd2ff" stroke-linecap="round" stroke-linejoin="round" stroke-width="0.5"><title>2018-05-14 2.1km</title></polyline><polyline fill="none" points="34.47993060108274,218.80914771661628 30.224453788250685,196.22728335286956 26.16240773908794,195.73637011204846 22.100361690856516,202.85459899983834 22.100361690856516,222.98185251746327 29.644161495380104,226.90909525891766 33.70620754547417,220.28186816256493 32.932484488002956,200.15458445961121 29.25729996804148,195.0 24.03466933220625,195.2454567378154 22.100361690856516,221.75458740373142 29.644161495380104,226.90909525891766 33.89963830821216,214.39097915089224 31.385038373991847,197.94547864084598 22.100361690856516,199.66367228911258 22.680653982795775,223.47275832877494 27.70985385403037,227.40000000002328 33.512776779942214,220.28186816256493 32.73905372340232,201.62732016539667 29.063869202509522,195.73637011204846 21.906930926255882,199.41821615421213 22.874084746465087,223.7182111836737 30.031023024581373,226.17273789772298 33.3193460162729,215.86370321107097 33.12591525260359,204.81824339495506 28.6770076751709,195.98182674869895 21.520069397985935,202.3636875662487 21.713500161655247,223.7182111836737" stroke="#4dd2ff" stroke-linecap="round" stroke-linejoin="round" stroke-width="0.5"><title>2018-03-19 1.6km</title></polyline><polyline fill="none" points="69.72981562837958,213.87880836753175 69.52876946609467,202.39847462414764 65.3068000562489,195.510240568663 57.86809204891324,199.3370403968729 58.47123053483665,222.80790813849308 65.90993854403496,227.40000000002328 70.33295411523432,218.21580500667915 70.33295411523432,203.67407074046787 66.91516935545951,196.02048099786043 58.06913821119815,199.5921601075679 58.67227669712156,224.84883924608584 65.90993854403496,226.88976812793408 70.13190795201808,217.70557062956505 67.71935400459915,197.55120145028923 61.084830646403134,195.2551203011535 58.47123053483665,225.1039554781746 64.30156924389303,226.63465213938616 69.9308617906645,220.76697480422445 67.71935400459915,197.0409614383243 57.66704588569701,201.6331165372394 57.86809204891324,220.51185798132792 64.90470773167908,227.14488408202305 70.13190795201808,221.27720834640786 69.12667714059353,199.84727978263982 58.873322860337794,199.08192065148614 58.27018437348306,219.74650730227586 63.09529227018356,226.88976812793408 69.52876946609467,218.72603924456052 68.5235386537388,197.55120145028923 59.27541518583894,195.0" stroke="#4dd2ff" stroke-linecap="round" stroke-linejoin="round" stroke-width="0.5"><title>2017-09-18 1.7km</title></polyline><polyline fill="none" points="89.41636819625273,210.25642960332334 89.41636819625273,219.0641688783653 96.22882085153833,224.568970101187 104.3794338493608,225.98448596161325 112.53004684718326,217.6486441094894 107.90731111727655,212.7729337378405 105.96089607290924,198.61752307065763 103.40622632671148,195.78641907102428 95.37726426916197,195.6291353016859 88.92976443562657,200.34763859352097 88.68646255414933,216.70495991851203 90.26792477816343,219.85057074017823 102.79797162581235,227.40000000002328 111.80014120554551,219.22144929517526 105.47429231181741,198.46023970656097 103.04127350635827,195.9437028177781 93.79580204561353,195.6291353016859 87.71325503243133,200.50492168799974 88.68646255414933,217.6486441094894 102.79797162581235,225.82720651163254 111.92179214581847,217.8059247295605 106.32584889372811,209.7845844371477 104.98768855025992,197.20197198179085 95.49891520990059,195.15728385851253 89.53801913652569,198.46023970656097 87.46995315235108,202.23503424134105 90.14627383789048,219.22144929517526 95.37726426916197,222.99617256375495 104.13613196881488,225.19808848644607 109.61042428063229,222.20977295120247 112.16509402683005,217.4913634674158 106.4474998335354,208.84089349710848 105.5959432516247,198.30295631941408 100.0,195.0 94.28240580670536,195.4718515096465 88.19985879398882,202.54959986719768 88.80811349488795,217.6486441094894 97.68863213481382,225.66992703895085 104.01448102854192,225.98448596161325 111.67849026527256,219.22144929517526 106.20419795345515,209.62730267026927 105.47429231181741,198.77480641263537" stroke="#4dd2ff" stroke-linecap="round" stroke-linejoin="round" stroke-width="0.5"><title>2017-07-30 2.9km</title></polyline><polyline fill="none" points="125.53859445825219,207.37936125707347 125.77501040324569,219.3000921026105 134.75881629111245,227.40000000002328 138.8960953191854,227.2471721174661 146.10678162425756,221.43969638261478 147.05244540190324,217.1604835386388 141.61487868009135,211.20012280426454 142.79695840226486,203.5585860478459 139.25071923574433,196.52832396514714 130.50332929147407,196.0698270049179 125.18397054169327,200.34912431333214 124.9475545976311,214.40955194656271 130.73974523646757,223.2736394982785 137.35939168045297,226.3302043627482 144.68828595755622,221.59252509579528 146.46140554128215,216.70199543179478 143.2697902917862,213.18691340996884 142.08771056914702,201.57177753932774 134.99523223610595,195.0" stroke="#4dd2ff" stroke-linecap="round" stroke-linejoin="round" stroke-width="0.5"><title>2017-07-29 1.1km</title></polyline><polyline fill="none" points="161.4633666826412,215.76557186199352 170.69004018232226,226.95818867441267 175.01860305853188,227.40000000002328 182.87836196552962,220.33099604281597 178.20807044114918,209.5801261642482 178.09416089160368,200.15461365063675 175.4742412562482,196.32547454629093 172.51259297225624,195.58910000917967 166.24756775656715,196.76729901577346 163.7415576702915,199.41824185231235 161.91900487989187,203.98373851529323 163.39982902258635,210.90558194171172 162.1468239785172,217.23829155170824 173.8795075644739,224.30731673992705 181.62535692192614,220.62553884356748 183.44790971279144,217.5328352364013 179.23325638566166,212.23103601345792 175.81596990395337,197.0618485569721 171.0317688304931,195.0 161.6911857817322,197.6509473862825 160.3242711890489,204.8673806928564 162.7163717262447,219.30009557807352 173.65168846584857,227.10545913735405 183.6757288109511,220.47826745384373 183.1061810646206,215.91284392564557 177.63852269388735,209.28558020456694 178.321979990229,200.4491622231435 174.90469350898638,196.03092479461338 167.50057279970497,195.58910000917967 163.62764812074602,199.27096742903814 163.62764812074602,219.74191018939018 172.74041207134724,227.252729578875 179.3471659347415,225.33821219194215 183.6757288109511,218.41646578605287 177.98025134159252,211.20012743840925 175.9298794530332,199.56551625404973 171.1456783800386,196.91457379679196 165.90583910839632,197.35639801365323 162.37464307807386,202.06917786295526 162.94419082440436,205.60374859452713" stroke="#4dd2ff" stroke-linecap="round" stroke-linejoin="round" stroke-width="0.5"><title>2017-07-19 2.5km</title></polyline><polyline fill="none" points="17.519253883510828,249.12348454014864 16.93373734038323,255.93656524119433 28.292758270632476,268.19999999995343 38.24653949867934,261.5383987451205 39.41757258446887,257.75337935541756 34.14792369958013,251.09171235805843 33.79661377379671,240.3421158422716 29.697997973766178,236.55702066037338 24.545452397316694,236.40561657142825 18.104770426172763,240.94772981549613 16.582427415065467,257.4505772195989 25.248072248417884,266.98880289006047 29.580894665792584,268.048600437236 38.363642807118595,261.0841971327318 39.300469275563955,257.2991761190351 33.79661377379671,248.9720822487725 34.61633693287149,243.67298840696458 32.74268399644643,238.67667562991846 29.112481431104243,235.79999999993015 21.96917960839346,237.61684867565054 16.465324106626213,243.37018224282656 18.573183660861105,260.1757933238987 28.526964887976646,267.4430019687861 36.724196487572044,263.052402711357 39.300469275563955,256.9963738535298 34.73344024177641,250.78890831687022 34.96764685912058,243.5215853357222 32.85978730535135,239.13088685669936 25.248072248417884,237.31404077913612 19.744216746184975,238.97948313585948 17.16794395726174,243.67298840696458 17.16794395726174,258.5103843159741 27.590138419531286,267.2916022974532 37.661022956017405,262.29540099878795 39.534675892908126,258.81318614899646 34.38213031645864,248.66927760152612 32.50847737910226,238.22246420790907 27.121725185774267,235.95140417467337 22.086282917298377,236.70842472743243 16.816634032409638,242.00755343446508 18.807390277739614,252.00012396264356 21.0323531399481,252.45432947250083 22.554696151986718,248.51787524484098 25.248072248417884,248.366472866619" stroke="#4dd2ff" stroke-linecap="round" stroke-linejoin="round" stroke-width="0.5"><title>2017-07-10 2.6km</title></polyline><polyline fill="none" points="68.38541712984443,265.4794115682598 67.8006948446855,238.7679630087223 62.53819429129362,235.80000000004657 57.27569373510778,245.9405202305643 57.27569373510778,263.2534725446021 64.09745371434838,266.468716924428 70.13958398066461,261.2748577850871 68.97013941314071,239.01529304008 58.445138303563,241.24126180598978 57.47060116380453,245.44586202281062 57.47060116380453,264.98475868813694 65.85162056609988,267.2106955870986 69.94467655289918,260.03822246578056 70.72430626489222,244.45654520147946 66.82615770585835,236.78932154306676 59.419675442390144,238.7679630087223 58.05532344803214,262.5114922627108 62.92800914589316,266.468716924428 70.13958398066461,257.07029425760265 70.13958398066461,240.49927252077032 64.48726856987923,236.04733043676242 59.419675442390144,240.74660231615417 59.80949029978365,263.2534725446021 67.60578741785139,265.2320851449622 70.33449140936136,243.96188658825122 61.3687497228384,237.03665184415877 59.614582871086895,240.49927252077032 62.73310171812773,266.2213906358229 69.94467655289918,259.54356810089666 70.13958398066461,242.72523946594447 69.16504684183747,239.01529304008 59.80949029978365,239.50995300186332 59.224768014624715,263.99545252206735 63.12291657458991,266.9633693996584 69.74976912513375,259.29624086862896 69.55486169736832,242.47790993971284 67.99560227338225,239.01529304008 59.224768014624715,239.75728293252178 58.05532344803214,263.50079923763406 62.14837943483144,268.19999999995343 68.38541712984443,263.2534725446021 70.13958398066461,251.62907993188128" stroke="#4dd2ff" stroke-linecap="round" stroke-linejoin="round" stroke-width="0.5"><title>2017-06-14 2.3km</title></polyline><polyline fill="none" points="93.61678390856832,238.41292353218887 93.20496351644397,263.49680817872286 99.17635921388865,268.19999999995343 106.79503648262471,261.9290750072105 105.97139569558203,241.02584350132383 102.05910196341574,237.1064622112317 93.20496351644397,238.9355078105582 93.61678390856832,265.5871170796454 104.53002432081848,265.32582859147806 106.79503648262471,242.85488536022604 104.1182039277628,237.62904684618115 96.70543685555458,235.79999999993015 93.41087371204048,242.3323021500837 93.61678390856832,262.7129417534452 100.82364078518003,268.19999999995343 105.76548549998552,261.14520794083364 105.76548549998552,241.80971879791468 101.44137137476355,236.0612925129244 93.82269410509616,240.50325979222544 94.85224508773535,260.6226297173416" stroke="#4dd2ff" stroke-linecap="round" stroke-linejoin="round" stroke-width="0.5"><title>2017-05-13 1.1km</title></polyline><polyline fill="none" points="136.2455084118992,268.19999999995343 141.1556766424328,258.8539168755524 140.17364299669862,240.99235406168737 136.9001975087449,238.0846379676368 130.68065108265728,242.2385164028965 129.69861743599176,246.39238351164386 131.66268472839147,265.29233583947644 139.35528162494302,264.6692642252892 141.1556766424328,243.9000646051718 136.0818361369893,237.66924950142857 132.1537015521899,239.53849670861382 131.17166790552437,263.4231202334631 136.9001975087449,265.91540719766635 140.00997072272003,261.9692842878867 140.17364299669862,241.823129069875 134.28144111856818,237.87694374856073 131.17166790552437,262.3846661284333 135.2634747652337,266.1230975941289 141.1556766424328,260.51544695487246 141.48302119225264,245.56161099602468 135.9181638630107,235.80000000004657 131.82635700237006,244.10775800363626 132.64471837505698,263.21542946936097 140.50098754558712,260.51544695487246 138.8642648011446,240.7846602392383 131.49901245441288,241.407741622068 131.66268472839147,262.5923570061568 137.22754205856472,265.5000263210386 140.3373152706772,260.10006460535806 139.35528162494302,240.5769663885003 134.1177688445896,237.87694374856073 130.51697880774736,243.27698424248956 129.69861743599176,260.10006460535806 132.80839064903557,263.83850167749915 140.3373152706772,260.72313808766194 142.30138256400824,244.10775800363626 136.4091806858778,238.0846379676368 131.66268472839147,240.16157860087696 130.68065108265728,263.00773867662065 139.51895389985293,263.21542946936097 139.68262617383152,243.9000646051718 135.7544915881008,239.12310863868333 131.00799563154578,240.3692725088913 130.68065108265728,259.061608234304 133.954096570611,264.46157363057137 140.50098754558712,260.3077557941433 140.82833209447563,241.20004785619676 137.22754205856472,237.87694374856073 131.3353401804343,241.61543535999954 130.35330653376877,260.9308291915804 141.48302119225264,265.70771677372977" stroke="#4dd2ff" stroke-linecap="round" stroke-linejoin="round" stroke-width="0.5"><title>2017-05-12 3.1km</title></polyline><polyline fill="none" points="188.07234482327476,235.91723242530134 186.48358430049848,235.8703394648328 186.16952698794194,236.29237564901996 182.64100071054418,235.84689297972363 180.83055267296731,236.19858991986257 171.35341141512617,235.8000000000029 165.53411415149458,236.0813576863875 164.1855151031632,235.8234464914567 162.39354102511425,236.52683974802494 162.02406183374114,245.29556741756096 163.04012960987166,251.03954495172366 164.03772342647426,260.8859171188233 164.77668180922046,263.9334894637286 164.8136297283927,265.64479486702476 165.25700475799385,266.3715084477735 165.22005683893804,267.87181064032484 160.21361379616428,268.1999999999971 155.92765517660882,267.7780421368807 156.18629061046522,260.15918035233335" stroke="#4dd2ff" stroke-linecap="round" stroke-linejoin="round" stroke-width="0.5"><title>2017-05-01 3.6km</title></polyline></svg>