<?xml version="1.0" encoding="utf-8" ?>
<svg baseProfile="full" height="300mm" version="1.1" viewBox="0,0,200,300" width="200mm" xmlns="http://www.w3.org/2000/svg" xmlns:ev="http://www.w3.org/2001/xml-events" xmlns:xlink="http://www.w3.org/1999/xlink"><defs /><rect fill="#222222" height="300" width="200" x="0" y="0" /><text fill="#FFFFFF" style="font-size:12px; font-family:Arial; font-weight:bold;" x="10" y="20">Over 1km Runs</text><text fill="#FFFFFF" style="font-size:4px; font-family:Arial" x="10" y="280">ATHLETE</text><text fill="#FFFFFF" style="font-size:9px; font-family:Arial" x="10" y="290">ahianzhang</text><text fill="#FFFFFF" style="font-size:4px; font-family:Arial" x="120" y="280">STATISTICS</text><text fill="#FFFFFF" style="font-size:3px; font-family:Arial" x="120" y="285">Number: 33</text><text fill="#FFFFFF" style="font-size:3px; font-family:Arial" x="120" y="290">Weekly: 1.2</text><text fill="#FFFFFF" style="font-size:3px; font-family:Arial" x="141" y="285">Total: 105.2 km</text><text fill="#FFFFFF" style="font-size:3px; font-family:Arial" x="141" y="290">Avg: 3.2 km</text><text fill="#FFFFFF" style="font-size:3px; font-family:Arial" x="167" y="285">Min: 1.1 km</text><text fill="#FFFFFF" style="font-size:3px; font-family:Arial" x="167" y="290">Max: 6.0 km</text><polyline fill="none" points="41.770586350525264,47.168748756244895 40.623701194650494,47.11710248018062 39.54602462577168,46.471521473737084 38.86382569686975,46.27784624908236 38.517782761889976,46.45860980532598 38.27060923690442,47.0525445924286 37.78614912799094,47.50444881274598 36.44152515218593,48.24040215181594 35.69011763622984,48.38242752690712 35.294639996252954,47.3236874028662 34.39492836542195,46.08417059859494 33.78193802351598,45.98087674417184 31.715567354753148,46.58772640409734 30.835629605862778,46.394051434974244 29.491005629999563,45.774288671942486 28.106833890196867,44.78007679704024 27.612486840225756,44.186126685657655 26.17888039542595,43.669645072106505 18.89220487937564,44.08283060526446 17.666224195505492,44.45727832036937 15.342793060757685,44.41854242364934 14.116812376945745,44.65095754831418 13.365404860989656,44.909195856445876 12.653545109147672,45.46440565505327 11.961459239188116,46.40696311285137 11.714285714260768,47.51736032781628 12.188858882174827,48.266224964288995 12.673318991088308,49.7122903825948 16.667643154622056,49.40242122011114 19.64361239527352,49.37659874064411 21.30461848306004,50.022158455030876 22.421842815936543,49.996336157295445 25.60543781745946,50.61606921360362 28.492424589174334,50.293292124188156 35.42317022930365,49.09255096747074 35.86808257421944,48.39533891327301 36.38220350613119,48.317870566599595 38.1717398269102,47.29786431402317 38.54744358488824,46.471521473737084 38.873712637869176,46.31658132807934 40.64347507664934,47.104190906407894 41.83979493746301,47.20748344347521 42.52199386636494,47.788501707334945 42.571428571420256,48.04673081666988" stroke="#4dd2ff" stroke-linecap="round" stroke-linejoin="round" stroke-width="0.5"><title>2022-04-14 6.0km</title></polyline><polyline fill="none" points="78.41610922745895,47.22693033358519 76.9415376156685,47.058918425798765 76.01127096120035,46.41271579662862 75.41748373495648,46.283474702395324 75.03152203792706,46.438563992735 74.45752771920525,47.4207898293098 72.74544121685904,48.36423329012905 72.11206817551283,48.37715710308112 71.66672775585903,47.13646242304094 70.74635755521012,46.03791610144253 69.68743700173218,46.115460996668844 68.07431503711268,46.58072893582721 67.30239164293744,46.41271579662862 66.19398882065434,45.986219466722105 63.98707962979097,44.18974258006347 62.670851278235205,43.69861303050857 55.37716484925477,44.08634711281047 53.754146430816036,44.499928254284896 52.60615779343061,44.396533150807954 50.94355355994776,44.59039887038671 49.815357830084395,44.90058313497866 48.98405571334297,45.54679684766597 48.35068267205497,46.399791695715976 48.14285714284051,47.627572821613285 48.72674791532336,48.57101406970469 49.11270961241098,49.75999414068792 52.8238797764061,49.436903316600365 55.91157335287426,49.398132338123105 57.6335563089815,50.00554237511096 58.890405937854666,50.00554237511096 61.611930724815466,50.58710125520156 64.56107394845458,50.3544781634846 72.00320718402509,49.10088760363578 72.30999725096626,48.45469994084124 74.37835608900059,47.55002925633744 74.81380005495157,47.084766432468314 74.94245395396138,46.567804859580065 75.50655181886395,46.32224705054978 76.62485109496629,46.96845034285798 78.31714468979044,47.214006352078286 79.0,47.795583645689476 78.96041418489767,48.105756633704004" stroke="#4dd2ff" stroke-linecap="round" stroke-linejoin="round" stroke-width="0.5"><title>2022-04-13 6.0km</title></polyline><polyline fill="none" points="114.79336488532135,47.155886775908584 113.41377567430027,46.96146557855536 112.38156504154904,46.27450725730887 111.87538482743548,46.183776513978955 111.44860543124378,46.443006962195795 110.86302439920837,47.40215301221906 109.4338096769643,48.231676340757986 108.64972660015337,48.34832743475272 108.26264761289349,47.078118348290445 107.74654229654698,46.170814971592335 107.39916371821892,45.93750688418368 106.74410697049461,45.92454530572286 104.67968570510857,46.50781445548637 103.53829894773662,46.27450725730887 102.47631300828652,45.769006215974514 100.64016909431666,44.187676604844455 99.1414786564419,43.66920172327809 91.77705279603833,44.01917260180926 90.52648991410388,44.39506570622325 87.78716169646941,44.44691290552146 86.26862105407054,44.835765931376955 85.72274043102516,45.25054060728144 84.85925653635059,46.35227639178629 84.57142857142026,47.63545723496645 85.16693470568862,48.5038619872721 85.5540136929485,49.735167538725364 88.61094518215396,49.46298568246857 92.67031199741177,49.39818035512144 94.23847815103363,50.00734855711198 95.38979001058033,49.99438757526514 98.76432477141498,50.61651256243931 108.45122455537785,49.13895857074385 108.65965170238633,48.98342513531679 108.79860313376412,48.464978374810016 109.53306069935206,48.2575988194003 111.00197583052795,47.42807573405298 111.47838073788444,46.5596604159291 112.0738868721528,46.27450725730887 113.61227771901758,47.06515693703841 114.89261590770911,47.2077323563426 115.42857142857974,47.73914780305495" stroke="#4dd2ff" stroke-linecap="round" stroke-linejoin="round" stroke-width="0.5"><title>2022-04-12 6.0km</title></polyline><polyline fill="none" points="128.610630950192,50.203102792729624 130.39193384395912,61.27859659388196 131.8763529220596,62.571428571420256 134.15246217534877,61.494068985339254 135.80181670642924,61.40788004771457 137.7480550535256,59.727190709265415 141.8054672004655,60.63217847113265 144.01560227235314,56.96911556957639 143.94962809118442,52.83195429749321 145.82989225676283,48.04828892915975 145.36807298811618,46.66919975957717 144.60936990357004,46.2813297638786 141.2776737504173,47.01397265904234 135.6038941629231,45.85036250131088 135.53791998152155,43.30764277881826 133.7896041785134,38.049745729978895 131.74440455960575,35.85174447292229 130.0620629376499,32.10217494904646 127.95088913768996,31.714285714260768 127.09322478144895,32.61935979849659 127.09322478144895,35.205270384205505 129.96310166583862,38.13594152254518 128.3467342251679,42.57499063771684 128.3467342251679,47.40184168718406 131.018688565935,62.22667393376469 135.63688125344925,61.40788004771457 137.55013250978664,59.727190709265415 139.8922159441281,60.67527305695694 142.00338974420447,60.33051619367325 144.08157645352185,56.75363985844888 143.98261518171057,52.40099664698937 145.79690516612027,48.393060209811665 145.79690516612027,47.14326239208458 144.80729244742543,46.19513636184274 141.73949301906396,46.97087606880814 135.6038941629231,45.72107219908503 135.57090707228053,43.35073990657111 133.8555783596821,38.13594152254518 132.20622382848524,36.75680580630433 130.0620629376499,32.14527372128214 127.6540053220233,31.972878594417125 127.02725060028024,33.00724783795886 127.2251731439028,35.50695846934104 129.50128239707556,37.27398245889344 130.0620629376499,38.78240915999049 128.6766051313607,41.45446029861341 128.24777295335662,43.91100199313951 130.25998548138887,60.7614622094261 131.38154656265397,62.442145629785955 134.15246217534877,61.321691084769554 134.25142344716005,60.02885360637447 132.70103018765803,56.66744952992303" stroke="#4dd2ff" stroke-linecap="round" stroke-linejoin="round" stroke-width="0.5"><title>2022-04-09 5.0km</title></polyline><polyline fill="none" points="188.28571428568102,46.69742156974098 185.19620919623412,46.326134351518704 182.88381888379809,44.989493606073665 182.03088803088758,45.36078376341902 181.2348192348145,47.1182127634529 177.93681993684731,48.92512773476483 176.7616707617417,49.17264882774907 175.70024570031092,46.425144356282544 174.0133380133193,44.61820263238042 172.98982098989654,44.444933231920004 169.0094770095311,45.68256790599844 167.3225693225395,45.28652579728805 165.01017901021987,44.29641646138043 161.14355914352927,41.103274298569886 161.7690417690901,41.845870887933415 159.91154791158624,43.38056015667098 159.1912951914128,44.64295538933948 159.15338715340476,45.85583603649866 160.46121446124744,47.68751682701986 162.48929448926356,48.25681897121831 163.1147771148244,48.92512773476483 162.45138645137195,49.93996191039332 162.43243243254256,50.88053448100982 160.8592488593422,51.9201085951936 158.07300807302818,52.09337032533949 157.94032994040754,52.786415468290215 157.46647946652956,52.786415468290215 157.42857142852154,53.18243998714024 159.94945594947785,53.058682424773 176.13618813618086,50.41024885058869 176.83748683752492,49.22215300286189 177.82309582317248,49.09839253791142 179.66163566161413,47.935039734249585" stroke="#4dd2ff" stroke-linecap="round" stroke-linejoin="round" stroke-width="0.5"><title>2022-04-08 3.4km</title></polyline><polyline fill="none" points="42.571428571478464,78.12199567400967 42.02806831721682,80.21431505636428 41.970872500911355,85.07141876601963 40.855554084526375,80.06486424207105 13.773335098521784,77.63627621563501 11.714285714318976,84.77252275170758 13.744737190543674,85.22086664152448" stroke="#4dd2ff" stroke-linecap="round" stroke-linejoin="round" stroke-width="0.5"><title>2022-03-19 1.5km</title></polyline><polyline fill="none" points="55.75970281707123,84.10556753989658 57.59187730110716,95.37746598821832 58.191498041152954,96.50898425802006 59.32411499484442,96.81362305465154 63.088400752982125,95.72562591556925 65.45357145019807,94.20242321616388 67.88536667439621,94.98578558143345 69.21785720821936,94.46354423451703 70.95009490218945,91.4606386446103 71.21659300883766,86.49924975426984 73.0154552294407,81.5377778687398 71.6496524324175,80.58029128407361 68.58492420462426,81.45073376156506 62.955151699483395,80.40620248200139 60.889791372115724,72.13686667449656 59.02430462476332,70.43944817135343 56.82569524412975,66.0 54.826959443395026,66.08704864210449 54.12740191328339,68.35030436891248 54.49383680999745,69.74306853901362 57.29206693090964,72.22391351536498 55.4932047103066,76.79383677997976 55.459892446990125,79.9709800297278 56.15944997721817,86.67333497994696 58.191498041152954,96.4654644044349 59.12424141482916,96.85714285713038 65.8866308737779,94.33298375399318 68.31842609785963,95.0728257165465 70.11728831846267,93.07089614702272 71.18328074540477,90.32910111558158" stroke="#4dd2ff" stroke-linecap="round" stroke-linejoin="round" stroke-width="0.5"><title>2021-08-09 3.0km</title></polyline><polyline fill="none" points="89.41597086319234,79.95638424076606 102.59401748224627,91.48108753957786 109.40194522065576,96.42820771623519 110.08054895035457,96.85714285714494 110.58402913669124,96.68556891409389 107.30046270333696,67.74460268602706 105.59300815802999,67.11540351780422 94.69156759930775,66.0" stroke="#4dd2ff" stroke-linecap="round" stroke-linejoin="round" stroke-width="0.5"><title>2021-05-14 2.7km</title></polyline><polyline fill="none" points="124.77837527357042,78.01546390121803 139.63494275033008,91.1034609957569 147.41695428581443,96.85714285714494 148.07876758358907,96.55902862758376 148.0559464354301,93.78654534679663 144.42738387198187,66.00000000001455" stroke="#4dd2ff" stroke-linecap="round" stroke-linejoin="round" stroke-width="0.5"><title>2021-02-21 2.3km</title></polyline><polyline fill="none" points="164.4699405184947,84.7162894695648 166.14738098625094,95.76141822474892 166.95255241077393,96.81331394895096 168.09321192884818,96.85714285713038 171.51519048318733,96.11205054449965 173.46102142578457,94.75334801303688 177.0171952174278,95.14781067485455 178.526891638292,94.05207977228565 179.80174639378674,92.21124280741788 179.8688440126134,88.00357285881182 181.61338209896348,82.43708508225973 181.04305233992636,81.38513872993644 179.56690472841728,81.03448912259773 176.44686545827426,81.51663222667412 171.41454405500554,80.28935734002152 171.31389762694016,78.27310907896026 169.43516430316959,72.79410484203254 167.48933336045593,70.73397324871621 165.50995360861998,66.48216737399343 164.1009036154719,66.0" stroke="#4dd2ff" stroke-linecap="round" stroke-linejoin="round" stroke-width="0.5"><title>2020-09-13 1.7km</title></polyline><polyline fill="none" points="15.481801572721452,112.20144481488387 30.42751181125641,125.31065938956453 37.69839787320234,130.69850554187724 38.591313705430366,131.14285714285506 38.80391271307599,130.89290949562564 35.35980878898408,102.20228100768873 34.02043504070025,101.5912038704264 25.26135592511855,100.61903163141687 22.60386832943186,101.06345384595625 18.947165397694334,100.28571428572468" stroke="#4dd2ff" stroke-linecap="round" stroke-linejoin="round" stroke-width="0.5"><title>2020-08-10 3.0km</title></polyline><polyline fill="none" points="55.944653600803576,117.98611297737807 57.78164026036393,130.02862816493143 59.12657692178618,131.14285714286962 63.03017357364297,130.11433823712287 65.09678356547374,128.57155308761867 68.37711688620038,129.2143812236609 70.18130021251272,127.71444670547498 71.23100687516853,125.7002368067333 71.23100687516853,121.02893059924827 72.87117353535723,117.30040322069544 72.57594353647437,115.75755038196803 71.49343354080338,114.94326365325833 68.60674021858722,115.45755027237465 63.2926002391614,114.30040410591755 60.996366914594546,107.14313890010817 59.15938025515061,105.21450450224802 57.092770263087004,100.92860468369327 54.96055360464379,100.41429247849737 54.337290273746476,101.78578967938665 54.435700273374096,103.97160003040335 56.76473693118896,105.98595978983212 57.388000261969864,107.57172259211075 55.78063693479635,110.82893809763482 55.5182102691615,113.27182588670985 57.65042692760471,129.3000915349985 58.53611692425329,130.8428728361905 59.45461025403347,131.14285714286962 62.60373024176806,130.20004828437231 64.63753690046724,128.6572635874909 66.80255689215846,129.42865695458022 69.19720021646935,129.1286708872649 71.26381020841654,125.52881404632353 71.13259687554091,121.32892498600995 72.90397686872166,116.4432637609425 71.62464687367901,114.94326365325833 67.3930168900406,115.50040744969738 63.25979690591339,114.34326145300292 61.193186913849786,107.05742208618904 59.15938025515061,105.17164581539691 57.78164026036393,102.04294468750595 55.813440267927945,100.54287061473588 55.22298027027864,100.28571428571013 54.46850360650569,101.01432329646195 54.238880274118856,102.94298543254263 55.0261602710234,104.828776094364 56.994360263459384,106.15739402131294 57.289590262342244,107.6145809267764" stroke="#4dd2ff" stroke-linecap="round" stroke-linejoin="round" stroke-width="0.5"><title>2020-08-09 4.1km</title></polyline><polyline fill="none" points="93.42105659027584,125.81400065196794 94.04605621425435,130.19742193698767 94.60526640398894,130.75608856391045 98.78289546910673,129.98254987373366 101.67763056932017,128.43546636449173 104.57236566965003,129.12306004413404 105.32894416188356,128.73628879795433 107.46710076986346,125.68507550336653 107.56578492105473,121.47348944167607 109.34209964168258,116.53124489000766 108.09210039384197,115.07004357030382 105.09868114232086,115.54278597148368 99.04605320561677,114.29646344954381 97.43421207019128,106.90437257607118 95.55921319848858,104.97036451852182 93.71710904373322,101.0163527407567 91.48026828432921,100.5006081382744 90.69079507538117,101.5750750352745 90.62500564125367,103.6380404267693 93.28947772213724,106.21672672996647 93.61842489254195,107.33415040996624 92.10526790830772,111.33105405714014 92.00658375734929,116.7891031896288 93.88158262905199,126.67350019226433 93.88158262905199,129.72470318962587 94.7039505551802,131.01393433997873 99.37500037602149,129.85362656009966 101.08552566252183,128.177618318412 105.29604944470339,129.25198367942357 107.36841661878861,125.47020012961002 107.46710076986346,121.08670809341129 109.37499435874633,116.18743347068084 108.4868369983742,114.81218375702156 104.63815510377754,115.62873905338347 99.0789479224477,114.51134702132549 97.53289622138254,106.81841693358729 95.3289501790423,104.66951767279534 93.68421432666946,100.7584805531369 92.46710979589261,100.28571428571013 90.88816337753087,100.84443797412678 90.657900358201,103.16527880801004 93.68421432666946,107.0762837853108 91.97368904016912,112.27655016750214 92.59868866414763,120.82885357749183 94.11184564838186,129.89660100426408 95.55921319848858,131.14285714286962 99.5723686782876,129.72470318962587 100.98684151144698,128.43546636449173 104.96710227418225,129.25198367942357 105.9868385028094,127.87679531108006" stroke="#4dd2ff" stroke-linecap="round" stroke-linejoin="round" stroke-width="0.5"><title>2020-07-19 4.9km</title></polyline><polyline fill="none" points="128.77746398281306,126.32182011006807 133.92620922857895,130.15514429166797 135.79848022712395,131.14285714285506 136.5725922746351,129.30852843265166 136.60859748604707,127.52121360303136 134.93435515090823,114.39794966868067 135.56444635230582,114.53906574792927 135.78047762135975,116.51467781265092 136.33855839970056,117.07913393025228 139.70504567597527,115.87966230447637 141.63132449169643,116.11485352681484 142.81949647155125,114.23331408586819 143.3055668269517,111.22280503986985 144.07967887434643,109.1295271419367 143.71962675929535,108.37688121583778 141.95537139533553,108.70616424341279 138.89492841705214,108.16519891236385 137.70675643719733,103.93149413101492 136.75261833216064,102.94361359010509 135.58244895807002,100.59149255567172 134.88034733361565,100.35627855367784 134.34026916092262,100.68557805987075 133.99821965163574,102.19093861478905 135.47443332348485,103.86093143712787 134.66431606456172,106.77749688789481 134.6823186703259,109.36472826899262 136.10452452499885,116.9145011012879 138.3908554557711,116.74986810323026 139.65103785868268,115.92670057655778 140.60517596371938,116.35004440396733 141.54131146299187,116.18541082616139 142.9635173175484,114.30387221350975 143.10753816354554,111.85783899742819 144.04367366281804,109.59992905100808 143.41358246142045,108.47096214992052 141.7393401262816,108.70616424341279 139.05695186881348,107.88295540610852 137.81477207166608,104.14318202610593 136.75261833216064,102.92009255058656 135.6004515638342,100.59149255567172 134.80833691055886,100.28571428571013 134.1242378919851,100.66205668901966" stroke="#4dd2ff" stroke-linecap="round" stroke-linejoin="round" stroke-width="0.5"><title>2020-07-11 4.9km</title></polyline><polyline fill="none" points="169.22762145439629,121.74085547216237 176.378320337506,127.90783217137505 180.7120772364433,130.98110769767663 181.37761847442016,131.14285714285506 181.42405158409383,129.7881996769138 178.85475285118446,107.80853805785591 177.70940281357616,101.33731649638503 175.1710594870965,101.1553089957888 172.7874931927654,100.60928505154152 171.39449990383582,100.81151639427117 167.81915046222275,100.28571428571013 164.29023413022514,112.76286166142381" stroke="#4dd2ff" stroke-linecap="round" stroke-linejoin="round" stroke-width="0.5"><title>2020-07-06 3.8km</title></polyline><polyline fill="none" points="21.862021108390763,152.24451566764037 33.106467937584966,161.74939208343858 38.205941926455125,165.40069912554463 39.03807366534602,165.4285714285652 35.53885302017443,136.66217919591872 24.12371250090655,135.57499174300756 21.392613460775465,134.79444306775986 20.645828567096032,135.04533406312112 16.634526851819828,134.57142857142026 15.247640620567836,139.75644789086073" stroke="#4dd2ff" stroke-linecap="round" stroke-linejoin="round" stroke-width="0.5"><title>2020-06-13 3.0km</title></polyline><polyline fill="none" points="48.66795366781298,158.69671038980596 49.40926640923135,158.77741871212493 48.14285714284051,160.63370358751854 48.35907335893717,161.72325626577367 79.0,148.36584957767627 77.67181467171758,138.27674373422633" stroke="#4dd2ff" stroke-linecap="round" stroke-linejoin="round" stroke-width="0.5"><title>2020-06-07 1.3km</title></polyline><polyline fill="none" points="106.47796645009657,163.82843488402432 108.67654900287744,165.4285714285652 109.2261946410872,165.2234267409076 105.975433295127,138.24427801386628 105.3001543682185,134.69454240618506 105.03318362968275,134.5714285714348 104.95466282428242,136.5001995274215 105.89691248972667,139.18812318028358 108.84929477487458,165.12085428426508 108.28394497558475,165.0798252805107 103.03875517117558,161.20253010802844 90.773805358971,150.47273492239765 91.19781770836562,147.9901984828757" stroke="#4dd2ff" stroke-linecap="round" stroke-linejoin="round" stroke-width="0.5"><title>2019-10-02 4.9km</title></polyline><polyline fill="none" points="127.60765978961717,149.57258127254318 127.63815559475916,151.00686761368706 129.74236615002155,152.8196245054569 130.03207629884128,152.60050133212644 131.0231899661012,153.81563447263034 133.50859808566747,155.50883464736398 136.86313665192574,159.4329938715964 138.41842271439964,160.34927867676015 144.79204599023797,165.4285714285652 145.2494830674841,165.36881614776212 143.0080413890537,144.41300927268458 141.9711840140517,137.69929573898844 141.31552420335356,135.74687755288323 140.2329231206677,135.7269547735632 139.5315196022857,135.22888434091874 137.71701919601765,134.65112034945923 134.3014890194754,135.0495785377716 132.3955011977814,134.57142857142026 131.6940976793412,134.71088915226574 131.0536857713014,136.30471418591333 129.39166439074324,143.07826180991833 130.71823191462317,143.43685196978913 131.23666060215328,143.13802690232114 132.31926168489736,143.67591155011905" stroke="#4dd2ff" stroke-linecap="round" stroke-linejoin="round" stroke-width="0.5"><title>2019-08-17 4.3km</title></polyline><polyline fill="none" points="165.24032999307383,148.27111773806973 164.75334095890867,148.9471187856252 165.01205388334347,149.20558888310916 163.80979970499175,150.04064275148266 164.46419121982763,150.3786392827169 164.49462803447386,151.19380391872255 175.31491563946474,160.65730758282007 181.7066467141267,165.4285714285652 181.90448600926902,164.77253261077567 179.0890806548996,139.68163426974206 178.51078117679572,137.0768453336641 177.82595284743002,135.88379551112303 173.7474196854164,135.1679605745303 169.6080128941685,135.06853875642992 168.9384029720677,134.57142857142026 168.45141393784434,134.8100416878733 165.0424906979897,146.8992228916468 165.24032999307383,147.39628784650995 166.19908965437207,148.07229325870867 166.79260753991548,147.93311594957777" stroke="#4dd2ff" stroke-linecap="round" stroke-linejoin="round" stroke-width="0.5"><title>2019-06-25 4.5km</title></polyline><polyline fill="none" points="16.08092305867467,168.8571428571595 15.521162538789213,169.69305513623112 16.027612532954663,170.94691803287424 37.80496228404809,179.20135004528856 33.433499176288024,196.0227846680209 33.886638644733466,196.9630781209271 38.551309644128196,198.1819714961748 38.76455174689181,199.60981005913345 38.01820438692812,199.71428571428987" stroke="#4dd2ff" stroke-linecap="round" stroke-linejoin="round" stroke-width="0.5"><title>2019-04-02 1.6km</title></polyline><polyline fill="none" points="56.90442065149546,183.778789413278 52.19829741399735,187.54538389260415 52.758550180122256,191.7465689027449 62.506948315072805,199.42455165588763 74.94455972872674,192.32604132953566 68.66972874524072,172.33405101846438 64.97206048713997,168.8571428571595 54.66340958606452,170.88534073485062 52.310347966849804,188.4145960137248 61.834644995164126,198.98995041218586 73.4879025365226,193.9195887943497 74.0481553026475,188.55946462845895 69.45408261800185,180.15705074334983 69.45408261800185,174.9417243070202 63.627453847788274,169.43662837939337 54.32725792611018,172.33405101846438 52.758550180122256,175.8109472442884 54.43930847942829,192.32604132953566 62.843099975027144,199.27968459541444 73.59995308937505,193.05038139701355 73.37585198273882,187.110777552356 68.5576781919226,183.05444271536544 69.45408261800185,174.9417243070202 67.21307155257091,171.3199540375499 62.05874610180035,169.43662837939337 57.912875631358474,169.72637101623695 53.65495460666716,173.782759229769 53.430853500030935,191.45683256501798 62.61899886839092,198.8450832895469 65.1961615937762,198.70021614641882 74.0481553026475,190.44275473000016 73.59995308937505,186.965908730519 68.89382985187694,182.04035646806005 69.45408261800185,175.52120634843595 67.54922321205959,170.59559842967428 55.783915118314326,169.00201426818967 52.758550180122256,174.65198316203896 54.66340958606452,181.31600852683187 53.54290405288339,191.31196436472237 59.03338116360828,194.06445662118495 62.506948315072805,199.71428571431898 74.16020585549995,192.61577741918154 74.0481553026475,188.12485872313846" stroke="#4dd2ff" stroke-linecap="round" stroke-linejoin="round" stroke-width="0.5"><title>2018-05-25 2.9km</title></polyline><polyline fill="none" points="92.99315486138221,199.71428571428987 93.33412056148518,192.35293363238452 95.68678389280103,178.86401193018537 95.65268732258119,174.5879886878829 97.05064669344574,174.2353243290563 100.39211055508349,171.76666251875577 100.86946253560018,172.60424642075668 100.80126939539332,175.73414506719564 103.69947784685064,178.33502257967484 106.49539658846334,176.21905609834357 107.00684513861779,175.2051503447874 105.60888576810248,172.91282938979566 105.13153378770221,169.9592368695594 103.76767098694108,168.90122669312404 102.23332533612847,168.8571428571595 100.63078654534183,169.91515318467282 100.66488311544526,175.51373070979025 102.16513219615445,176.26313888159348 103.49489842692856,178.02644503916963 104.31321610731538,177.9382799708983 106.80226571869571,175.91047643954516 106.90455542865675,174.63207170448732 105.40430634794757,173.3977448596561 105.50659605802502,170.44415698642842 104.24502296734136,168.9453105230932 101.1422350956127,169.69473466597265 99.13053746463265,172.5601631141617" stroke="#4dd2ff" stroke-linecap="round" stroke-linejoin="round" stroke-width="0.5"><title>2018-05-14 2.1km</title></polyline><polyline fill="none" points="142.59993390645832,191.53252163494471 138.54709884617478,170.02598414558452 134.67848356068134,169.55844772572163 130.80986827705055,176.337713333196 130.80986827705055,195.5065262070857 137.9944395199418,199.2467573895119 141.86305480543524,192.9351125358371 141.12617570254952,173.7662709139986 137.62599996943027,168.8571428572759 132.6520660314709,169.09091117884964 130.80986827705055,194.33770228922367 137.9944395199418,199.2467573895119 142.04727457929403,187.32474204851314 139.65241749957204,171.66236061032396 130.80986827705055,173.29873551346827 131.36252760328352,195.97405555122532 136.15224176552147,199.71428571431898 141.6788350287825,192.9351125358371 140.9419559277594,175.16887634806335 137.44178019370884,169.55844772572163 130.62564850132912,173.0649677659385 131.54674737807363,196.20782017486636 138.36287907138467,198.54546466458123 141.49461525399238,188.72733639157377 141.31039547827095,178.20785085239913 137.0733406431973,169.7922159511363 130.25720895081758,175.87017863453366 130.4414287256077,196.20782017486636" stroke="#4dd2ff" stroke-linecap="round" stroke-linejoin="round" stroke-width="0.5"><title>2018-03-19 1.6km</title></polyline><polyline fill="none" points="178.31411012168974,186.83696035004687 178.1226375857368,175.90330916584935 174.10171433910728,169.3430862558307 167.01723052188754,172.98765752080362 167.59164812788367,195.3408648938639 174.67613194603473,199.71428571431898 178.8885277286172,190.96743333968334 178.8885277286172,177.11816260998603 175.6334946230054,169.82902952178847 167.20870305784047,173.23062867391855 167.7831206638366,197.28460880590137 174.67613194603473,199.22835059801582 178.69705519266427,190.481495837681 176.39938476588577,171.28685852407943 170.0807910906151,169.10011457256041 167.59164812788367,197.52757664583623 173.14435166027397,198.98538298986387 178.50558265764266,193.39711886120494 176.39938476588577,170.80091565556359 166.82575798593462,175.17439670220483 167.01723052188754,193.15415045851842 173.71876926720142,199.47131817333866 178.69705519266427,193.88305556809064 177.73969251476228,173.47359979292378 167.97459319978952,172.74468633474316 167.40017559286207,192.42524504987523 171.99551644735038,199.22835059801582 178.1226375857368,191.45337070908863 177.16527490783483,171.28685852407943 168.35753827169538,168.8571428571595" stroke="#4dd2ff" stroke-linecap="round" stroke-linejoin="round" stroke-width="0.5"><title>2017-09-18 1.7km</title></polyline><polyline fill="none" points="17.06320780608803,217.6727900983533 17.06320780608803,226.0611132174963 23.551257954444736,231.30378104874399 31.31374652357772,232.65189139195718 39.076235092710704,224.71299439005088 34.6736296354793,220.06946070259437 32.81990102212876,206.58811721019447 30.386882216203958,203.8918276866898 22.740251685492694,203.7420336207142 16.599775653332472,208.23584627953824 16.36805957602337,223.81424754147884 17.874214075040072,226.81006737158168 29.807592024561018,234.0 38.38108686264604,226.21090409066528 32.35646886844188,206.43832353001926 30.03930810140446,204.04162173124496 21.234097186941653,203.7420336207142 15.44119526911527,208.38563970290124 16.36805957602337,224.71299439005088 29.807592024561018,232.50210143974982 38.496944901067764,224.8627854567021 33.16747513692826,217.22341374959797 31.893036714755,205.2399733159691 22.856109723914415,203.29265129379928 17.179065844975412,206.43832353001926 15.20947919273749,210.0333659441676 17.75835603615269,226.21090409066528 22.740251685492694,229.80587863211986 31.08203044673428,231.90294141566847 36.29564217245206,229.05692662019283 38.728660978376865,224.56320330232847 33.28333317534998,216.32466047338676 32.47232690639794,206.2885298280744 27.142857143189758,203.1428571428405 21.697529340162873,203.59223953296896 15.90462742280215,210.3329522544518 16.48391761444509,224.71299439005088 24.941554414108396,232.35231146565638 30.96617240831256,232.65189139195718 38.26522882422432,226.21090409066528 33.0516170989722,217.07362159073818 32.35646886844188,206.7379108691821" stroke="#4dd2ff" stroke-linecap="round" stroke-linejoin="round" stroke-width="0.5"><title>2017-07-30 2.9km</title></polyline><polyline fill="none" points="53.608185198158026,214.93272500671446 53.833343241363764,226.28580200241413 62.389348848722875,234.0 66.32961458945647,233.8544496356044 73.19693488022313,228.32352036435623 74.09756704932079,224.24807956058066 68.91893207654357,218.5715455278987 70.04472228791565,211.29389147413895 66.66735165333375,204.59840377629735 58.336504086852074,204.16174000455067 53.2704481347464,208.23726125073154 53.04529009293765,221.62814471090678 58.56166212959215,230.07013285544235 64.86608731467277,232.98114701209124 71.84598662611097,228.46907151967753 73.53467194363475,223.81142422079574 70.49503837293014,220.46372705709655 69.3692481610924,209.40169289463665 62.61450689099729,203.1428571428405" stroke="#4dd2ff" stroke-linecap="round" stroke-linejoin="round" stroke-width="0.5"><title>2017-07-29 1.1km</title></polyline><polyline fill="none" points="89.96511112665758,222.91959224949824 98.75241922121495,233.57922730897553 102.87486005621031,234.0 110.36034472938627,227.26761527883355 105.91244803927839,217.02869158500107 105.80396275408566,208.0520130005898 103.30880119651556,204.40521385363536 100.48818378336728,203.70390477066394 94.52149310195819,204.82599906262476 92.13481682911515,207.35070652590366 90.39905226696283,211.69879858597415 91.80936097400263,218.2910304206307 90.61602283688262,224.32218243018724 101.79000720474869,231.05458737135632 109.16700659273192,227.5481322319829 110.90277115534991,224.60270022513578 106.88881560554728,219.55336763180094 103.63425705162808,205.10652243514778 99.07787507679313,203.1428571428405 90.18208169704303,205.66756893927231 88.88025827519596,212.54036256455583 91.15844926331192,226.28580531239277 101.5730366348289,233.7194848926738 111.1197417252697,227.40787376550725 110.57731529977173,223.05985135771334 105.37002161378041,216.74817162333056 106.02093332447112,208.3325354505214 102.76637477101758,204.12469028058695 95.71483123814687,203.70390477066394 92.02633154392242,207.2104451705236 92.02633154392242,226.7065811327775 100.70515435375273,233.85974245605757 106.99730089074001,232.03639256372117 111.1197417252697,225.44425312953535 105.69547746842727,218.57154994131997 103.74274233682081,207.49096786096925 99.18636036198586,204.96626075886888 94.19603724638,205.38704572722781 90.83299340773374,209.87540748849278 91.37541983323172,213.24166532809613" stroke="#4dd2ff" stroke-linecap="round" stroke-linejoin="round" stroke-width="0.5"><title>2017-07-19 2.5km</title></polyline><polyline fill="none" points="126.44690846092999,215.83189003833104 125.88927365746349,222.32053832500242 136.70738882943988,234.0 146.18718047533184,227.65561785257887 147.30245008086786,224.0508374813944 142.28373685711995,217.7063927220879 141.94915597513318,207.4686817546608 138.04571235645562,203.86382920038886 133.13852609321475,203.71963483002037 127.00454326346517,208.04545696720015 125.55469277640805,223.76245449495036 133.80768785625696,232.84647894301452 137.93418539641425,233.85580994037446 146.29870743583888,227.22304488834925 147.19092311989516,223.61826297058724 141.94915597513318,215.68769737996627 142.72984469868243,210.64094134012703 140.9454133301042,205.88254821905866 137.48807755392045,203.14285714295693 130.684932960663,204.87318921496626 125.44316581590101,210.35255451709963 127.45065110595897,226.35789840389043 136.9304427509196,233.27904949418735 144.73732998827472,229.09752639185172 147.19092311989516,223.32987986062653 142.84137165918946,217.41800792096183 143.0644255806692,210.4967479389161 141.0569402910769,206.315130339819 133.80768785625696,204.58480074221734 128.56592071102932,206.17093631997705 126.11232757894322,210.64094134012703 126.11232757894322,224.77179458679166 136.03822706686333,233.13485933106858 145.629545672331,228.37657237995882 147.4139770413749,225.06017728487495 142.50679077766836,215.3993120015366 140.72235940909013,205.44996591238305 135.5921192248352,203.28705159504898 130.7964599216357,204.00802355003543 125.77774669788778,209.0548127949005 127.67370502697304,218.5715466311667 129.7927172766067,219.00412330729887 131.2425677641295,215.25511928088963 133.80768785625696,215.11092653975356" stroke="#4dd2ff" stroke-linecap="round" stroke-linejoin="round" stroke-width="0.5"><title>2017-07-10 2.6km</title></polyline><polyline fill="none" points="177.0337305990979,231.40896339830942 176.47685223259032,205.96948857977986 171.46494694333524,203.1428571428405 166.4530416522175,212.80049545771908 166.4530416522175,229.28902147104964 172.94995591789484,232.35115897562355 178.7043656958267,227.40462646191008 177.59060896374285,206.2050409904914 167.56679838337004,208.32501124381088 166.6386677743867,212.3293924026657 166.6386677743867,230.93786541721784 174.62059101462364,233.05780532106292 178.5187395736575,226.22687853884418 179.26124406140298,211.38718590617646 175.54872162360698,204.0850681362208 168.49492899235338,205.96948857977986 167.19554613996297,228.58237358357292 171.8361991867423,232.35115897562355 178.7043656958267,223.40028024534695 178.7043656958267,207.6183547816472 173.3212081613019,203.37840993970167 168.49492899235338,207.8539069677936 168.86618123669177,229.28902147104964 176.29122611228377,231.17341442371253 178.8899918179959,210.91608246508986 170.35119021125138,204.32062080386095 168.68055511452258,207.6183547816472 171.6505730636418,232.11561012931634 178.5187395736575,225.75577914365567 178.7043656958267,209.73832330096047 177.77623508684337,206.2050409904914 168.86618123669177,206.67614571610466 168.30930287018418,229.9956690686522 172.0218253089115,232.82225657103118 178.33311345241964,225.52022939862218 178.14748732931912,209.50277137116063 176.66247835475951,206.2050409904914 168.30930287018418,206.91169803088997 167.19554613996297,229.52457070245873 171.09369469899684,234.0 177.0337305990979,229.28902147104964 178.7043656958267,218.21817136369646" stroke="#4dd2ff" stroke-linecap="round" stroke-linejoin="round" stroke-width="0.5"><title>2017-06-14 2.3km</title></polyline><polyline fill="none" points="21.06360372249037,239.917070030584 20.671393825672567,263.80648397968616 26.358437347225845,268.285714285681 33.61432045977563,262.31340476870537 32.82990066334605,242.40556523925625 29.10390663333237,238.67282115353737 20.671393825672567,240.41476934333332 21.06360372249037,265.7972543615615 31.45716602075845,265.5484081823379 33.61432045977563,244.14750986685976 31.064956122078,239.17052080587018 24.005177958868444,237.42857142852154 20.86749877408147,243.64981157146394 21.06360372249037,263.0599445269909 27.92727693822235,268.285714285681 32.63379571493715,261.56686470552813 32.63379571493715,243.15211314079352 28.5155917853117,237.67742144083604 21.259708672761917,241.9078664687695 22.240233417600393,261.06917115929537" stroke="#4dd2ff" stroke-linecap="round" stroke-linejoin="round" stroke-width="0.5"><title>2017-05-13 1.1km</title></polyline><polyline fill="none" points="63.80524610541761,268.285714285681 68.48159680142999,259.3846827385714 67.5463266633451,242.37367053492926 64.4287595320493,239.60441711195745 58.50538198277354,243.560491812299 57.57011184375733,247.51655572536401 59.44065212178975,265.5165103232721 66.76693488005549,264.9231087859953 68.48159680142999,245.14291867159773 63.64936774875969,239.20880904886872 59.90828719176352,240.98904448433314 58.97301705274731,263.73630498419516 64.4287595320493,266.1099116167752 67.39044830668718,262.3516993217636 67.5463266633451,243.1648848283803 61.934705826453865,239.40661309380084 58.97301705274731,262.7473010746762 62.8699759664014,266.30771199427545 68.48159680142999,260.9670923379017 68.79335351567715,246.7253438057378 63.49348939303309,237.42857142852154 59.596530478447676,245.34072190814186 60.375922260805964,263.5385042565176 67.85808337666094,260.9670923379017 66.29929981008172,242.17586689442396 59.28477376513183,242.76927773526404 59.44065212178975,262.94510191062 64.74051624536514,265.7143107819138 67.7022050190717,260.5714901002357 66.76693488005549,241.97806322702672 61.778827470727265,239.40661309380084 58.34950362611562,244.54950880235992 57.57011184375733,260.5714901002357 60.53180061746389,264.1319063595729 67.7022050190717,261.16489341680426 69.57274529803544,245.34072190814186 63.96112446207553,239.60441711195745 59.44065212178975,241.58245581027586 58.50538198277354,263.3407035014825 66.92281323671341,263.5385042565176 67.07869159337133,245.14291867159773 63.33761103544384,240.5934367987793 58.817138695158064,241.78025953227188 58.50538198277354,259.5824840326095 61.62294911406934,264.72530821955297 67.85808337666094,260.76929123245645 68.16984008904546,242.57147414877545 64.74051624536514,239.40661309380084 59.12889540847391,242.96708129520994 58.1936252694577,261.3626944682328 68.79335351567715,265.9121112129651" stroke="#4dd2ff" stroke-linecap="round" stroke-linejoin="round" stroke-width="0.5"><title>2017-05-12 3.1km</title></polyline><polyline fill="none" points="115.30699506989913,237.54022135742707 113.79388981009834,237.4955613950733 113.49478760763304,237.89750061811355 110.13428639114136,237.47323140926892 108.41005016479176,237.80818087606167 99.3842013477697,237.4285714285652 93.84201347775524,237.69653112988453 92.55763343162835,237.45090142042318 90.85099145257846,238.12079976001405 90.49910650844686,246.47196896909736 91.46679010475054,251.9424237635394 92.41687945392914,261.3199210655439 93.12064934219234,264.2223709178361 93.15583783667535,265.8521855876461 93.57809976959834,266.54429375976906 93.54291127523175,267.9731529907731 88.77487028221367,268.2857142857101 84.69300493015908,267.8838496541721 84.93932439107448,260.6277908117481" stroke="#4dd2ff" stroke-linecap="round" stroke-linejoin="round" stroke-width="0.5"><title>2017-05-01 3.6km</title></polyline></svg>