<?xml version="1.0" encoding="utf-8" ?>
<svg baseProfile="full" height="300mm" version="1.1" viewBox="0,0,200,300" width="200mm" xmlns="http://www.w3.org/2000/svg" xmlns:ev="http://www.w3.org/2001/xml-events" xmlns:xlink="http://www.w3.org/1999/xlink"><defs /><rect fill="#222222" height="300" width="200" x="0" y="0" /><text fill="#FFFFFF" style="font-size:12px; font-family:Arial; font-weight:bold;" x="10" y="20">Over 1km Runs</text><text fill="#FFFFFF" style="font-size:4px; font-family:Arial" x="10" y="280">ATHLETE</text><text fill="#FFFFFF" style="font-size:9px; font-family:Arial" x="10" y="290">ahianzhang</text><text fill="#FFFFFF" style="font-size:4px; font-family:Arial" x="120" y="280">STATISTICS</text><text fill="#FFFFFF" style="font-size:3px; font-family:Arial" x="120" y="285">Number: 32</text><text fill="#FFFFFF" style="font-size:3px; font-family:Arial" x="120" y="290">Weekly: 1.2</text><text fill="#FFFFFF" style="font-size:3px; font-family:Arial" x="141" y="285">Total: 99.2 km</text><text fill="#FFFFFF" style="font-size:3px; font-family:Arial" x="141" y="290">Avg: 3.1 km</text><text fill="#FFFFFF" style="font-size:3px; font-family:Arial" x="167" y="285">Min: 1.1 km</text><text fill="#FFFFFF" style="font-size:3px; font-family:Arial" x="167" y="290">Max: 6.0 km</text><polyline fill="none" points="41.9875377988792,47.22693033358519 40.51296618708875,47.058918425798765 39.58269953262061,46.41271579662862 38.98891230637673,46.283474702395324 38.60295060934732,46.438563992735 38.0289562906255,47.4207898293098 36.31686978827929,48.36423329012905 35.68349674693309,48.37715710308112 35.238156327279285,47.13646242304094 34.31778612663038,46.03791610144253 33.258865573152434,46.115460996668844 31.64574360853294,46.58072893582721 30.873820214357693,46.41271579662862 29.765417392074596,45.986219466722105 27.558508201211225,44.18974258006347 26.24227984965546,43.69861303050857 18.948593420675024,44.08634711281047 17.32557500223629,44.499928254284896 16.177586364850868,44.396533150807954 14.514982131368015,44.59039887038671 13.38678640150465,44.90058313497866 12.555484284763224,45.54679684766597 11.922111243475229,46.399791695715976 11.714285714260768,47.627572821613285 12.298176486743614,48.57101406970469 12.684138183831237,49.75999414068792 16.395308347826358,49.436903316600365 19.483001924294513,49.398132338123105 21.204984880401753,50.00554237511096 22.461834509274922,50.00554237511096 25.18335929623572,50.58710125520156 28.132502519874834,50.3544781634846 35.57463575544534,49.10088760363578 35.88142582238652,48.45469994084124 37.949784660420846,47.55002925633744 38.38522862637183,47.084766432468314 38.51388252538163,46.567804859580065 39.07798039028421,46.32224705054978 40.196279666386545,46.96845034285798 41.888573261210695,47.214006352078286 42.571428571420256,47.795583645689476 42.53184275631793,48.105756633704004" stroke="#4dd2ff" stroke-linecap="round" stroke-linejoin="round" stroke-width="0.5"><title>2022-04-13 6.0km</title></polyline><polyline fill="none" points="78.36479345674161,47.155886775908584 76.98520424572052,46.96146557855536 75.9529936129693,46.27450725730887 75.44681339885574,46.183776513978955 75.02003400266403,46.443006962195795 74.43445297062863,47.40215301221906 73.00523824838456,48.231676340757986 72.22115517157363,48.34832743475272 71.83407618431374,47.078118348290445 71.31797086796723,46.170814971592335 70.97059228963917,45.93750688418368 70.31553554191487,45.92454530572286 68.25111427652882,46.50781445548637 67.10972751915688,46.27450725730887 66.04774157970678,45.769006215974514 64.21159766573692,44.187676604844455 62.71290722786216,43.66920172327809 55.34848136745859,44.01917260180926 54.09791848552413,44.39506570622325 51.35859026788967,44.44691290552146 49.84004962549079,44.835765931376955 49.294169002445415,45.25054060728144 48.43068510777084,46.35227639178629 48.14285714284051,47.63545723496645 48.738363277108874,48.5038619872721 49.12544226436876,49.735167538725364 52.18237375357421,49.46298568246857 56.24174056883203,49.39818035512144 57.80990672245389,50.00734855711198 58.96121858200058,49.99438757526514 62.33575334283523,50.61651256243931 72.0226531267981,49.13895857074385 72.23108027380658,48.98342513531679 72.37003170518437,48.464978374810016 73.10448927077232,48.2575988194003 74.57340440194821,47.42807573405298 75.04980930930469,46.5596604159291 75.64531544357305,46.27450725730887 77.18370629043784,47.06515693703841 78.46404447912937,47.2077323563426 79.0,47.73914780305495" stroke="#4dd2ff" stroke-linecap="round" stroke-linejoin="round" stroke-width="0.5"><title>2022-04-12 6.0km</title></polyline><polyline fill="none" points="92.18205952167045,50.203102792729624 93.96336241543759,61.27859659388196 95.44778149353806,62.571428571420256 97.72389074682724,61.494068985339254 99.3732452779077,61.40788004771457 101.31948362500407,59.727190709265415 105.37689577194396,60.63217847113265 107.5870308438316,56.96911556957639 107.52105666266289,52.83195429749321 109.4013208282413,48.04828892915975 108.93950155959465,46.66919975957717 108.1807984750485,46.2813297638786 104.84910232189577,47.01397265904234 99.17532273440156,45.85036250131088 99.10934855300002,43.30764277881826 97.36103274999186,38.049745729978895 95.31583313108422,35.85174447292229 93.63349150912836,32.10217494904646 91.52231770916842,31.714285714260768 90.66465335292742,32.61935979849659 90.66465335292742,35.205270384205505 93.53453023731709,38.13594152254518 91.91816279664636,42.57499063771684 91.91816279664636,47.40184168718406 94.59011713741347,62.22667393376469 99.20830982492771,61.40788004771457 101.1215610812651,59.727190709265415 103.46364451560657,60.67527305695694 105.57481831568293,60.33051619367325 107.65300502500031,56.75363985844888 107.55404375318903,52.40099664698937 109.36833373759873,48.393060209811665 109.36833373759873,47.14326239208458 108.37872101890389,46.19513636184274 105.31092159054242,46.97087606880814 99.17532273440156,45.72107219908503 99.142335643759,43.35073990657111 97.42700693116058,38.13594152254518 95.7776523999637,36.75680580630433 93.63349150912836,32.14527372128214 91.22543389350176,31.972878594417125 90.5986791717587,33.00724783795886 90.79660171538126,35.50695846934104 93.07271096855402,37.27398245889344 93.63349150912836,38.78240915999049 92.24803370283917,41.45446029861341 91.81920152483508,43.91100199313951 93.83141405286733,60.7614622094261 94.95297513413243,62.442145629785955 97.72389074682724,61.321691084769554 97.82285201863851,60.02885360637447 96.2724587591365,56.66744952992303" stroke="#4dd2ff" stroke-linecap="round" stroke-linejoin="round" stroke-width="0.5"><title>2022-04-09 5.0km</title></polyline><polyline fill="none" points="151.8571428571595,46.69742156974098 148.76763776771259,46.326134351518704 146.45524745527655,44.989493606073665 145.60231660236605,45.36078376341902 144.80624780629296,47.1182127634529 141.50824850832578,48.92512773476483 140.33309933322016,49.17264882774907 139.27167427178938,46.425144356282544 137.58476658479776,44.61820263238042 136.561249561375,44.444933231920004 132.58090558100957,45.68256790599844 130.89399789401796,45.28652579728805 128.58160758169834,44.29641646138043 124.71498771500774,41.103274298569886 125.34047034056857,41.845870887933415 123.4829764830647,43.38056015667098 122.76272376289126,44.64295538933948 122.72481572488323,45.85583603649866 124.0326430327259,47.68751682701986 126.06072306074202,48.25681897121831 126.68620568630286,48.92512773476483 126.02281502285041,49.93996191039332 126.00386100402102,50.88053448100982 124.43067743082065,51.9201085951936 121.64443664450664,52.09337032533949 121.511758511886,52.786415468290215 121.03790803800803,52.786415468290215 121.0,53.18243998714024 123.52088452095632,53.058682424773 139.70761670765933,50.41024885058869 140.40891540900338,49.22215300286189 141.39452439465094,49.09839253791142 143.2330642330926,47.935039734249585" stroke="#4dd2ff" stroke-linecap="round" stroke-linejoin="round" stroke-width="0.5"><title>2022-04-08 3.4km</title></polyline><polyline fill="none" points="188.28571428568102,43.83628138829954 187.74235403141938,45.92860077065416 187.68515821511392,50.785704480309505 186.56983979872894,45.779149956360925 159.48762081272434,43.35056192992488 157.42857142852154,50.486808465997456 159.45902290474623,50.93515235581435" stroke="#4dd2ff" stroke-linecap="round" stroke-linejoin="round" stroke-width="0.5"><title>2022-03-19 1.5km</title></polyline><polyline fill="none" points="19.331131388549693,84.10556753989658 21.163305872585624,95.37746598821832 21.762926612631418,96.50898425802006 22.895543566322885,96.81362305465154 26.65982932446059,95.72562591556925 29.025000021676533,94.20242321616388 31.456795245874673,94.98578558143345 32.78928577969782,94.46354423451703 34.52152347366791,91.4606386446103 34.788021580316126,86.49924975426984 36.58688380091917,81.5377778687398 35.22108100389596,80.58029128407361 32.15635277610272,81.45073376156506 26.52658027096186,80.40620248200139 24.461219943594187,72.13686667449656 22.59573319624178,70.43944817135343 20.39712381560821,66.0 18.39838801487349,66.08704864210449 17.698830484761856,68.35030436891248 18.06526538147591,69.74306853901362 20.863495502388105,72.22391351536498 19.064633281785063,76.79383677997976 19.03132101846859,79.9709800297278 19.730878548696637,86.67333497994696 21.762926612631418,96.4654644044349 22.69566998630762,96.85714285713038 29.458059445256367,94.33298375399318 31.889854669338092,95.0728257165465 33.688716889941134,93.07089614702272 34.754709316883236,90.32910111558158" stroke="#4dd2ff" stroke-linecap="round" stroke-linejoin="round" stroke-width="0.5"><title>2021-08-09 3.0km</title></polyline><polyline fill="none" points="52.987399434670806,79.95638424076606 66.16544605372474,91.48108753957786 72.97337379213423,96.42820771623519 73.65197752183303,96.85714285714494 74.1554577081697,96.68556891409389 70.87189127481543,67.74460268602706 69.16443672950845,67.11540351780422 58.26299617078621,66.0" stroke="#4dd2ff" stroke-linecap="round" stroke-linejoin="round" stroke-width="0.5"><title>2021-05-14 2.7km</title></polyline><polyline fill="none" points="88.34980384493247,78.01546390121803 103.20637132169213,91.1034609957569 110.98838285717648,96.85714285714494 111.65019615495112,96.55902862758376 111.62737500679214,93.78654534679663 107.99881244334392,66.00000000001455" stroke="#4dd2ff" stroke-linecap="round" stroke-linejoin="round" stroke-width="0.5"><title>2021-02-21 2.3km</title></polyline><polyline fill="none" points="128.04136908985674,84.7162894695648 129.71880955761299,95.76141822474892 130.52398098213598,96.81331394895096 131.66464050021023,96.85714285713038 135.08661905454937,96.11205054449965 137.0324499971466,94.75334801303688 140.58862378878985,95.14781067485455 142.09832020965405,94.05207977228565 143.3731749651488,92.21124280741788 143.44027258397546,88.00357285881182 145.18481067032553,82.43708508225973 144.6144809112884,81.38513872993644 143.13833329977933,81.03448912259773 140.0182940296363,81.51663222667412 134.98597262636758,80.28935734002152 134.8853261983022,78.27310907896026 133.00659287453163,72.79410484203254 131.06076193181798,70.73397324871621 129.08138217998203,66.48216737399343 127.67233218683396,66.0" stroke="#4dd2ff" stroke-linecap="round" stroke-linejoin="round" stroke-width="0.5"><title>2020-09-13 1.7km</title></polyline><polyline fill="none" points="161.19608728704043,77.91573052917374 176.14179752557538,91.0249451038544 183.41268358752131,96.41279125616711 184.30559941974934,96.85714285714494 184.51819842739496,96.60719520991552 181.07409450330306,67.9165667219786 179.73472075501923,67.30548958471627 170.97564163943753,66.33331734570675 168.31815404375084,66.77773956024612 164.6614511120133,66.00000000001455" stroke="#4dd2ff" stroke-linecap="round" stroke-linejoin="round" stroke-width="0.5"><title>2020-08-10 3.0km</title></polyline><polyline fill="none" points="19.51608217228204,117.98611297737807 21.353068831842393,130.02862816493143 22.698005493264645,131.14285714286962 26.601602145121433,130.11433823712287 28.668212136952206,128.57155308761867 31.948545457678847,129.2143812236609 33.75272878399119,127.71444670547498 34.802435446646996,125.7002368067333 34.802435446646996,121.02893059924827 36.44260210683569,117.30040322069544 36.14737210795283,115.75755038196803 35.064862112281844,114.94326365325833 32.17816879006568,115.45755027237465 26.864028810639866,114.30040410591755 24.56779548607301,107.14313890010817 22.730808826629072,105.21450450224802 20.664198834565468,100.92860468369327 18.531982176122256,100.41429247849737 17.90871884522494,101.78578967938665 18.00712884485256,103.97160003040335 20.336165502667427,105.98595978983212 20.959428833448328,107.57172259211075 19.352065506274812,110.82893809763482 19.089638840639964,113.27182588670985 21.221855499083176,129.3000915349985 22.107545495731756,130.8428728361905 23.026038825511932,131.14285714286962 26.175158813246526,130.20004828437231 28.208965471945703,128.6572635874909 30.373985463636927,129.42865695458022 32.76862878794782,129.1286708872649 34.83523877989501,125.52881404632353 34.704025447019376,121.32892498600995 36.47540544020012,116.4432637609425 35.196075445157476,114.94326365325833 30.964445461519063,115.50040744969738 26.831225477391854,114.34326145300292 24.76461548532825,107.05742208618904 22.730808826629072,105.17164581539691 21.353068831842393,102.04294468750595 19.38486883940641,100.54287061473588 18.794408841757104,100.28571428571013 18.039932177984156,101.01432329646195 17.81030884559732,102.94298543254263 18.597588842501864,104.828776094364 20.565788834937848,106.15739402131294 20.861018833820708,107.6145809267764" stroke="#4dd2ff" stroke-linecap="round" stroke-linejoin="round" stroke-width="0.5"><title>2020-08-09 4.1km</title></polyline><polyline fill="none" points="56.99248516163789,125.81400065196794 57.6174847856164,130.19742193698767 58.17669497535098,130.75608856391045 62.35432404046878,129.98254987373366 65.24905914068222,128.43546636449173 68.14379424101207,129.12306004413404 68.9003727332456,128.73628879795433 71.03852934122551,125.68507550336653 71.13721349241678,121.47348944167607 72.91352821304463,116.53124489000766 71.66352896520402,115.07004357030382 68.6701097136829,115.54278597148368 62.61748177697882,114.29646344954381 61.00564064155333,106.90437257607118 59.13064176985063,104.97036451852182 57.288537615095265,101.0163527407567 55.05169685569126,100.5006081382744 54.26222364674322,101.5750750352745 54.19643421261571,103.6380404267693 56.86090629349928,106.21672672996647 57.189853463904,107.33415040996624 55.67669647966977,111.33105405714014 55.57801232871134,116.7891031896288 57.45301120041404,126.67350019226433 57.45301120041404,129.72470318962587 58.27537912654225,131.01393433997873 62.94642894738354,129.85362656009966 64.65695423388388,128.177618318412 68.86747801606543,129.25198367942357 70.93984519015066,125.47020012961002 71.03852934122551,121.08670809341129 72.94642293010838,116.18743347068084 72.05826556973625,114.81218375702156 68.20958367513958,115.62873905338347 62.650376493809745,114.51134702132549 61.10432479274459,106.81841693358729 58.90037875040434,104.66951767279534 57.25564289803151,100.7584805531369 56.03853836725466,100.28571428571013 54.45959194889292,100.84443797412678 54.22932892956305,103.16527880801004 57.25564289803151,107.0762837853108 55.54511761153117,112.27655016750214 56.17011723550968,120.82885357749183 57.68327421974391,129.89660100426408 59.13064176985063,131.14285714286962 63.14379724964965,129.72470318962587 64.55827008280903,128.43546636449173 68.5385308455443,129.25198367942357 69.55826707417145,127.87679531108006" stroke="#4dd2ff" stroke-linecap="round" stroke-linejoin="round" stroke-width="0.5"><title>2020-07-19 4.9km</title></polyline><polyline fill="none" points="92.34889255417511,126.32182011006807 97.497637799941,130.15514429166797 99.369908798486,131.14285714285506 100.14402084599715,129.30852843265166 100.18002605740912,127.52121360303136 98.50578372227028,114.39794966868067 99.13587492366787,114.53906574792927 99.3519061927218,116.51467781265092 99.90998697106261,117.07913393025228 103.27647424733732,115.87966230447637 105.20275306305848,116.11485352681484 106.3909250429133,114.23331408586819 106.87699539831374,111.22280503986985 107.65110744570848,109.1295271419367 107.2910553306574,108.37688121583778 105.52679996669758,108.70616424341279 102.46635698841419,108.16519891236385 101.27818500855938,103.93149413101492 100.32404690352269,102.94361359010509 99.15387752943207,100.59149255567172 98.4517759049777,100.35627855367784 97.91169773228467,100.68557805987075 97.56964822299778,102.19093861478905 99.0458618948469,103.86093143712787 98.23574463592377,106.77749688789481 98.25374724168796,109.36472826899262 99.6759530963609,116.9145011012879 101.96228402713314,116.74986810323026 103.22246643004473,115.92670057655778 104.17660453508142,116.35004440396733 105.11274003435392,116.18541082616139 106.53494588891044,114.30387221350975 106.67896673490759,111.85783899742819 107.61510223418009,109.59992905100808 106.9850110327825,108.47096214992052 105.31076869764365,108.70616424341279 102.62838044017553,107.88295540610852 101.38620064302813,104.14318202610593 100.32404690352269,102.92009255058656 99.17188013519626,100.59149255567172 98.37976548192091,100.28571428571013 97.69566646334715,100.66205668901966" stroke="#4dd2ff" stroke-linecap="round" stroke-linejoin="round" stroke-width="0.5"><title>2020-07-11 4.9km</title></polyline><polyline fill="none" points="132.79905002581654,121.74085547216237 139.94974890892627,127.90783217137505 144.28350580786355,130.98110769767663 144.94904704584042,131.14285714285506 144.9954801555141,129.7881996769138 142.4261814226047,107.80853805785591 141.28083138499642,101.33731649638503 138.74248805851676,101.1553089957888 136.35892176418565,100.60928505154152 134.96592847525608,100.81151639427117 131.390579033643,100.28571428571013 127.8616627016454,112.76286166142381" stroke="#4dd2ff" stroke-linecap="round" stroke-linejoin="round" stroke-width="0.5"><title>2020-07-06 3.8km</title></polyline><polyline fill="none" points="167.57630682259332,117.95880138193024 178.82075365178753,127.46367779772845 183.92022764065769,131.1149848398345 184.75235937954858,131.14285714285506 181.253138734377,102.3764649102086 169.8379982151091,101.28927745729743 167.10689917497803,100.50872878204973 166.3601142812986,100.75961977741099 162.3488125660224,100.28571428571013 160.9619263347704,105.4707336051506" stroke="#4dd2ff" stroke-linecap="round" stroke-linejoin="round" stroke-width="0.5"><title>2020-06-13 3.0km</title></polyline><polyline fill="none" points="12.239382239291444,158.69671038980596 12.980694980709814,158.77741871212493 11.714285714318976,160.63370358751854 11.93050193041563,161.72325626577367 42.571428571478464,148.36584957767627 41.24324324319605,138.27674373422633" stroke="#4dd2ff" stroke-linecap="round" stroke-linejoin="round" stroke-width="0.5"><title>2020-06-07 1.3km</title></polyline><polyline fill="none" points="70.04939502151683,163.82843488402432 72.24797757429769,165.4285714285652 72.79762321250746,165.2234267409076 69.54686186654726,138.24427801386628 68.87158293963876,134.69454240618506 68.60461220110301,134.5714285714348 68.52609139570268,136.5001995274215 69.46834106114693,139.18812318028358 72.42072334629484,165.12085428426508 71.855373547005,165.0798252805107 66.61018374259584,161.20253010802844 54.34523393039126,150.47273492239765 54.769246279785875,147.9901984828757" stroke="#4dd2ff" stroke-linecap="round" stroke-linejoin="round" stroke-width="0.5"><title>2019-10-02 4.9km</title></polyline><polyline fill="none" points="91.17908836109564,149.57258127254318 91.20958416623762,151.00686761368706 93.31379472150002,152.8196245054569 93.60350487031974,152.60050133212644 94.59461853757966,153.81563447263034 97.08002665714594,155.50883464736398 100.4345652234042,159.4329938715964 101.9898512858781,160.34927867676015 108.36347456171643,165.4285714285652 108.82091163896257,165.36881614776212 106.57946996053215,144.41300927268458 105.54261258553015,137.69929573898844 104.88695277483203,135.74687755288323 103.80435169214616,135.7269547735632 103.10294817376416,135.22888434091874 101.28844776749611,134.65112034945923 97.87291759095388,135.0495785377716 95.96692976925988,134.57142857142026 95.26552625081968,134.71088915226574 94.62511434277985,136.30471418591333 92.96309296222171,143.07826180991833 94.28966048610164,143.43685196978913 94.80808917363174,143.13802690232114 95.89069025637582,143.67591155011905" stroke="#4dd2ff" stroke-linecap="round" stroke-linejoin="round" stroke-width="0.5"><title>2019-08-17 4.3km</title></polyline><polyline fill="none" points="128.81175856449408,148.27111773806973 128.32476953032892,148.9471187856252 128.58348245476373,149.20558888310916 127.381228276412,150.04064275148266 128.03561979124788,150.3786392827169 128.06605660589412,151.19380391872255 138.886344210885,160.65730758282007 145.27807528554695,165.4285714285652 145.47591458068928,164.77253261077567 142.66050922631985,139.68163426974206 142.08220974821597,137.0768453336641 141.39738141885027,135.88379551112303 137.31884825683665,135.1679605745303 133.17944146558875,135.06853875642992 132.50983154348796,134.57142857142026 132.0228425092646,134.8100416878733 128.61391926940996,146.8992228916468 128.81175856449408,147.39628784650995 129.77051822579233,148.07229325870867 130.36403611133574,147.93311594957777" stroke="#4dd2ff" stroke-linecap="round" stroke-linejoin="round" stroke-width="0.5"><title>2019-06-25 4.5km</title></polyline><polyline fill="none" points="161.79520877299365,134.5714285714348 161.2354482531082,135.40734085050644 161.74189824727364,136.66120374714956 183.51924799836706,144.91563575956388 179.147784890607,161.73707038229622 179.60092435905244,162.6773638352024 184.26559535844717,163.89625721045013 184.4788374612108,165.32409577340877 183.7324901012471,165.4285714285652" stroke="#4dd2ff" stroke-linecap="round" stroke-linejoin="round" stroke-width="0.5"><title>2019-04-02 1.6km</title></polyline><polyline fill="none" points="20.475849222857505,183.778789413278 15.7697259853594,187.54538389260415 16.329978751484305,191.7465689027449 26.078376886434853,199.42455165588763 38.51598830008879,192.32604132953566 32.24115731660277,172.33405101846438 28.54348905850202,168.8571428571595 18.234838157426566,170.88534073485062 15.881776538211852,188.4145960137248 25.406073566526175,198.98995041218586 37.059331107884645,193.9195887943497 37.61958387400955,188.55946462845895 33.0255111893639,180.15705074334983 33.0255111893639,174.9417243070202 27.198882419150323,169.43662837939337 17.898686497472227,172.33405101846438 16.329978751484305,175.8109472442884 18.01073705079034,192.32604132953566 26.414528546389192,199.27968459541444 37.1713816607371,193.05038139701355 36.94728055410087,187.110777552356 32.12910676328465,183.05444271536544 33.0255111893639,174.9417243070202 30.784500123932958,171.3199540375499 25.6301746731624,169.43662837939337 21.484304202720523,169.72637101623695 17.22638317802921,173.782759229769 17.002282071392983,191.45683256501798 26.190427439752966,198.8450832895469 28.767590165138245,198.70021614641882 37.61958387400955,190.44275473000016 37.1713816607371,186.965908730519 32.46525842323899,182.04035646806005 33.0255111893639,175.52120634843595 31.120651783421636,170.59559842967428 19.355343689676374,169.00201426818967 16.329978751484305,174.65198316203896 18.234838157426566,181.31600852683187 17.114332624245435,191.31196436472237 22.60480973497033,194.06445662118495 26.078376886434853,199.71428571431898 37.731634426862,192.61577741918154 37.61958387400955,188.12485872313846" stroke="#4dd2ff" stroke-linecap="round" stroke-linejoin="round" stroke-width="0.5"><title>2018-05-25 2.9km</title></polyline><polyline fill="none" points="56.56458343274426,199.71428571428987 56.90554913284723,192.35293363238452 59.25821246416308,178.86401193018537 59.224115893943235,174.5879886878829 60.62207526480779,174.2353243290563 63.96353912644554,171.76666251875577 64.44089110696223,172.60424642075668 64.37269796675537,175.73414506719564 67.27090641821269,178.33502257967484 70.06682515982538,176.21905609834357 70.57827370997984,175.2051503447874 69.18031433946453,172.91282938979566 68.70296235906426,169.9592368695594 67.33909955830313,168.90122669312404 65.80475390749052,168.8571428571595 64.20221511670388,169.91515318467282 64.23631168680731,175.51373070979025 65.7365607675165,176.26313888159348 67.0663269982906,178.02644503916963 67.88464467867743,177.9382799708983 70.37369429005776,175.91047643954516 70.4759840000188,174.63207170448732 68.97573491930962,173.3977448596561 69.07802462938707,170.44415698642842 67.8164515387034,168.9453105230932 64.71366366697475,169.69473466597265 62.7019660359947,172.5601631141617" stroke="#4dd2ff" stroke-linecap="round" stroke-linejoin="round" stroke-width="0.5"><title>2018-05-14 2.1km</title></polyline><polyline fill="none" points="106.17136247828603,191.53252163494471 102.11852741800249,170.02598414558452 98.24991213250905,169.55844772572163 94.38129684887826,176.337713333196 94.38129684887826,195.5065262070857 101.56586809176952,199.2467573895119 105.43448337726295,192.9351125358371 104.69760427437723,173.7662709139986 101.19742854125798,168.8571428572759 96.2234946032986,169.09091117884964 94.38129684887826,194.33770228922367 101.56586809176952,199.2467573895119 105.61870315112174,187.32474204851314 103.22384607139975,171.66236061032396 94.38129684887826,173.29873551346827 94.93395617511123,195.97405555122532 99.72367033734918,199.71428571431898 105.2502636006102,192.9351125358371 104.51338449958712,175.16887634806335 101.01320876553655,169.55844772572163 94.19707707315683,173.0649677659385 95.11817594990134,196.20782017486636 101.93430764321238,198.54546466458123 105.06604382582009,188.72733639157377 104.88182405009866,178.20785085239913 100.64476921502501,169.7922159511363 93.8286375226453,175.87017863453366 94.0128572974354,196.20782017486636" stroke="#4dd2ff" stroke-linecap="round" stroke-linejoin="round" stroke-width="0.5"><title>2018-03-19 1.6km</title></polyline><polyline fill="none" points="141.88553869351745,186.83696035004687 141.69406615756452,175.90330916584935 137.67314291093498,169.3430862558307 130.58865909371525,172.98765752080362 131.16307669971138,195.3408648938639 138.24756051786244,199.71428571431898 142.4599563004449,190.96743333968334 142.4599563004449,177.11816260998603 139.2049231948331,169.82902952178847 130.78013162966818,173.23062867391855 131.3545492356643,197.28460880590137 138.24756051786244,199.22835059801582 142.26848376449198,190.481495837681 139.97081333771348,171.28685852407943 133.6522196624428,169.10011457256041 131.16307669971138,197.52757664583623 136.71578023210168,198.98538298986387 142.07701122947037,193.39711886120494 139.97081333771348,170.80091565556359 130.39718655776232,175.17439670220483 130.58865909371525,193.15415045851842 137.29019783902913,199.47131817333866 142.26848376449198,193.88305556809064 141.31112108659,173.47359979292378 131.54602177161723,172.74468633474316 130.97160416468978,192.42524504987523 135.5669450191781,199.22835059801582 141.69406615756452,191.45337070908863 140.73670347966254,171.28685852407943 131.92896684352309,168.8571428571595" stroke="#4dd2ff" stroke-linecap="round" stroke-linejoin="round" stroke-width="0.5"><title>2017-09-18 1.7km</title></polyline><polyline fill="none" points="162.77749352063984,183.38707581267226 162.77749352063984,191.7753989318153 169.26554366899654,197.01806676306296 177.02803223812953,198.36617710627615 184.7905208072625,190.42728010436986 180.3879153500311,185.78374641691335 178.53418673668057,172.30240292451344 176.10116793075576,169.60611340100877 168.4545374000445,169.45631933503319 162.31406136788428,173.9501319938572 162.08234529057518,189.5285332557978 163.58849978959188,192.52435308590066 175.52187773911282,199.71428571431898 184.09537257719785,191.92518980498426 178.0707545829937,172.15260924433824 175.75359381595626,169.75590744556393 166.94838290149346,169.45631933503319 161.15548098366708,174.09992541722022 162.08234529057518,190.42728010436986 175.52187773911282,198.2163871540688 184.21123061561957,190.5770711710211 178.88176085148007,182.93769946391694 177.6073224293068,170.95425903028809 168.57039543846622,169.00693700811826 162.89335155952722,172.15260924433824 160.9237649072893,175.74765165848657 163.4726417507045,191.92518980498426 168.4545374000445,195.52016434643883 176.7963161612861,197.61722712998744 182.00992788700387,194.7712123345118 184.44294669292867,190.27748901664745 178.9976188899018,182.03894618770573 178.18661262094975,172.00281554239336 172.85714285774156,168.8571428571595 167.41181505471468,169.30652524728794 161.61891313735396,176.0472379687708 162.1982033289969,190.42728010436986 170.6558401286602,198.06659717997536 176.68045812286437,198.36617710627615 183.97951453877613,191.92518980498426 178.765902813524,182.78790730505716 178.0707545829937,172.45219658350106" stroke="#4dd2ff" stroke-linecap="round" stroke-linejoin="round" stroke-width="0.5"><title>2017-07-30 2.9km</title></polyline><polyline fill="none" points="17.179613769520074,214.93272500671446 17.404771812725812,226.28580200241413 25.960777420084924,234.0 29.901043160818517,233.8544496356044 36.768363451585174,228.32352036435623 37.668995620682836,224.24807956058066 32.49036064790562,218.5715455278987 33.616150859277695,211.29389147413895 30.2387802246958,204.59840377629735 21.907932658214122,204.16174000455067 16.84187670610845,208.23726125073154 16.616718664299697,221.62814471090678 22.1330907009542,230.07013285544235 28.437515886034817,232.98114701209124 35.41741519747302,228.46907151967753 37.1061005149968,223.81142422079574 34.06646694429219,220.46372705709655 32.94067673245445,209.40169289463665 26.18593546235934,203.1428571428405" stroke="#4dd2ff" stroke-linecap="round" stroke-linejoin="round" stroke-width="0.5"><title>2017-07-29 1.1km</title></polyline><polyline fill="none" points="53.536539698019624,222.91959224949824 62.323847792577,233.57922730897553 66.44628862757236,234.0 73.93177330074832,227.26761527883355 69.48387661064044,217.02869158500107 69.37539132544771,208.0520130005898 66.88022976787761,204.40521385363536 64.05961235472932,203.70390477066394 58.092921673320234,204.82599906262476 55.7062454004772,207.35070652590366 53.970480838324875,211.69879858597415 55.38078954536468,218.2910304206307 54.18745140824467,224.32218243018724 65.36143577611074,231.05458737135632 72.73843516409397,227.5481322319829 74.47419972671196,224.60270022513578 70.46024417690933,219.55336763180094 67.20568562299013,205.10652243514778 62.64930364815518,203.1428571428405 53.75351026840508,205.66756893927231 52.451686846558005,212.54036256455583 54.72987783467397,226.28580531239277 65.14446520619094,233.7194848926738 74.69117029663175,227.40787376550725 74.14874387113377,223.05985135771334 68.94145018514246,216.74817162333056 69.59236189583316,208.3325354505214 66.33780334237963,204.12469028058695 59.28625980950892,203.70390477066394 55.59776011528447,207.2104451705236 55.59776011528447,226.7065811327775 64.27658292511478,233.85974245605757 70.56872946210206,232.03639256372117 74.69117029663175,225.44425312953535 69.26690603978932,218.57154994131997 67.31417090818286,207.49096786096925 62.75778893334791,204.96626075886888 57.76746581774205,205.38704572722781 54.40442197909579,209.87540748849278 54.946848404593766,213.24166532809613" stroke="#4dd2ff" stroke-linecap="round" stroke-linejoin="round" stroke-width="0.5"><title>2017-07-19 2.5km</title></polyline><polyline fill="none" points="90.01833703229204,215.83189003833104 89.46070222882554,222.32053832500242 100.27881740080193,234.0 109.75860904669389,227.65561785257887 110.8738786522299,224.0508374813944 105.855165428482,217.7063927220879 105.52058454649523,207.4686817546608 101.61714092781767,203.86382920038886 96.7099546645768,203.71963483002037 90.57597183482721,208.04545696720015 89.1261213477701,223.76245449495036 97.37911642761901,232.84647894301452 101.5056139677763,233.85580994037446 109.87013600720093,227.22304488834925 110.76235169125721,223.61826297058724 105.52058454649523,215.68769737996627 106.30127327004448,210.64094134012703 104.51684190146625,205.88254821905866 101.0595061252825,203.14285714295693 94.25636153202504,204.87318921496626 89.01459438726306,210.35255451709963 91.02207967732102,226.35789840389043 100.50187132228166,233.27904949418735 108.30875855963677,229.09752639185172 110.76235169125721,223.32987986062653 106.41280023055151,217.41800792096183 106.63585415203124,210.4967479389161 104.62836886243895,206.315130339819 97.37911642761901,204.58480074221734 92.13734928239137,206.17093631997705 89.68375615030527,210.64094134012703 89.68375615030527,224.77179458679166 99.60965563822538,233.13485933106858 109.20097424369305,228.37657237995882 110.98540561273694,225.06017728487495 106.0782193490304,215.3993120015366 104.29378798045218,205.44996591238305 99.16354779619724,203.28705159504898 94.36788849299774,204.00802355003543 89.34917526924983,209.0548127949005 91.24513359833509,218.5715466311667 93.36414584796876,219.00412330729887 94.81399633549154,215.25511928088963 97.37911642761901,215.11092653975356" stroke="#4dd2ff" stroke-linecap="round" stroke-linejoin="round" stroke-width="0.5"><title>2017-07-10 2.6km</title></polyline><polyline fill="none" points="140.60515917092562,231.40896339830942 140.04828080441803,205.96948857977986 135.03637551516294,203.1428571428405 130.02447022404522,212.80049545771908 130.02447022404522,229.28902147104964 136.52138448972255,232.35115897562355 142.27579426765442,227.40462646191008 141.16203753557056,206.2050409904914 131.13822695519775,208.32501124381088 130.2100963462144,212.3293924026657 130.2100963462144,230.93786541721784 138.19201958645135,233.05780532106292 142.09016814548522,226.22687853884418 142.8326726332307,211.38718590617646 139.1201501954347,204.0850681362208 132.0663575641811,205.96948857977986 130.76697471179068,228.58237358357292 135.40762775857002,232.35115897562355 142.27579426765442,223.40028024534695 142.27579426765442,207.6183547816472 136.89263673312962,203.37840993970167 132.0663575641811,207.8539069677936 132.43760980851948,229.28902147104964 139.86265468411148,231.17341442371253 142.46142038982362,210.91608246508986 133.9226187830791,204.32062080386095 132.2519836863503,207.6183547816472 135.2220016354695,232.11561012931634 142.09016814548522,225.75577914365567 142.27579426765442,209.73832330096047 141.34766365867108,206.2050409904914 132.43760980851948,206.67614571610466 131.8807314420119,229.9956690686522 135.5932538807392,232.82225657103118 141.90454202424735,225.52022939862218 141.71891590114683,209.50277137116063 140.23390692658722,206.2050409904914 131.8807314420119,206.91169803088997 130.76697471179068,229.52457070245873 134.66512327082455,234.0 140.60515917092562,229.28902147104964 142.27579426765442,218.21817136369646" stroke="#4dd2ff" stroke-linecap="round" stroke-linejoin="round" stroke-width="0.5"><title>2017-06-14 2.3km</title></polyline><polyline fill="none" points="166.77788943704218,205.63135574490298 166.38567954022437,229.52076969400514 172.07272306177765,234.0 179.32860617432743,228.02769048302434 178.54418637789786,208.11985095357522 174.81819234788418,204.38710686785635 166.38567954022437,206.1290550576523 166.77788943704218,231.51154007588048 177.17145173531026,231.26269389665686 179.32860617432743,209.86179558117874 176.7792418366298,204.88480652018916 169.71946367342025,203.1428571428405 166.58178448863328,209.36409728578292 166.77788943704218,228.77423024130985 173.64156265277416,234.0 178.34808142948896,227.2811504198471 178.34808142948896,208.8663988551125 174.2298774998635,203.39170715515502 166.97399438731372,207.62215218308847 167.9545191321522,226.78345687361434" stroke="#4dd2ff" stroke-linecap="round" stroke-linejoin="round" stroke-width="0.5"><title>2017-05-13 1.1km</title></polyline><polyline fill="none" points="27.37667467724532,268.285714285681 32.0530253732577,259.3846827385714 31.117755235172808,242.37367053492926 28.000188103877008,239.60441711195745 22.076810554601252,243.560491812299 21.14154041558504,247.51655572536401 23.012080693617463,265.5165103232721 30.338363451883197,264.9231087859953 32.0530253732577,245.14291867159773 27.220796320587397,239.20880904886872 23.47971576359123,240.98904448433314 22.54444562457502,263.73630498419516 28.000188103877008,266.1099116167752 30.961876878514886,262.3516993217636 31.117755235172808,243.1648848283803 25.506134398281574,239.40661309380084 22.54444562457502,262.7473010746762 26.441404538229108,266.30771199427545 32.0530253732577,260.9670923379017 32.364782087504864,246.7253438057378 27.064917964860797,237.42857142852154 23.167959050275385,245.34072190814186 23.947350832633674,263.5385042565176 31.429511948488653,260.9670923379017 29.87072838190943,242.17586689442396 22.85620233695954,242.76927773526404 23.012080693617463,262.94510191062 28.311944817192852,265.7143107819138 31.273633590899408,260.5714901002357 30.338363451883197,241.97806322702672 25.350256042554975,239.40661309380084 21.92093219794333,244.54950880235992 21.14154041558504,260.5714901002357 24.103229189291596,264.1319063595729 31.273633590899408,261.16489341680426 33.14417386986315,245.34072190814186 27.53255303390324,239.60441711195745 23.012080693617463,241.58245581027586 22.076810554601252,263.3407035014825 30.49424180854112,263.5385042565176 30.65012016519904,245.14291867159773 26.909039607271552,240.5934367987793 22.388567266985774,241.78025953227188 22.076810554601252,259.5824840326095 25.194377685897052,264.72530821955297 31.429511948488653,260.76929123245645 31.741268660873175,242.57147414877545 28.311944817192852,239.40661309380084 22.70032398030162,242.96708129520994 21.765053841285408,261.3626944682328 32.364782087504864,265.9121112129651" stroke="#4dd2ff" stroke-linecap="round" stroke-linejoin="round" stroke-width="0.5"><title>2017-05-12 3.1km</title></polyline><polyline fill="none" points="78.87842364131939,237.54022135742707 77.36531838151859,237.4955613950733 77.0662161790533,237.89750061811355 73.70571496256161,237.47323140926892 71.98147873621201,237.80818087606167 62.95562991918996,237.4285714285652 57.4134420491755,237.69653112988453 56.1290620030486,237.45090142042318 54.42242002399871,238.12079976001405 54.07053507986711,246.47196896909736 55.0382186761708,251.9424237635394 55.9883080253494,261.3199210655439 56.69207791361259,264.2223709178361 56.7272664080956,265.8521855876461 57.149528341018595,266.54429375976906 57.114339846652,267.9731529907731 52.346298853633925,268.2857142857101 48.26443350157933,267.8838496541721 48.510752962494735,260.6277908117481" stroke="#4dd2ff" stroke-linecap="round" stroke-linejoin="round" stroke-width="0.5"><title>2017-05-01 3.6km</title></polyline></svg>