<?xml version="1.0" encoding="utf-8" ?>
<svg baseProfile="full" height="300mm" version="1.1" viewBox="0,0,200,300" width="200mm" xmlns="http://www.w3.org/2000/svg" xmlns:ev="http://www.w3.org/2001/xml-events" xmlns:xlink="http://www.w3.org/1999/xlink"><defs /><rect fill="#222222" height="300" width="200" x="0" y="0" /><text fill="#FFFFFF" style="font-size:12px; font-family:Arial; font-weight:bold;" x="10" y="20">Over 1km Runs</text><text fill="#FFFFFF" style="font-size:4px; font-family:Arial" x="10" y="280">ATHLETE</text><text fill="#FFFFFF" style="font-size:9px; font-family:Arial" x="10" y="290">ahianzhang</text><text fill="#FFFFFF" style="font-size:4px; font-family:Arial" x="120" y="280">STATISTICS</text><text fill="#FFFFFF" style="font-size:3px; font-family:Arial" x="120" y="285">Number: 34</text><text fill="#FFFFFF" style="font-size:3px; font-family:Arial" x="120" y="290">Weekly: 1.3</text><text fill="#FFFFFF" style="font-size:3px; font-family:Arial" x="141" y="285">Total: 110.2 km</text><text fill="#FFFFFF" style="font-size:3px; font-family:Arial" x="141" y="290">Avg: 3.2 km</text><text fill="#FFFFFF" style="font-size:3px; font-family:Arial" x="167" y="285">Min: 1.1 km</text><text fill="#FFFFFF" style="font-size:3px; font-family:Arial" x="167" y="290">Max: 6.0 km</text><polyline fill="none" points="19.319558565155603,49.90915463096462 21.172009814181365,61.36140543955844 21.86667903244961,62.441783473681426 22.69366619712673,62.571428571420256 26.497807154315524,61.53426619133097 28.48257634951733,59.93530036663287 30.831219897256233,60.842822575505124 32.55135319964029,60.71317671687575 34.767678800970316,56.91020614121226 34.7345993143972,52.58858906413661 36.62013004976325,47.92117139606853 35.26387109979987,46.322131665452616 32.15439936053008,47.013609371177154 26.43164818128571,45.8035223208135 24.413799499510787,38.024272562528495 22.561348250717856,36.252303606655914 20.477340595796704,32.016822415956995 18.790286779985763,31.714285714289872 17.864061155472882,32.49223660494317 17.665584236034192,35.12861045188038 20.642738028778695,38.326802782161394 19.0549226726871,42.25966735757538 18.988763699424453,47.66186824571923 21.105850841035135,61.27497502558981 21.76744057261385,62.441783473681426 26.79552253370639,61.36140543955844 28.3833378899144,59.892084953549784 32.55135319964029,60.71317671687575 34.63536085456144,57.29914856792311 34.63536085456144,52.84788787702564 36.55397107661702,48.3533428060764 36.38857364375144,47.05682667379733 34.833837774116546,46.192479414865375 32.022081414354034,46.97039206218324 26.398568694712594,45.67386984190671 26.167012288584374,43.21046189911431 24.546117445803247,38.37002135964576 22.627507223864086,36.468397952616215 20.543499568942934,32.14648090719129 19.41879702510778,31.714285714289872 18.227935507893562,32.103261416457826 17.698663722723722,35.21504853910301 20.741976488381624,38.24036560821696 18.889525239705108,43.772293594578514 21.172009814181365,61.188544586329954 22.098235438461415,62.571428571420256 24.049925146973692,62.096062933967914 25.042309744632803,61.3181902358192 24.049925146973692,59.114206434664084" stroke="#4dd2ff" stroke-linecap="round" stroke-linejoin="round" stroke-width="0.5"><title>2022-04-16 4.9km</title></polyline><polyline fill="none" points="78.19915777910501,47.168748756244895 77.05227262323024,47.11710248018062 75.97459605435142,46.471521473737084 75.2923971254495,46.27784624908236 74.94635419046972,46.45860980532598 74.69918066548416,47.0525445924286 74.21472055657068,47.50444881274598 72.87009658076568,48.24040215181594 72.11868906480959,48.38242752690712 71.7232114248327,47.3236874028662 70.82349979400169,46.08417059859494 70.21050945209572,45.98087674417184 68.14413878333289,46.58772640409734 67.26420103444252,46.394051434974244 65.9195770585793,45.774288671942486 64.53540531877661,44.78007679704024 64.0410582688055,44.186126685657655 62.60745182400569,43.669645072106505 55.320776307955384,44.08283060526446 54.094795624085236,44.45727832036937 51.77136448933743,44.41854242364934 50.54538380552549,44.65095754831418 49.7939762895694,44.909195856445876 49.082116537727416,45.46440565505327 48.39003066776786,46.40696311285137 48.14285714284051,47.51736032781628 48.61743031075457,48.266224964288995 49.10189041966805,49.7122903825948 53.0962145832018,49.40242122011114 56.072183823853265,49.37659874064411 57.73318991163978,50.022158455030876 58.85041424451629,49.996336157295445 62.034009246039204,50.61606921360362 64.92099601775408,50.293292124188156 71.8517416578834,49.09255096747074 72.29665400279919,48.39533891327301 72.81077493471093,48.317870566599595 74.60031125548994,47.29786431402317 74.97601501346799,46.471521473737084 75.30228406644892,46.31658132807934 77.07204650522908,47.104190906407894 78.26836636604276,47.20748344347521 78.95056529494468,47.788501707334945 79.0,48.04673081666988" stroke="#4dd2ff" stroke-linecap="round" stroke-linejoin="round" stroke-width="0.5"><title>2022-04-14 6.0km</title></polyline><polyline fill="none" points="114.84468065603869,47.22693033358519 113.37010904424824,47.058918425798765 112.4398423897801,46.41271579662862 111.84605516353622,46.283474702395324 111.4600934665068,46.438563992735 110.88609914778499,47.4207898293098 109.17401264543878,48.36423329012905 108.54063960409258,48.37715710308112 108.09529918443877,47.13646242304094 107.17492898378987,46.03791610144253 106.11600843031192,46.115460996668844 104.50288646569243,46.58072893582721 103.73096307151718,46.41271579662862 102.62256024923408,45.986219466722105 100.41565105837071,44.18974258006347 99.09942270681495,43.69861303050857 91.80573627783451,44.08634711281047 90.18271785939578,44.499928254284896 89.03472922201036,44.396533150807954 87.3721249885275,44.59039887038671 86.24392925866414,44.90058313497866 85.41262714192271,45.54679684766597 84.77925410063472,46.399791695715976 84.57142857142026,47.627572821613285 85.1553193439031,48.57101406970469 85.54128104099073,49.75999414068792 89.25245120498585,49.436903316600365 92.340144781454,49.398132338123105 94.06212773756124,50.00554237511096 95.31897736643441,50.00554237511096 98.04050215339521,50.58710125520156 100.98964537703432,50.3544781634846 108.43177861260483,49.10088760363578 108.738568679546,48.45469994084124 110.80692751758033,47.55002925633744 111.24237148353131,47.084766432468314 111.37102538254112,46.567804859580065 111.9351232474437,46.32224705054978 113.05342252354603,46.96845034285798 114.74571611837018,47.214006352078286 115.42857142857974,47.795583645689476 115.38898561347742,48.105756633704004" stroke="#4dd2ff" stroke-linecap="round" stroke-linejoin="round" stroke-width="0.5"><title>2022-04-13 6.0km</title></polyline><polyline fill="none" points="151.2219363139011,47.155886775908584 149.84234710288,46.96146557855536 148.81013647012878,46.27450725730887 148.30395625601523,46.183776513978955 147.87717685982352,46.443006962195795 147.29159582778811,47.40215301221906 145.86238110554405,48.231676340757986 145.07829802873312,48.34832743475272 144.69121904147323,47.078118348290445 144.17511372512672,46.170814971592335 143.82773514679866,45.93750688418368 143.17267839907436,45.92454530572286 141.1082571336883,46.50781445548637 139.96687037631636,46.27450725730887 138.90488443686627,45.769006215974514 137.0687405228964,44.187676604844455 135.57005008502165,43.66920172327809 128.20562422461808,44.01917260180926 126.95506134268362,44.39506570622325 124.21573312504916,44.44691290552146 122.69719248265028,44.835765931376955 122.1513118596049,45.25054060728144 121.28782796493033,46.35227639178629 121.0,47.63545723496645 121.59550613426836,48.5038619872721 121.98258512152825,49.735167538725364 125.0395166107337,49.46298568246857 129.09888342599152,49.39818035512144 130.66704957961338,50.00734855711198 131.81836143916007,49.99438757526514 135.19289619999472,50.61651256243931 144.8797959839576,49.13895857074385 145.08822313096607,48.98342513531679 145.22717456234386,48.464978374810016 145.9616321279318,48.2575988194003 147.4305472591077,47.42807573405298 147.90695216646418,46.5596604159291 148.50245830073254,46.27450725730887 150.04084914759733,47.06515693703841 151.32118733628886,47.2077323563426 151.8571428571595,47.73914780305495" stroke="#4dd2ff" stroke-linecap="round" stroke-linejoin="round" stroke-width="0.5"><title>2022-04-12 6.0km</title></polyline><polyline fill="none" points="165.03920237871353,50.203102792729624 166.82050527248066,61.27859659388196 168.30492435058113,62.571428571420256 170.5810336038703,61.494068985339254 172.23038813495077,61.40788004771457 174.17662648204714,59.727190709265415 178.23403862898704,60.63217847113265 180.44417370087467,56.96911556957639 180.37819951970596,52.83195429749321 182.25846368528437,48.04828892915975 181.79664441663772,46.66919975957717 181.03794133209158,46.2813297638786 177.70624517893884,47.01397265904234 172.03246559144463,45.85036250131088 171.9664914100431,43.30764277881826 170.21817560703494,38.049745729978895 168.1729759881273,35.85174447292229 166.49063436617143,32.10217494904646 164.3794605662115,31.714285714260768 163.5217962099705,32.61935979849659 163.5217962099705,35.205270384205505 166.39167309436016,38.13594152254518 164.77530565368943,42.57499063771684 164.77530565368943,47.40184168718406 167.44725999445654,62.22667393376469 172.06545268197078,61.40788004771457 173.97870393830817,59.727190709265415 176.32078737264965,60.67527305695694 178.431961172726,60.33051619367325 180.51014788204338,56.75363985844888 180.4111866102321,52.40099664698937 182.2254765946418,48.393060209811665 182.2254765946418,47.14326239208458 181.23586387594696,46.19513636184274 178.1680644475855,46.97087606880814 172.03246559144463,45.72107219908503 171.99947850080207,43.35073990657111 170.28414978820365,38.13594152254518 168.63479525700677,36.75680580630433 166.49063436617143,32.14527372128214 164.08257675054483,31.972878594417125 163.45582202880178,33.00724783795886 163.65374457242433,35.50695846934104 165.9298538255971,37.27398245889344 166.49063436617143,38.78240915999049 165.10517655988224,41.45446029861341 164.67634438187815,43.91100199313951 166.6885569099104,60.7614622094261 167.8101179911755,62.442145629785955 170.5810336038703,61.321691084769554 170.6799948756816,60.02885360637447 169.12960161617957,56.66744952992303" stroke="#4dd2ff" stroke-linecap="round" stroke-linejoin="round" stroke-width="0.5"><title>2022-04-09 5.0km</title></polyline><polyline fill="none" points="42.571428571478464,80.98313585545111 39.48192348203156,80.61184863722883 37.169533169595525,79.2752078917838 36.31660231668502,79.64649804912915 35.520533520611934,81.40392704916303 32.222534222644754,83.21084202047496 31.047385047539137,83.4583631134592 29.985959986108355,80.71085864199267 28.299052299116738,78.90391691809054 27.275535275693983,78.73064751763013 23.29519129532855,79.96828219170857 21.608283608336933,79.57224008299818 19.29589329601731,78.58213074709056 15.429273429326713,75.38898858428001 16.054756054887548,76.13158517364354 14.19726219738368,77.66627444238111 13.477009477210231,78.9286696750496 13.439101439202204,80.14155032220879 14.746928747044876,81.97323111272999 16.775008775060996,82.54253325692844 17.40049140062183,83.21084202047496 16.737100737169385,84.22567619610345 16.718146718339995,85.16624876671995 15.144963145139627,86.20582288090372 12.358722358825617,86.37908461104962 12.226044226204976,87.07212975400034 11.752193752327003,87.07212975400034 11.714285714318976,87.46815427285037 14.235170235275291,87.34439671048312 30.421902421978302,84.69596313629881 31.12320112332236,83.50786728857202 32.10881010896992,83.38410682362155 33.94734994741157,82.22075401995971" stroke="#4dd2ff" stroke-linecap="round" stroke-linejoin="round" stroke-width="0.5"><title>2022-04-08 3.4km</title></polyline><polyline fill="none" points="79.0,78.12199567400967 78.45663974573836,80.21431505636428 78.39944392943289,85.07141876601963 77.28412551304791,80.06486424207105 50.20190652704332,77.63627621563501 48.14285714284051,84.77252275170758 50.17330861906521,85.22086664152448" stroke="#4dd2ff" stroke-linecap="round" stroke-linejoin="round" stroke-width="0.5"><title>2022-03-19 1.5km</title></polyline><polyline fill="none" points="92.18827424570918,84.10556753989658 94.02044872974511,95.37746598821832 94.6200694697909,96.50898425802006 95.75268642348237,96.81362305465154 99.51697218162008,95.72562591556925 101.88214287883602,94.20242321616388 104.31393810303416,94.98578558143345 105.64642863685731,94.46354423451703 107.3786663308274,91.4606386446103 107.64516443747561,86.49924975426984 109.44402665807866,81.5377778687398 108.07822386105545,80.58029128407361 105.01349563326221,81.45073376156506 99.38372312812135,80.40620248200139 97.31836280075368,72.13686667449656 95.45287605340127,70.43944817135343 93.2542666727677,66.0 91.25553087203298,66.08704864210449 90.55597334192134,68.35030436891248 90.9224082386354,69.74306853901362 93.72063835954759,72.22391351536498 91.92177613894455,76.79383677997976 91.88846387562808,79.9709800297278 92.58802140585613,86.67333497994696 94.6200694697909,96.4654644044349 95.55281284346711,96.85714285713038 102.31520230241586,94.33298375399318 104.74699752649758,95.0728257165465 106.54585974710062,93.07089614702272 107.61185217404272,90.32910111558158" stroke="#4dd2ff" stroke-linecap="round" stroke-linejoin="round" stroke-width="0.5"><title>2021-08-09 3.0km</title></polyline><polyline fill="none" points="125.8445422918303,79.95638424076606 139.02258891088422,91.48108753957786 145.8305166492937,96.42820771623519 146.50912037899252,96.85714285714494 147.0126005653292,96.68556891409389 143.7290341319749,67.74460268602706 142.02157958666794,67.11540351780422 131.1201390279457,66.0" stroke="#4dd2ff" stroke-linecap="round" stroke-linejoin="round" stroke-width="0.5"><title>2021-05-14 2.7km</title></polyline><polyline fill="none" points="161.20694670209195,78.01546390121803 176.06351417885162,91.1034609957569 183.84552571433596,96.85714285714494 184.5073390121106,96.55902862758376 184.48451786395162,93.78654534679663 180.8559553005034,66.00000000001455" stroke="#4dd2ff" stroke-linecap="round" stroke-linejoin="round" stroke-width="0.5"><title>2021-02-21 2.3km</title></polyline><polyline fill="none" points="18.75565480417572,119.00200375530403 20.43309527193196,130.04713251048815 21.238266696454957,131.0990282346902 22.3789262145292,131.14285714286962 25.80090476886835,130.39776483023888 27.74673571146559,129.03906229877612 31.302909503108822,129.4335249605938 32.812605923973024,128.33779405802488 34.08746067946777,126.4969570931571 34.15455829829443,122.28928714455105 35.89909638464451,116.72279936799896 35.328766625607386,115.67085301567568 33.85261901409831,115.32020340833697 30.732579743955284,115.80234651241335 25.70025834068656,114.57507162576076 25.599611912621185,112.55882336469949 23.72087858885061,107.07981912777177 21.775047646136954,105.01968753445544 19.795667894301005,100.76788165973267 18.38661790115293,100.28571428573923" stroke="#4dd2ff" stroke-linecap="round" stroke-linejoin="round" stroke-width="0.5"><title>2020-09-13 1.7km</title></polyline><polyline fill="none" points="51.91037300124299,112.20144481488387 66.85608323977794,125.31065938956453 74.12696930172388,130.69850554187724 75.0198851339519,131.14285714285506 75.23248414159752,130.89290949562564 71.78838021750562,102.20228100768873 70.44900646922179,101.5912038704264 61.68992735364009,100.61903163141687 59.0324397579534,101.06345384595625 55.37573682621587,100.28571428572468" stroke="#4dd2ff" stroke-linecap="round" stroke-linejoin="round" stroke-width="0.5"><title>2020-08-10 3.0km</title></polyline><polyline fill="none" points="92.37322502944153,117.98611297737807 94.21021168900188,130.02862816493143 95.55514835042413,131.14285714286962 99.45874500228092,130.11433823712287 101.5253549941117,128.57155308761867 104.80568831483833,129.2143812236609 106.60987164115068,127.71444670547498 107.65957830380648,125.7002368067333 107.65957830380648,121.02893059924827 109.29974496399518,117.30040322069544 109.00451496511232,115.75755038196803 107.92200496944133,114.94326365325833 105.03531164722517,115.45755027237465 99.72117166779935,114.30040410591755 97.4249383432325,107.14313890010817 95.58795168378856,105.21450450224802 93.52134169172496,100.92860468369327 91.38912503328174,100.41429247849737 90.76586170238443,101.78578967938665 90.86427170201205,103.97160003040335 93.19330835982691,105.98595978983212 93.81657169060782,107.57172259211075 92.2092083634343,110.82893809763482 91.94678169779945,113.27182588670985 94.07899835624266,129.3000915349985 94.96468835289124,130.8428728361905 95.88318168267142,131.14285714286962 99.03230167040601,130.20004828437231 101.06610832910519,128.6572635874909 103.23112832079642,129.42865695458022 105.6257716451073,129.1286708872649 107.6923816370545,125.52881404632353 107.56116830417886,121.32892498600995 109.33254829735961,116.4432637609425 108.05321830231696,114.94326365325833 103.82158831867855,115.50040744969738 99.68836833455134,114.34326145300292 97.62175834248774,107.05742208618904 95.58795168378856,105.17164581539691 94.21021168900188,102.04294468750595 92.2420116965659,100.54287061473588 91.65155169891659,100.28571428571013 90.89707503514364,101.01432329646195 90.66745170275681,102.94298543254263 91.45473169966135,104.828776094364 93.42293169209734,106.15739402131294 93.7181616909802,107.6145809267764" stroke="#4dd2ff" stroke-linecap="round" stroke-linejoin="round" stroke-width="0.5"><title>2020-08-09 4.1km</title></polyline><polyline fill="none" points="129.84962801879738,125.81400065196794 130.47462764277589,130.19742193698767 131.03383783251047,130.75608856391045 135.21146689762827,129.98254987373366 138.1062019978417,128.43546636449173 141.00093709817156,129.12306004413404 141.7575155904051,128.73628879795433 143.895672198385,125.68507550336653 143.99435634957626,121.47348944167607 145.77067107020412,116.53124489000766 144.5206718223635,115.07004357030382 141.5272525708424,115.54278597148368 135.4746246341383,114.29646344954381 133.86278349871282,106.90437257607118 131.98778462701011,104.97036451852182 130.14568047225475,101.0163527407567 127.90883971285075,100.5006081382744 127.11936650390271,101.5750750352745 127.0535770697752,103.6380404267693 129.71804915065877,106.21672672996647 130.0469963210635,107.33415040996624 128.53383933682926,111.33105405714014 128.43515518587083,116.7891031896288 130.31015405757353,126.67350019226433 130.31015405757353,129.72470318962587 131.13252198370174,131.01393433997873 135.80357180454303,129.85362656009966 137.51409709104337,128.177618318412 141.72462087322492,129.25198367942357 143.79698804731015,125.47020012961002 143.895672198385,121.08670809341129 145.80356578726787,116.18743347068084 144.91540842689574,114.81218375702156 141.06672653229907,115.62873905338347 135.50751935096923,114.51134702132549 133.96146764990408,106.81841693358729 131.75752160756383,104.66951767279534 130.112785755191,100.7584805531369 128.89568122441415,100.28571428571013 127.31673480605241,100.84443797412678 127.08647178672254,103.16527880801004 130.112785755191,107.0762837853108 128.40226046869066,112.27655016750214 129.02726009266917,120.82885357749183 130.5404170769034,129.89660100426408 131.98778462701011,131.14285714286962 136.00094010680914,129.72470318962587 137.41541293996852,128.43546636449173 141.3956737027038,129.25198367942357 142.41540993133094,127.87679531108006" stroke="#4dd2ff" stroke-linecap="round" stroke-linejoin="round" stroke-width="0.5"><title>2020-07-19 4.9km</title></polyline><polyline fill="none" points="165.2060354113346,126.32182011006807 170.3547806571005,130.15514429166797 172.22705165564548,131.14285714285506 173.00116370315664,129.30852843265166 173.0371689145686,127.52121360303136 171.36292657942977,114.39794966868067 171.99301778082736,114.53906574792927 172.2090490498813,116.51467781265092 172.7671298282221,117.07913393025228 176.1336171044968,115.87966230447637 178.05989592021797,116.11485352681484 179.24806790007278,114.23331408586819 179.73413825547323,111.22280503986985 180.50825030286796,109.1295271419367 180.1481981878169,108.37688121583778 178.38394282385707,108.70616424341279 175.32349984557368,108.16519891236385 174.13532786571886,103.93149413101492 173.18118976068217,102.94361359010509 172.01102038659155,100.59149255567172 171.30891876213718,100.35627855367784 170.76884058944415,100.68557805987075 170.42679108015727,102.19093861478905 171.90300475200638,103.86093143712787 171.09288749308325,106.77749688789481 171.11089009884745,109.36472826899262 172.5330959535204,116.9145011012879 174.81942688429262,116.74986810323026 176.07960928720422,115.92670057655778 177.0337473922409,116.35004440396733 177.9698828915134,116.18541082616139 179.39208874606993,114.30387221350975 179.53610959206708,111.85783899742819 180.47224509133957,109.59992905100808 179.84215388994198,108.47096214992052 178.16791155480314,108.70616424341279 175.48552329733502,107.88295540610852 174.24334350018762,104.14318202610593 173.18118976068217,102.92009255058656 172.02902299235575,100.59149255567172 171.2369083390804,100.28571428571013 170.55280932050664,100.66205668901966" stroke="#4dd2ff" stroke-linecap="round" stroke-linejoin="round" stroke-width="0.5"><title>2020-07-11 4.9km</title></polyline><polyline fill="none" points="23.513335740135517,156.0265697578725 30.664034623245243,162.19354645708518 34.997791522182524,165.26682198338676 35.66333276015939,165.4285714285652 35.70976586983306,164.07391396262392 33.14046713692369,142.09425234356604 31.995117099315394,135.62303078209516 29.45677377283573,135.44102328149893 27.073207478504628,134.89499933725165 25.680214189575054,135.0972306799813 22.104864747961983,134.57142857142026 18.575948415964376,147.04857594713394" stroke="#4dd2ff" stroke-linecap="round" stroke-linejoin="round" stroke-width="0.5"><title>2020-07-06 3.8km</title></polyline><polyline fill="none" points="58.2905925369123,152.24451566764037 69.5350393661065,161.74939208343858 74.63451335497666,165.40069912554463 75.46664509386756,165.4285714285652 71.96742444869597,136.66217919591872 60.552283929428086,135.57499174300756 57.821184889297,134.79444306775986 57.07439999561757,135.04533406312112 53.063098280341364,134.57142857142026 51.67621204908937,139.75644789086073" stroke="#4dd2ff" stroke-linecap="round" stroke-linejoin="round" stroke-width="0.5"><title>2020-06-13 3.0km</title></polyline><polyline fill="none" points="85.09652509645093,158.69671038980596 85.8378378378693,158.77741871212493 84.57142857147846,160.63370358751854 84.78764478757512,161.72325626577367 115.42857142863795,148.36584957767627 114.10038610035554,138.27674373422633" stroke="#4dd2ff" stroke-linecap="round" stroke-linejoin="round" stroke-width="0.5"><title>2020-06-07 1.3km</title></polyline><polyline fill="none" points="142.9065378786181,163.82843488402432 145.10512043139897,165.4285714285652 145.65476606960874,165.2234267409076 142.40400472364854,138.24427801386628 141.72872579674004,134.69454240618506 141.4617550582043,134.5714285714348 141.38323425280396,136.5001995274215 142.3254839182482,139.18812318028358 145.27786620339612,165.12085428426508 144.71251640410628,165.0798252805107 139.46732659969712,161.20253010802844 127.20237678749254,150.47273492239765 127.62638913688716,147.9901984828757" stroke="#4dd2ff" stroke-linecap="round" stroke-linejoin="round" stroke-width="0.5"><title>2019-10-02 4.9km</title></polyline><polyline fill="none" points="164.03623121819692,149.57258127254318 164.0667270233389,151.00686761368706 166.1709375786013,152.8196245054569 166.46064772742102,152.60050133212644 167.45176139468094,153.81563447263034 169.93716951424722,155.50883464736398 173.2917080805055,159.4329938715964 174.84699414297938,160.34927867676015 181.2206174188177,165.4285714285652 181.67805449606385,165.36881614776212 179.43661281763343,144.41300927268458 178.39975544263143,137.69929573898844 177.7440956319333,135.74687755288323 176.66149454924744,135.7269547735632 175.96009103086544,135.22888434091874 174.1455906245974,134.65112034945923 170.73006044805516,135.0495785377716 168.82407262636116,134.57142857142026 168.12266910792096,134.71088915226574 167.48225719988113,136.30471418591333 165.820235819323,143.07826180991833 167.14680334320292,143.43685196978913 167.66523203073302,143.13802690232114 168.7478331134771,143.67591155011905" stroke="#4dd2ff" stroke-linecap="round" stroke-linejoin="round" stroke-width="0.5"><title>2019-08-17 4.3km</title></polyline><polyline fill="none" points="19.52604427881306,182.5568320237944 19.039055244647898,183.2328330713499 19.2977681690827,183.49130316883384 18.09551399073098,184.32635703720734 18.749905505566858,184.66435356844158 18.780342320213094,185.47951820444723 29.600629925203975,194.94302186854475 35.99236099986592,199.71428571428987 36.19020029500825,199.05824689650035 33.37479494063882,173.96734855546674 32.79649546253495,171.36255961938878 32.11166713316925,170.1695097968477 28.03313397115562,169.45367486025498 23.893727179907728,169.3542530421546 23.224117257806938,168.85714285714494 22.737128223583568,169.095755973598 19.328204983728938,181.18493717737147 19.52604427881306,181.68200213223463 20.484803940111306,182.35800754443335 21.07832182565471,182.21883023530245" stroke="#4dd2ff" stroke-linecap="round" stroke-linejoin="round" stroke-width="0.5"><title>2019-06-25 4.5km</title></polyline><polyline fill="none" points="52.50949448731262,168.8571428571595 51.949733967427164,169.69305513623112 52.456183961592615,170.94691803287424 74.23353371268604,179.20135004528856 69.86207060492598,196.0227846680209 70.31521007337142,196.9630781209271 74.97988107276615,198.1819714961748 75.19312317552976,199.60981005913345 74.44677581556607,199.71428571428987" stroke="#4dd2ff" stroke-linecap="round" stroke-linejoin="round" stroke-width="0.5"><title>2019-04-02 1.6km</title></polyline><polyline fill="none" points="93.33299208013341,183.778789413278 88.6268688426353,187.54538389260415 89.18712160876021,191.7465689027449 98.93551974371076,199.42455165588763 111.3731311573647,192.32604132953566 105.09830017387867,172.33405101846438 101.40063191577792,168.8571428571595 91.09198101470247,170.88534073485062 88.73891939548776,188.4145960137248 98.26321642380208,198.98995041218586 109.91647396516055,193.9195887943497 110.47672673128545,188.55946462845895 105.8826540466398,180.15705074334983 105.8826540466398,174.9417243070202 100.05602527642623,169.43662837939337 90.75582935474813,172.33405101846438 89.18712160876021,175.8109472442884 90.86787990806624,192.32604132953566 99.2716714036651,199.27968459541444 110.028524518013,193.05038139701355 109.80442341137677,187.110777552356 104.98624962056056,183.05444271536544 105.8826540466398,174.9417243070202 103.64164298120886,171.3199540375499 98.4873175304383,169.43662837939337 94.34144705999643,169.72637101623695 90.08352603530511,173.782759229769 89.85942492866889,191.45683256501798 99.04757029702887,198.8450832895469 101.62473302241415,198.70021614641882 110.47672673128545,190.44275473000016 110.028524518013,186.965908730519 105.3224012805149,182.04035646806005 105.8826540466398,175.52120634843595 103.97779464069754,170.59559842967428 92.21248654695228,169.00201426818967 89.18712160876021,174.65198316203896 91.09198101470247,181.31600852683187 89.97147548152134,191.31196436472237 95.46195259224623,194.06445662118495 98.93551974371076,199.71428571431898 110.5887772841379,192.61577741918154 110.47672673128545,188.12485872313846" stroke="#4dd2ff" stroke-linecap="round" stroke-linejoin="round" stroke-width="0.5"><title>2018-05-25 2.9km</title></polyline><polyline fill="none" points="129.42172628990375,199.71428571428987 129.76269199000672,192.35293363238452 132.11535532132257,178.86401193018537 132.08125875110272,174.5879886878829 133.47921812196728,174.2353243290563 136.82068198360503,171.76666251875577 137.29803396412171,172.60424642075668 137.22984082391486,175.73414506719564 140.12804927537218,178.33502257967484 142.92396801698487,176.21905609834357 143.43541656713933,175.2051503447874 142.03745719662402,172.91282938979566 141.56010521622375,169.9592368695594 140.19624241546262,168.90122669312404 138.66189676465,168.8571428571595 137.05935797386337,169.91515318467282 137.0934545439668,175.51373070979025 138.59370362467598,176.26313888159348 139.9234698554501,178.02644503916963 140.74178753583692,177.9382799708983 143.23083714721724,175.91047643954516 143.33312685717829,174.63207170448732 141.8328777764691,173.3977448596561 141.93516748654656,170.44415698642842 140.6735943958629,168.9453105230932 137.57080652413424,169.69473466597265 135.5591088931542,172.5601631141617" stroke="#4dd2ff" stroke-linecap="round" stroke-linejoin="round" stroke-width="0.5"><title>2018-05-14 2.1km</title></polyline><polyline fill="none" points="179.0285053346306,191.53252163494471 174.97567027434707,170.02598414558452 171.10705498885363,169.55844772572163 167.23843970522285,176.337713333196 167.23843970522285,195.5065262070857 174.4230109481141,199.2467573895119 178.29162623360753,192.9351125358371 177.5547471307218,173.7662709139986 174.05457139760256,168.8571428572759 169.08063745964319,169.09091117884964 167.23843970522285,194.33770228922367 174.4230109481141,199.2467573895119 178.47584600746632,187.32474204851314 176.08098892774433,171.66236061032396 167.23843970522285,173.29873551346827 167.79109903145581,195.97405555122532 172.58081319369376,199.71428571431898 178.10740645695478,192.9351125358371 177.3705273559317,175.16887634806335 173.87035162188113,169.55844772572163 167.05421992950141,173.0649677659385 167.97531880624592,196.20782017486636 174.79145049955696,198.54546466458123 177.92318668216467,188.72733639157377 177.73896690644324,178.20785085239913 173.5019120713696,169.7922159511363 166.68578037898988,175.87017863453366 166.87000015377998,196.20782017486636" stroke="#4dd2ff" stroke-linecap="round" stroke-linejoin="round" stroke-width="0.5"><title>2018-03-19 1.6km</title></polyline><polyline fill="none" points="32.59982440713793,221.1226746357279 32.408351871185005,210.18902345153037 28.38742862455547,203.62880054151174 21.302944807335734,207.27337180648465 21.877362413331866,229.62657917954493 28.961846231482923,234.0 33.174242014065385,225.25314762536436 33.174242014065385,211.40387689566705 29.919208908453584,204.1147438074695 21.49441734328866,207.51634295959957 22.068834949284792,231.5703230915824 28.961846231482923,233.51406488369685 32.98276947811246,224.76721012336202 30.685099051333964,205.57257280976046 24.366505376063287,203.38582885824144 21.877362413331866,231.81329093151726 27.430065945722163,233.2710972755449 32.791296943090856,227.68283314688597 30.685099051333964,205.0866299412446 21.11147227138281,209.46011098788586 21.302944807335734,227.43986474419944 28.004483552649617,233.75703245901968 32.98276947811246,228.16876985377166 32.025406800210476,207.7593140786048 22.260307485237718,207.0304006204242 21.685889878310263,226.71095933555625 26.281230732798576,233.51406488369685 32.408351871185005,225.73908499476966 31.45098919328302,205.57257280976046 22.64325255714357,203.1428571428405" stroke="#4dd2ff" stroke-linecap="round" stroke-linejoin="round" stroke-width="0.5"><title>2017-09-18 1.7km</title></polyline><polyline fill="none" points="53.49177923472598,217.6727900983533 53.49177923472598,226.0611132174963 59.97982938308269,231.30378104874399 67.74231795221567,232.65189139195718 75.50480652134866,224.71299439005088 71.10220106411725,220.06946070259437 69.24847245076671,206.58811721019447 66.81545364484191,203.8918276866898 59.168823114130646,203.7420336207142 53.02834708197042,208.23584627953824 52.79663100466132,223.81424754147884 54.302785503678024,226.81006737158168 66.23616345319897,234.0 74.809658291284,226.21090409066528 68.78504029707983,206.43832353001926 66.46787953004241,204.04162173124496 57.662668615579605,203.7420336207142 51.86976669775322,208.38563970290124 52.79663100466132,224.71299439005088 66.23616345319897,232.50210143974982 74.92551632970572,224.8627854567021 69.59604656556621,217.22341374959797 68.32160814339295,205.2399733159691 59.284681152552366,203.29265129379928 53.60763727361336,206.43832353001926 51.63805062137544,210.0333659441676 54.18692746479064,226.21090409066528 59.168823114130646,229.80587863211986 67.51060187537223,231.90294141566847 72.72421360109001,229.05692662019283 75.15723240701482,224.56320330232847 69.71190460398793,216.32466047338676 68.90089833503589,206.2885298280744 63.57142857182771,203.1428571428405 58.126100768800825,203.59223953296896 52.3331988514401,210.3329522544518 52.91248904308304,224.71299439005088 61.37012584274635,232.35231146565638 67.39474383695051,232.65189139195718 74.69380025286227,226.21090409066528 69.48018852761015,217.07362159073818 68.78504029707983,206.7379108691821" stroke="#4dd2ff" stroke-linecap="round" stroke-linejoin="round" stroke-width="0.5"><title>2017-07-30 2.9km</title></polyline><polyline fill="none" points="90.03675662679598,214.93272500671446 90.26191467000172,226.28580200241413 98.81792027736083,234.0 102.75818601809442,233.8544496356044 109.62550630886108,228.32352036435623 110.52613847795874,224.24807956058066 105.34750350518152,218.5715455278987 106.4732937165536,211.29389147413895 103.0959230819717,204.59840377629735 94.76507551549003,204.16174000455067 89.69901956338435,208.23726125073154 89.4738615215756,221.62814471090678 94.9902335582301,230.07013285544235 101.29465874331072,232.98114701209124 108.27455805474892,228.46907151967753 109.9632433722727,223.81142422079574 106.92360980156809,220.46372705709655 105.79781958973035,209.40169289463665 99.04307831963524,203.1428571428405" stroke="#4dd2ff" stroke-linecap="round" stroke-linejoin="round" stroke-width="0.5"><title>2017-07-29 1.1km</title></polyline><polyline fill="none" points="126.39368255529553,222.91959224949824 135.1809906498529,233.57922730897553 139.30343148484826,234.0 146.78891615802422,227.26761527883355 142.34101946791634,217.02869158500107 142.2325341827236,208.0520130005898 139.7373726251535,204.40521385363536 136.91675521200523,203.70390477066394 130.95006453059614,204.82599906262476 128.5633882577531,207.35070652590366 126.82762369560078,211.69879858597415 128.23793240264058,218.2910304206307 127.04459426552057,224.32218243018724 138.21857863338664,231.05458737135632 145.59557802136987,227.5481322319829 147.33134258398786,224.60270022513578 143.31738703418523,219.55336763180094 140.06282848026603,205.10652243514778 135.5064465054311,203.1428571428405 126.61065312568098,205.66756893927231 125.30882970383391,212.54036256455583 127.58702069194987,226.28580531239277 138.00160806346685,233.7194848926738 147.54831315390766,227.40787376550725 147.00588672840968,223.05985135771334 141.79859304241836,216.74817162333056 142.44950475310907,208.3325354505214 139.19494619965553,204.12469028058695 132.14340266678482,203.70390477066394 128.45490297256038,207.2104451705236 128.45490297256038,226.7065811327775 137.13372578239068,233.85974245605757 143.42587231937796,232.03639256372117 147.54831315390766,225.44425312953535 142.12404889706522,218.57154994131997 140.17131376545876,207.49096786096925 135.6149317906238,204.96626075886888 130.62460867501795,205.38704572722781 127.26156483637169,209.87540748849278 127.80399126186967,213.24166532809613" stroke="#4dd2ff" stroke-linecap="round" stroke-linejoin="round" stroke-width="0.5"><title>2017-07-19 2.5km</title></polyline><polyline fill="none" points="162.87547988956794,215.83189003833104 162.31784508610144,222.32053832500242 173.13596025807783,234.0 182.6157519039698,227.65561785257887 183.7310215095058,224.0508374813944 178.7123082857579,217.7063927220879 178.37772740377113,207.4686817546608 174.47428378509358,203.86382920038886 169.5670975218527,203.71963483002037 163.43311469210312,208.04545696720015 161.983264205046,223.76245449495036 170.2362592848949,232.84647894301452 174.3627568250522,233.85580994037446 182.72727886447683,227.22304488834925 183.6194945485331,223.61826297058724 178.37772740377113,215.68769737996627 179.15841612732038,210.64094134012703 177.37398475874215,205.88254821905866 173.9166489825584,203.14285714295693 167.11350438930094,204.87318921496626 161.87173724453896,210.35255451709963 163.87922253459692,226.35789840389043 173.35901417955756,233.27904949418735 181.16590141691267,229.09752639185172 183.6194945485331,223.32987986062653 179.26994308782741,217.41800792096183 179.49299700930715,210.4967479389161 177.48551171971485,206.315130339819 170.2362592848949,204.58480074221734 164.99449213966727,206.17093631997705 162.54089900758117,210.64094134012703 162.54089900758117,224.77179458679166 172.46679849550128,233.13485933106858 182.05811710096896,228.37657237995882 183.84254847001284,225.06017728487495 178.9353622063063,215.3993120015366 177.15093083772808,205.44996591238305 172.02069065347314,203.28705159504898 167.22503135027364,204.00802355003543 162.20631812652573,209.0548127949005 164.102276455611,218.5715466311667 166.22128870524466,219.00412330729887 167.67113919276744,215.25511928088963 170.2362592848949,215.11092653975356" stroke="#4dd2ff" stroke-linecap="round" stroke-linejoin="round" stroke-width="0.5"><title>2017-07-10 2.6km</title></polyline><polyline fill="none" points="31.319444885477424,265.69467768399045 30.762566518969834,240.2552028654609 25.75066122971475,237.42857142852154 20.738755938597023,247.0862097434001 20.738755938597023,263.57473575673066 27.235670204274356,266.6368732613046 32.990079982206225,261.6903407475911 31.87632325012237,240.49075527617242 21.852512669749558,242.6107255294919 20.92438206076622,246.6151066883467 20.92438206076622,265.22357970289886 28.906305301003158,267.34351960674394 32.80445386003703,260.5125928245252 33.54695834778249,245.67290019185748 29.834435909986496,238.37078242190182 22.780643278732896,240.2552028654609 21.481260426342487,262.86808786925394 26.121913473121822,266.6368732613046 32.990079982206225,257.685994531028 32.990079982206225,241.90406906732824 27.606922447681427,237.6641242253827 22.780643278732896,242.13962125347462 23.15189552307129,263.57473575673066 30.576940398663282,265.45912870939355 33.17570610437542,245.20179675077088 24.636904497630894,238.60633508954197 22.966269400902092,241.90406906732824 25.936287350021303,266.40132441499736 32.80445386003703,260.0414934293367 32.990079982206225,244.0240375866415 32.06194937322289,240.49075527617242 23.15189552307129,240.96186000178568 22.5950171565637,264.28138335433323 26.30753959529102,267.1079708567122 32.618827738799155,259.8059436843032 32.433201615698636,243.78848565684166 30.94819264113903,240.49075527617242 22.5950171565637,241.197412316571 21.481260426342487,263.81028498813976 25.379408985376358,268.285714285681 31.319444885477424,263.57473575673066 32.990079982206225,252.50388564937748" stroke="#4dd2ff" stroke-linecap="round" stroke-linejoin="round" stroke-width="0.5"><title>2017-06-14 2.3km</title></polyline><polyline fill="none" points="57.49217515066266,239.917070030584 57.09996525384486,263.80648397968616 62.787008775398135,268.285714285681 70.04289188794792,262.31340476870537 69.25847209151834,242.40556523925625 65.53247806150466,238.67282115353737 57.09996525384486,240.41476934333332 57.49217515066266,265.7972543615615 67.88573744893074,265.5484081823379 70.04289188794792,244.14750986685976 67.49352755025029,239.17052080587018 60.433749387040734,237.42857142852154 57.29607020225376,243.64981157146394 57.49217515066266,263.0599445269909 64.35584836639464,268.285714285681 69.06236714310944,261.56686470552813 69.06236714310944,243.15211314079352 64.94416321348399,237.67742144083604 57.68828010093421,241.9078664687695 58.668804845772684,261.06917115929537" stroke="#4dd2ff" stroke-linecap="round" stroke-linejoin="round" stroke-width="0.5"><title>2017-05-13 1.1km</title></polyline><polyline fill="none" points="100.23381753452122,268.285714285681 104.9101682305336,259.3846827385714 103.97489809244871,242.37367053492926 100.85733096115291,239.60441711195745 94.93395341187716,243.560491812299 93.99868327286094,247.51655572536401 95.86922355089337,265.5165103232721 103.1955063091591,264.9231087859953 104.9101682305336,245.14291867159773 100.0779391778633,239.20880904886872 96.33685862086713,240.98904448433314 95.40158848185092,263.73630498419516 100.85733096115291,266.1099116167752 103.81901973579079,262.3516993217636 103.97489809244871,243.1648848283803 98.36327725555748,239.40661309380084 95.40158848185092,262.7473010746762 99.29854739550501,266.30771199427545 104.9101682305336,260.9670923379017 105.22192494478077,246.7253438057378 99.9220608221367,237.42857142852154 96.02510190755129,245.34072190814186 96.80449368990958,263.5385042565176 104.28665480576456,260.9670923379017 102.72787123918533,242.17586689442396 95.71334519423544,242.76927773526404 95.86922355089337,262.94510191062 101.16908767446876,265.7143107819138 104.13077644817531,260.5714901002357 103.1955063091591,241.97806322702672 98.20739889983088,239.40661309380084 94.77807505521923,244.54950880235992 93.99868327286094,260.5714901002357 96.9603720465675,264.1319063595729 104.13077644817531,261.16489341680426 106.00131672713906,245.34072190814186 100.38969589117914,239.60441711195745 95.86922355089337,241.58245581027586 94.93395341187716,263.3407035014825 103.35138466581702,263.5385042565176 103.50726302247494,245.14291867159773 99.76618246454746,240.5934367987793 95.24571012426168,241.78025953227188 94.93395341187716,259.5824840326095 98.05152054317296,264.72530821955297 104.28665480576456,260.76929123245645 104.59841151814908,242.57147414877545 101.16908767446876,239.40661309380084 95.55746683757752,242.96708129520994 94.62219669856131,261.3626944682328 105.22192494478077,265.9121112129651" stroke="#4dd2ff" stroke-linecap="round" stroke-linejoin="round" stroke-width="0.5"><title>2017-05-12 3.1km</title></polyline><polyline fill="none" points="151.73556649842067,237.54022135742707 150.22246123861987,237.4955613950733 149.92335903615458,237.89750061811355 146.5628578196629,237.47323140926892 144.8386215933133,237.80818087606167 135.81277277629124,237.4285714285652 130.27058490627678,237.69653112988453 128.98620486014988,237.45090142042318 127.27956288109999,238.12079976001405 126.9276779369684,246.47196896909736 127.89536153327208,251.9424237635394 128.84545088245068,261.3199210655439 129.54922077071387,264.2223709178361 129.58440926519688,265.8521855876461 130.00667119811988,266.54429375976906 129.97148270375328,267.9731529907731 125.2034417107352,268.2857142857101 121.12157635868061,267.8838496541721 121.36789581959601,260.6277908117481" stroke="#4dd2ff" stroke-linecap="round" stroke-linejoin="round" stroke-width="0.5"><title>2017-05-01 3.6km</title></polyline></svg>